<?xml version="1.0" encoding="utf-8" standalone="no"?>
<!DOCTYPE svg PUBLIC "-//W3C//DTD SVG 1.1//EN"
  "http://www.w3.org/Graphics/SVG/1.1/DTD/svg11.dtd">
<!-- Created with matplotlib (http://matplotlib.org/) -->
<svg height="972pt" version="1.1" viewBox="0 0 1728 972" width="1728pt" xmlns="http://www.w3.org/2000/svg" xmlns:xlink="http://www.w3.org/1999/xlink">
 <defs>
  <style type="text/css">
*{stroke-linecap:butt;stroke-linejoin:round;stroke-miterlimit:100000;}
  </style>
 </defs>
 <g id="figure_1">
  <g id="patch_1">
   <path d="M 0 972 
L 1728 972 
L 1728 0 
L 0 0 
z
" style="fill:#ffffff;"/>
  </g>
  <g id="axes_1">
   <g id="patch_2">
    <path d="M 216 874.8 
L 1555.2 874.8 
L 1555.2 97.2 
L 216 97.2 
L 216 874.8 
z
" style="fill:none;"/>
   </g>
   <g id="patch_3">
    <path clip-path="url(#pcb6d18e9ea)" d="M 262.471945 874.8 
L 273.741054 874.8 
L 273.741054 868.32 
L 262.471945 868.32 
z
" style="fill:#336699;stroke:#000000;stroke-linejoin:miter;"/>
   </g>
   <g id="patch_4">
    <path clip-path="url(#pcb6d18e9ea)" d="M 273.741054 874.8 
L 285.010163 874.8 
L 285.010163 874.8 
L 273.741054 874.8 
z
" style="fill:#336699;stroke:#000000;stroke-linejoin:miter;"/>
   </g>
   <g id="patch_5">
    <path clip-path="url(#pcb6d18e9ea)" d="M 285.010163 874.8 
L 296.279271 874.8 
L 296.279271 874.8 
L 285.010163 874.8 
z
" style="fill:#336699;stroke:#000000;stroke-linejoin:miter;"/>
   </g>
   <g id="patch_6">
    <path clip-path="url(#pcb6d18e9ea)" d="M 296.279271 874.8 
L 307.54838 874.8 
L 307.54838 868.32 
L 296.279271 868.32 
z
" style="fill:#336699;stroke:#000000;stroke-linejoin:miter;"/>
   </g>
   <g id="patch_7">
    <path clip-path="url(#pcb6d18e9ea)" d="M 307.54838 874.8 
L 318.817489 874.8 
L 318.817489 874.8 
L 307.54838 874.8 
z
" style="fill:#336699;stroke:#000000;stroke-linejoin:miter;"/>
   </g>
   <g id="patch_8">
    <path clip-path="url(#pcb6d18e9ea)" d="M 318.817489 874.8 
L 330.086597 874.8 
L 330.086597 874.8 
L 318.817489 874.8 
z
" style="fill:#336699;stroke:#000000;stroke-linejoin:miter;"/>
   </g>
   <g id="patch_9">
    <path clip-path="url(#pcb6d18e9ea)" d="M 330.086597 874.8 
L 341.355706 874.8 
L 341.355706 874.8 
L 330.086597 874.8 
z
" style="fill:#336699;stroke:#000000;stroke-linejoin:miter;"/>
   </g>
   <g id="patch_10">
    <path clip-path="url(#pcb6d18e9ea)" d="M 341.355706 874.8 
L 352.624814 874.8 
L 352.624814 874.8 
L 341.355706 874.8 
z
" style="fill:#336699;stroke:#000000;stroke-linejoin:miter;"/>
   </g>
   <g id="patch_11">
    <path clip-path="url(#pcb6d18e9ea)" d="M 352.624814 874.8 
L 363.893923 874.8 
L 363.893923 874.8 
L 352.624814 874.8 
z
" style="fill:#336699;stroke:#000000;stroke-linejoin:miter;"/>
   </g>
   <g id="patch_12">
    <path clip-path="url(#pcb6d18e9ea)" d="M 363.893923 874.8 
L 375.163032 874.8 
L 375.163032 868.32 
L 363.893923 868.32 
z
" style="fill:#336699;stroke:#000000;stroke-linejoin:miter;"/>
   </g>
   <g id="patch_13">
    <path clip-path="url(#pcb6d18e9ea)" d="M 375.163032 874.8 
L 386.43214 874.8 
L 386.43214 874.8 
L 375.163032 874.8 
z
" style="fill:#336699;stroke:#000000;stroke-linejoin:miter;"/>
   </g>
   <g id="patch_14">
    <path clip-path="url(#pcb6d18e9ea)" d="M 386.43214 874.8 
L 397.701249 874.8 
L 397.701249 874.8 
L 386.43214 874.8 
z
" style="fill:#336699;stroke:#000000;stroke-linejoin:miter;"/>
   </g>
   <g id="patch_15">
    <path clip-path="url(#pcb6d18e9ea)" d="M 397.701249 874.8 
L 408.970358 874.8 
L 408.970358 874.8 
L 397.701249 874.8 
z
" style="fill:#336699;stroke:#000000;stroke-linejoin:miter;"/>
   </g>
   <g id="patch_16">
    <path clip-path="url(#pcb6d18e9ea)" d="M 408.970358 874.8 
L 420.239466 874.8 
L 420.239466 874.8 
L 408.970358 874.8 
z
" style="fill:#336699;stroke:#000000;stroke-linejoin:miter;"/>
   </g>
   <g id="patch_17">
    <path clip-path="url(#pcb6d18e9ea)" d="M 420.239466 874.8 
L 431.508575 874.8 
L 431.508575 874.8 
L 420.239466 874.8 
z
" style="fill:#336699;stroke:#000000;stroke-linejoin:miter;"/>
   </g>
   <g id="patch_18">
    <path clip-path="url(#pcb6d18e9ea)" d="M 431.508575 874.8 
L 442.777683 874.8 
L 442.777683 874.8 
L 431.508575 874.8 
z
" style="fill:#336699;stroke:#000000;stroke-linejoin:miter;"/>
   </g>
   <g id="patch_19">
    <path clip-path="url(#pcb6d18e9ea)" d="M 442.777683 874.8 
L 454.046792 874.8 
L 454.046792 874.8 
L 442.777683 874.8 
z
" style="fill:#336699;stroke:#000000;stroke-linejoin:miter;"/>
   </g>
   <g id="patch_20">
    <path clip-path="url(#pcb6d18e9ea)" d="M 454.046792 874.8 
L 465.315901 874.8 
L 465.315901 868.32 
L 454.046792 868.32 
z
" style="fill:#336699;stroke:#000000;stroke-linejoin:miter;"/>
   </g>
   <g id="patch_21">
    <path clip-path="url(#pcb6d18e9ea)" d="M 465.315901 874.8 
L 476.585009 874.8 
L 476.585009 874.8 
L 465.315901 874.8 
z
" style="fill:#336699;stroke:#000000;stroke-linejoin:miter;"/>
   </g>
   <g id="patch_22">
    <path clip-path="url(#pcb6d18e9ea)" d="M 476.585009 874.8 
L 487.854118 874.8 
L 487.854118 874.8 
L 476.585009 874.8 
z
" style="fill:#336699;stroke:#000000;stroke-linejoin:miter;"/>
   </g>
   <g id="patch_23">
    <path clip-path="url(#pcb6d18e9ea)" d="M 487.854118 874.8 
L 499.123227 874.8 
L 499.123227 874.8 
L 487.854118 874.8 
z
" style="fill:#336699;stroke:#000000;stroke-linejoin:miter;"/>
   </g>
   <g id="patch_24">
    <path clip-path="url(#pcb6d18e9ea)" d="M 499.123227 874.8 
L 510.392335 874.8 
L 510.392335 874.8 
L 499.123227 874.8 
z
" style="fill:#336699;stroke:#000000;stroke-linejoin:miter;"/>
   </g>
   <g id="patch_25">
    <path clip-path="url(#pcb6d18e9ea)" d="M 510.392335 874.8 
L 521.661444 874.8 
L 521.661444 874.8 
L 510.392335 874.8 
z
" style="fill:#336699;stroke:#000000;stroke-linejoin:miter;"/>
   </g>
   <g id="patch_26">
    <path clip-path="url(#pcb6d18e9ea)" d="M 521.661444 874.8 
L 532.930552 874.8 
L 532.930552 874.8 
L 521.661444 874.8 
z
" style="fill:#336699;stroke:#000000;stroke-linejoin:miter;"/>
   </g>
   <g id="patch_27">
    <path clip-path="url(#pcb6d18e9ea)" d="M 532.930552 874.8 
L 544.199661 874.8 
L 544.199661 874.8 
L 532.930552 874.8 
z
" style="fill:#336699;stroke:#000000;stroke-linejoin:miter;"/>
   </g>
   <g id="patch_28">
    <path clip-path="url(#pcb6d18e9ea)" d="M 544.199661 874.8 
L 555.46877 874.8 
L 555.46877 874.8 
L 544.199661 874.8 
z
" style="fill:#336699;stroke:#000000;stroke-linejoin:miter;"/>
   </g>
   <g id="patch_29">
    <path clip-path="url(#pcb6d18e9ea)" d="M 555.46877 874.8 
L 566.737878 874.8 
L 566.737878 874.8 
L 555.46877 874.8 
z
" style="fill:#336699;stroke:#000000;stroke-linejoin:miter;"/>
   </g>
   <g id="patch_30">
    <path clip-path="url(#pcb6d18e9ea)" d="M 566.737878 874.8 
L 578.006987 874.8 
L 578.006987 874.8 
L 566.737878 874.8 
z
" style="fill:#336699;stroke:#000000;stroke-linejoin:miter;"/>
   </g>
   <g id="patch_31">
    <path clip-path="url(#pcb6d18e9ea)" d="M 578.006987 874.8 
L 589.276096 874.8 
L 589.276096 874.8 
L 578.006987 874.8 
z
" style="fill:#336699;stroke:#000000;stroke-linejoin:miter;"/>
   </g>
   <g id="patch_32">
    <path clip-path="url(#pcb6d18e9ea)" d="M 589.276096 874.8 
L 600.545204 874.8 
L 600.545204 874.8 
L 589.276096 874.8 
z
" style="fill:#336699;stroke:#000000;stroke-linejoin:miter;"/>
   </g>
   <g id="patch_33">
    <path clip-path="url(#pcb6d18e9ea)" d="M 600.545204 874.8 
L 611.814313 874.8 
L 611.814313 874.8 
L 600.545204 874.8 
z
" style="fill:#336699;stroke:#000000;stroke-linejoin:miter;"/>
   </g>
   <g id="patch_34">
    <path clip-path="url(#pcb6d18e9ea)" d="M 611.814313 874.8 
L 623.083422 874.8 
L 623.083422 868.32 
L 611.814313 868.32 
z
" style="fill:#336699;stroke:#000000;stroke-linejoin:miter;"/>
   </g>
   <g id="patch_35">
    <path clip-path="url(#pcb6d18e9ea)" d="M 623.083422 874.8 
L 634.35253 874.8 
L 634.35253 874.8 
L 623.083422 874.8 
z
" style="fill:#336699;stroke:#000000;stroke-linejoin:miter;"/>
   </g>
   <g id="patch_36">
    <path clip-path="url(#pcb6d18e9ea)" d="M 634.35253 874.8 
L 645.621639 874.8 
L 645.621639 874.8 
L 634.35253 874.8 
z
" style="fill:#336699;stroke:#000000;stroke-linejoin:miter;"/>
   </g>
   <g id="patch_37">
    <path clip-path="url(#pcb6d18e9ea)" d="M 645.621639 874.8 
L 656.890747 874.8 
L 656.890747 874.8 
L 645.621639 874.8 
z
" style="fill:#336699;stroke:#000000;stroke-linejoin:miter;"/>
   </g>
   <g id="patch_38">
    <path clip-path="url(#pcb6d18e9ea)" d="M 656.890747 874.8 
L 668.159856 874.8 
L 668.159856 874.8 
L 656.890747 874.8 
z
" style="fill:#336699;stroke:#000000;stroke-linejoin:miter;"/>
   </g>
   <g id="patch_39">
    <path clip-path="url(#pcb6d18e9ea)" d="M 668.159856 874.8 
L 679.428965 874.8 
L 679.428965 874.8 
L 668.159856 874.8 
z
" style="fill:#336699;stroke:#000000;stroke-linejoin:miter;"/>
   </g>
   <g id="patch_40">
    <path clip-path="url(#pcb6d18e9ea)" d="M 679.428965 874.8 
L 690.698073 874.8 
L 690.698073 874.8 
L 679.428965 874.8 
z
" style="fill:#336699;stroke:#000000;stroke-linejoin:miter;"/>
   </g>
   <g id="patch_41">
    <path clip-path="url(#pcb6d18e9ea)" d="M 690.698073 874.8 
L 701.967182 874.8 
L 701.967182 874.8 
L 690.698073 874.8 
z
" style="fill:#336699;stroke:#000000;stroke-linejoin:miter;"/>
   </g>
   <g id="patch_42">
    <path clip-path="url(#pcb6d18e9ea)" d="M 701.967182 874.8 
L 713.236291 874.8 
L 713.236291 874.8 
L 701.967182 874.8 
z
" style="fill:#336699;stroke:#000000;stroke-linejoin:miter;"/>
   </g>
   <g id="patch_43">
    <path clip-path="url(#pcb6d18e9ea)" d="M 713.236291 874.8 
L 724.505399 874.8 
L 724.505399 874.8 
L 713.236291 874.8 
z
" style="fill:#336699;stroke:#000000;stroke-linejoin:miter;"/>
   </g>
   <g id="patch_44">
    <path clip-path="url(#pcb6d18e9ea)" d="M 724.505399 874.8 
L 735.774508 874.8 
L 735.774508 874.8 
L 724.505399 874.8 
z
" style="fill:#336699;stroke:#000000;stroke-linejoin:miter;"/>
   </g>
   <g id="patch_45">
    <path clip-path="url(#pcb6d18e9ea)" d="M 735.774508 874.8 
L 747.043616 874.8 
L 747.043616 874.8 
L 735.774508 874.8 
z
" style="fill:#336699;stroke:#000000;stroke-linejoin:miter;"/>
   </g>
   <g id="patch_46">
    <path clip-path="url(#pcb6d18e9ea)" d="M 747.043616 874.8 
L 758.312725 874.8 
L 758.312725 874.8 
L 747.043616 874.8 
z
" style="fill:#336699;stroke:#000000;stroke-linejoin:miter;"/>
   </g>
   <g id="patch_47">
    <path clip-path="url(#pcb6d18e9ea)" d="M 758.312725 874.8 
L 769.581834 874.8 
L 769.581834 868.32 
L 758.312725 868.32 
z
" style="fill:#336699;stroke:#000000;stroke-linejoin:miter;"/>
   </g>
   <g id="patch_48">
    <path clip-path="url(#pcb6d18e9ea)" d="M 769.581834 874.8 
L 780.850942 874.8 
L 780.850942 868.32 
L 769.581834 868.32 
z
" style="fill:#336699;stroke:#000000;stroke-linejoin:miter;"/>
   </g>
   <g id="patch_49">
    <path clip-path="url(#pcb6d18e9ea)" d="M 780.850942 874.8 
L 792.120051 874.8 
L 792.120051 874.8 
L 780.850942 874.8 
z
" style="fill:#336699;stroke:#000000;stroke-linejoin:miter;"/>
   </g>
   <g id="patch_50">
    <path clip-path="url(#pcb6d18e9ea)" d="M 792.120051 874.8 
L 803.38916 874.8 
L 803.38916 874.8 
L 792.120051 874.8 
z
" style="fill:#336699;stroke:#000000;stroke-linejoin:miter;"/>
   </g>
   <g id="patch_51">
    <path clip-path="url(#pcb6d18e9ea)" d="M 803.38916 874.8 
L 814.658268 874.8 
L 814.658268 868.32 
L 803.38916 868.32 
z
" style="fill:#336699;stroke:#000000;stroke-linejoin:miter;"/>
   </g>
   <g id="patch_52">
    <path clip-path="url(#pcb6d18e9ea)" d="M 814.658268 874.8 
L 825.927377 874.8 
L 825.927377 855.36 
L 814.658268 855.36 
z
" style="fill:#336699;stroke:#000000;stroke-linejoin:miter;"/>
   </g>
   <g id="patch_53">
    <path clip-path="url(#pcb6d18e9ea)" d="M 825.927377 874.8 
L 837.196486 874.8 
L 837.196486 855.36 
L 825.927377 855.36 
z
" style="fill:#336699;stroke:#000000;stroke-linejoin:miter;"/>
   </g>
   <g id="patch_54">
    <path clip-path="url(#pcb6d18e9ea)" d="M 837.196486 874.8 
L 848.465594 874.8 
L 848.465594 842.4 
L 837.196486 842.4 
z
" style="fill:#336699;stroke:#000000;stroke-linejoin:miter;"/>
   </g>
   <g id="patch_55">
    <path clip-path="url(#pcb6d18e9ea)" d="M 848.465594 874.8 
L 859.734703 874.8 
L 859.734703 855.36 
L 848.465594 855.36 
z
" style="fill:#336699;stroke:#000000;stroke-linejoin:miter;"/>
   </g>
   <g id="patch_56">
    <path clip-path="url(#pcb6d18e9ea)" d="M 859.734703 874.8 
L 871.003811 874.8 
L 871.003811 848.88 
L 859.734703 848.88 
z
" style="fill:#336699;stroke:#000000;stroke-linejoin:miter;"/>
   </g>
   <g id="patch_57">
    <path clip-path="url(#pcb6d18e9ea)" d="M 871.003811 874.8 
L 882.27292 874.8 
L 882.27292 803.52 
L 871.003811 803.52 
z
" style="fill:#336699;stroke:#000000;stroke-linejoin:miter;"/>
   </g>
   <g id="patch_58">
    <path clip-path="url(#pcb6d18e9ea)" d="M 882.27292 874.8 
L 893.542029 874.8 
L 893.542029 822.96 
L 882.27292 822.96 
z
" style="fill:#336699;stroke:#000000;stroke-linejoin:miter;"/>
   </g>
   <g id="patch_59">
    <path clip-path="url(#pcb6d18e9ea)" d="M 893.542029 874.8 
L 904.811137 874.8 
L 904.811137 816.48 
L 893.542029 816.48 
z
" style="fill:#336699;stroke:#000000;stroke-linejoin:miter;"/>
   </g>
   <g id="patch_60">
    <path clip-path="url(#pcb6d18e9ea)" d="M 904.811137 874.8 
L 916.080246 874.8 
L 916.080246 797.04 
L 904.811137 797.04 
z
" style="fill:#336699;stroke:#000000;stroke-linejoin:miter;"/>
   </g>
   <g id="patch_61">
    <path clip-path="url(#pcb6d18e9ea)" d="M 916.080246 874.8 
L 927.349355 874.8 
L 927.349355 835.92 
L 916.080246 835.92 
z
" style="fill:#336699;stroke:#000000;stroke-linejoin:miter;"/>
   </g>
   <g id="patch_62">
    <path clip-path="url(#pcb6d18e9ea)" d="M 927.349355 874.8 
L 938.618463 874.8 
L 938.618463 764.64 
L 927.349355 764.64 
z
" style="fill:#336699;stroke:#000000;stroke-linejoin:miter;"/>
   </g>
   <g id="patch_63">
    <path clip-path="url(#pcb6d18e9ea)" d="M 938.618463 874.8 
L 949.887572 874.8 
L 949.887572 686.88 
L 938.618463 686.88 
z
" style="fill:#336699;stroke:#000000;stroke-linejoin:miter;"/>
   </g>
   <g id="patch_64">
    <path clip-path="url(#pcb6d18e9ea)" d="M 949.887572 874.8 
L 961.15668 874.8 
L 961.15668 732.24 
L 949.887572 732.24 
z
" style="fill:#336699;stroke:#000000;stroke-linejoin:miter;"/>
   </g>
   <g id="patch_65">
    <path clip-path="url(#pcb6d18e9ea)" d="M 961.15668 874.8 
L 972.425789 874.8 
L 972.425789 576.72 
L 961.15668 576.72 
z
" style="fill:#336699;stroke:#000000;stroke-linejoin:miter;"/>
   </g>
   <g id="patch_66">
    <path clip-path="url(#pcb6d18e9ea)" d="M 972.425789 874.8 
L 983.694898 874.8 
L 983.694898 544.32 
L 972.425789 544.32 
z
" style="fill:#336699;stroke:#000000;stroke-linejoin:miter;"/>
   </g>
   <g id="patch_67">
    <path clip-path="url(#pcb6d18e9ea)" d="M 983.694898 874.8 
L 994.964006 874.8 
L 994.964006 330.48 
L 983.694898 330.48 
z
" style="fill:#336699;stroke:#000000;stroke-linejoin:miter;"/>
   </g>
   <g id="patch_68">
    <path clip-path="url(#pcb6d18e9ea)" d="M 994.964006 874.8 
L 1006.233115 874.8 
L 1006.233115 252.72 
L 994.964006 252.72 
z
" style="fill:#336699;stroke:#000000;stroke-linejoin:miter;"/>
   </g>
   <g id="patch_69">
    <path clip-path="url(#pcb6d18e9ea)" d="M 1006.233115 874.8 
L 1017.502224 874.8 
L 1017.502224 194.4 
L 1006.233115 194.4 
z
" style="fill:#336699;stroke:#000000;stroke-linejoin:miter;"/>
   </g>
   <g id="patch_70">
    <path clip-path="url(#pcb6d18e9ea)" d="M 1017.502224 874.8 
L 1028.771332 874.8 
L 1028.771332 388.8 
L 1017.502224 388.8 
z
" style="fill:#336699;stroke:#000000;stroke-linejoin:miter;"/>
   </g>
   <g id="patch_71">
    <path clip-path="url(#pcb6d18e9ea)" d="M 1028.771332 874.8 
L 1040.040441 874.8 
L 1040.040441 589.68 
L 1028.771332 589.68 
z
" style="fill:#336699;stroke:#000000;stroke-linejoin:miter;"/>
   </g>
   <g id="patch_72">
    <path clip-path="url(#pcb6d18e9ea)" d="M 1040.040441 874.8 
L 1051.309549 874.8 
L 1051.309549 596.16 
L 1040.040441 596.16 
z
" style="fill:#336699;stroke:#000000;stroke-linejoin:miter;"/>
   </g>
   <g id="patch_73">
    <path clip-path="url(#pcb6d18e9ea)" d="M 1051.309549 874.8 
L 1062.578658 874.8 
L 1062.578658 648 
L 1051.309549 648 
z
" style="fill:#336699;stroke:#000000;stroke-linejoin:miter;"/>
   </g>
   <g id="patch_74">
    <path clip-path="url(#pcb6d18e9ea)" d="M 1062.578658 874.8 
L 1073.847767 874.8 
L 1073.847767 758.16 
L 1062.578658 758.16 
z
" style="fill:#336699;stroke:#000000;stroke-linejoin:miter;"/>
   </g>
   <g id="patch_75">
    <path clip-path="url(#pcb6d18e9ea)" d="M 1073.847767 874.8 
L 1085.116875 874.8 
L 1085.116875 784.08 
L 1073.847767 784.08 
z
" style="fill:#336699;stroke:#000000;stroke-linejoin:miter;"/>
   </g>
   <g id="patch_76">
    <path clip-path="url(#pcb6d18e9ea)" d="M 1085.116875 874.8 
L 1096.385984 874.8 
L 1096.385984 784.08 
L 1085.116875 784.08 
z
" style="fill:#336699;stroke:#000000;stroke-linejoin:miter;"/>
   </g>
   <g id="patch_77">
    <path clip-path="url(#pcb6d18e9ea)" d="M 1096.385984 874.8 
L 1107.655093 874.8 
L 1107.655093 797.04 
L 1096.385984 797.04 
z
" style="fill:#336699;stroke:#000000;stroke-linejoin:miter;"/>
   </g>
   <g id="patch_78">
    <path clip-path="url(#pcb6d18e9ea)" d="M 1107.655093 874.8 
L 1118.924201 874.8 
L 1118.924201 822.96 
L 1107.655093 822.96 
z
" style="fill:#336699;stroke:#000000;stroke-linejoin:miter;"/>
   </g>
   <g id="patch_79">
    <path clip-path="url(#pcb6d18e9ea)" d="M 1118.924201 874.8 
L 1130.19331 874.8 
L 1130.19331 822.96 
L 1118.924201 822.96 
z
" style="fill:#336699;stroke:#000000;stroke-linejoin:miter;"/>
   </g>
   <g id="patch_80">
    <path clip-path="url(#pcb6d18e9ea)" d="M 1130.19331 874.8 
L 1141.462419 874.8 
L 1141.462419 842.4 
L 1130.19331 842.4 
z
" style="fill:#336699;stroke:#000000;stroke-linejoin:miter;"/>
   </g>
   <g id="patch_81">
    <path clip-path="url(#pcb6d18e9ea)" d="M 1141.462419 874.8 
L 1152.731527 874.8 
L 1152.731527 855.36 
L 1141.462419 855.36 
z
" style="fill:#336699;stroke:#000000;stroke-linejoin:miter;"/>
   </g>
   <g id="patch_82">
    <path clip-path="url(#pcb6d18e9ea)" d="M 1152.731527 874.8 
L 1164.000636 874.8 
L 1164.000636 855.36 
L 1152.731527 855.36 
z
" style="fill:#336699;stroke:#000000;stroke-linejoin:miter;"/>
   </g>
   <g id="patch_83">
    <path clip-path="url(#pcb6d18e9ea)" d="M 1164.000636 874.8 
L 1175.269744 874.8 
L 1175.269744 855.36 
L 1164.000636 855.36 
z
" style="fill:#336699;stroke:#000000;stroke-linejoin:miter;"/>
   </g>
   <g id="patch_84">
    <path clip-path="url(#pcb6d18e9ea)" d="M 1175.269744 874.8 
L 1186.538853 874.8 
L 1186.538853 861.84 
L 1175.269744 861.84 
z
" style="fill:#336699;stroke:#000000;stroke-linejoin:miter;"/>
   </g>
   <g id="patch_85">
    <path clip-path="url(#pcb6d18e9ea)" d="M 1186.538853 874.8 
L 1197.807962 874.8 
L 1197.807962 874.8 
L 1186.538853 874.8 
z
" style="fill:#336699;stroke:#000000;stroke-linejoin:miter;"/>
   </g>
   <g id="patch_86">
    <path clip-path="url(#pcb6d18e9ea)" d="M 1197.807962 874.8 
L 1209.07707 874.8 
L 1209.07707 868.32 
L 1197.807962 868.32 
z
" style="fill:#336699;stroke:#000000;stroke-linejoin:miter;"/>
   </g>
   <g id="patch_87">
    <path clip-path="url(#pcb6d18e9ea)" d="M 1209.07707 874.8 
L 1220.346179 874.8 
L 1220.346179 868.32 
L 1209.07707 868.32 
z
" style="fill:#336699;stroke:#000000;stroke-linejoin:miter;"/>
   </g>
   <g id="patch_88">
    <path clip-path="url(#pcb6d18e9ea)" d="M 1220.346179 874.8 
L 1231.615288 874.8 
L 1231.615288 861.84 
L 1220.346179 861.84 
z
" style="fill:#336699;stroke:#000000;stroke-linejoin:miter;"/>
   </g>
   <g id="patch_89">
    <path clip-path="url(#pcb6d18e9ea)" d="M 1231.615288 874.8 
L 1242.884396 874.8 
L 1242.884396 868.32 
L 1231.615288 868.32 
z
" style="fill:#336699;stroke:#000000;stroke-linejoin:miter;"/>
   </g>
   <g id="patch_90">
    <path clip-path="url(#pcb6d18e9ea)" d="M 1242.884396 874.8 
L 1254.153505 874.8 
L 1254.153505 868.32 
L 1242.884396 868.32 
z
" style="fill:#336699;stroke:#000000;stroke-linejoin:miter;"/>
   </g>
   <g id="patch_91">
    <path clip-path="url(#pcb6d18e9ea)" d="M 1254.153505 874.8 
L 1265.422613 874.8 
L 1265.422613 874.8 
L 1254.153505 874.8 
z
" style="fill:#336699;stroke:#000000;stroke-linejoin:miter;"/>
   </g>
   <g id="patch_92">
    <path clip-path="url(#pcb6d18e9ea)" d="M 1265.422613 874.8 
L 1276.691722 874.8 
L 1276.691722 874.8 
L 1265.422613 874.8 
z
" style="fill:#336699;stroke:#000000;stroke-linejoin:miter;"/>
   </g>
   <g id="patch_93">
    <path clip-path="url(#pcb6d18e9ea)" d="M 1276.691722 874.8 
L 1287.960831 874.8 
L 1287.960831 861.84 
L 1276.691722 861.84 
z
" style="fill:#336699;stroke:#000000;stroke-linejoin:miter;"/>
   </g>
   <g id="patch_94">
    <path clip-path="url(#pcb6d18e9ea)" d="M 1287.960831 874.8 
L 1299.229939 874.8 
L 1299.229939 868.32 
L 1287.960831 868.32 
z
" style="fill:#336699;stroke:#000000;stroke-linejoin:miter;"/>
   </g>
   <g id="patch_95">
    <path clip-path="url(#pcb6d18e9ea)" d="M 1299.229939 874.8 
L 1310.499048 874.8 
L 1310.499048 874.8 
L 1299.229939 874.8 
z
" style="fill:#336699;stroke:#000000;stroke-linejoin:miter;"/>
   </g>
   <g id="patch_96">
    <path clip-path="url(#pcb6d18e9ea)" d="M 1310.499048 874.8 
L 1321.768157 874.8 
L 1321.768157 874.8 
L 1310.499048 874.8 
z
" style="fill:#336699;stroke:#000000;stroke-linejoin:miter;"/>
   </g>
   <g id="patch_97">
    <path clip-path="url(#pcb6d18e9ea)" d="M 1321.768157 874.8 
L 1333.037265 874.8 
L 1333.037265 874.8 
L 1321.768157 874.8 
z
" style="fill:#336699;stroke:#000000;stroke-linejoin:miter;"/>
   </g>
   <g id="patch_98">
    <path clip-path="url(#pcb6d18e9ea)" d="M 1333.037265 874.8 
L 1344.306374 874.8 
L 1344.306374 874.8 
L 1333.037265 874.8 
z
" style="fill:#336699;stroke:#000000;stroke-linejoin:miter;"/>
   </g>
   <g id="patch_99">
    <path clip-path="url(#pcb6d18e9ea)" d="M 1344.306374 874.8 
L 1355.575482 874.8 
L 1355.575482 874.8 
L 1344.306374 874.8 
z
" style="fill:#336699;stroke:#000000;stroke-linejoin:miter;"/>
   </g>
   <g id="patch_100">
    <path clip-path="url(#pcb6d18e9ea)" d="M 1355.575482 874.8 
L 1366.844591 874.8 
L 1366.844591 874.8 
L 1355.575482 874.8 
z
" style="fill:#336699;stroke:#000000;stroke-linejoin:miter;"/>
   </g>
   <g id="patch_101">
    <path clip-path="url(#pcb6d18e9ea)" d="M 1366.844591 874.8 
L 1378.1137 874.8 
L 1378.1137 868.32 
L 1366.844591 868.32 
z
" style="fill:#336699;stroke:#000000;stroke-linejoin:miter;"/>
   </g>
   <g id="patch_102">
    <path clip-path="url(#pcb6d18e9ea)" d="M 1378.1137 874.8 
L 1389.382808 874.8 
L 1389.382808 868.32 
L 1378.1137 868.32 
z
" style="fill:#336699;stroke:#000000;stroke-linejoin:miter;"/>
   </g>
   <g id="patch_103">
    <path d="M 216 97.2 
L 1555.2 97.2 
" style="fill:none;stroke:#000000;stroke-linecap:square;stroke-linejoin:miter;"/>
   </g>
   <g id="patch_104">
    <path d="M 1555.2 874.8 
L 1555.2 97.2 
" style="fill:none;stroke:#000000;stroke-linecap:square;stroke-linejoin:miter;"/>
   </g>
   <g id="patch_105">
    <path d="M 216 874.8 
L 1555.2 874.8 
" style="fill:none;stroke:#000000;stroke-linecap:square;stroke-linejoin:miter;"/>
   </g>
   <g id="patch_106">
    <path d="M 216 874.8 
L 216 97.2 
" style="fill:none;stroke:#000000;stroke-linecap:square;stroke-linejoin:miter;"/>
   </g>
   <g id="matplotlib.axis_1">
    <g id="xtick_1">
     <g id="line2d_1">
      <defs>
       <path d="M 0 0 
L 0 -4 
" id="m3f87d62bca" style="stroke:#000000;stroke-width:0.5;"/>
      </defs>
      <g>
       <use style="stroke:#000000;stroke-width:0.5;" x="215.9999999999999" xlink:href="#m3f87d62bca" y="874.8000000000001"/>
      </g>
     </g>
     <g id="line2d_2">
      <defs>
       <path d="M 0 0 
L 0 4 
" id="me15f1f31d2" style="stroke:#000000;stroke-width:0.5;"/>
      </defs>
      <g>
       <use style="stroke:#000000;stroke-width:0.5;" x="215.9999999999999" xlink:href="#me15f1f31d2" y="97.19999999999993"/>
      </g>
     </g>
     <g id="text_1">
      <!-- −0.6 -->
      <defs>
       <path d="M 10.59375 35.5 
L 73.1875 35.5 
L 73.1875 27.203125 
L 10.59375 27.203125 
z
" id="BitstreamVeraSans-Roman-2212"/>
       <path d="M 33.015625 40.375 
Q 26.375 40.375 22.484375 35.828125 
Q 18.609375 31.296875 18.609375 23.390625 
Q 18.609375 15.53125 22.484375 10.953125 
Q 26.375 6.390625 33.015625 6.390625 
Q 39.65625 6.390625 43.53125 10.953125 
Q 47.40625 15.53125 47.40625 23.390625 
Q 47.40625 31.296875 43.53125 35.828125 
Q 39.65625 40.375 33.015625 40.375 
M 52.59375 71.296875 
L 52.59375 62.3125 
Q 48.875 64.0625 45.09375 64.984375 
Q 41.3125 65.921875 37.59375 65.921875 
Q 27.828125 65.921875 22.671875 59.328125 
Q 17.53125 52.734375 16.796875 39.40625 
Q 19.671875 43.65625 24.015625 45.921875 
Q 28.375 48.1875 33.59375 48.1875 
Q 44.578125 48.1875 50.953125 41.515625 
Q 57.328125 34.859375 57.328125 23.390625 
Q 57.328125 12.15625 50.6875 5.359375 
Q 44.046875 -1.421875 33.015625 -1.421875 
Q 20.359375 -1.421875 13.671875 8.265625 
Q 6.984375 17.96875 6.984375 36.375 
Q 6.984375 53.65625 15.1875 63.9375 
Q 23.390625 74.21875 37.203125 74.21875 
Q 40.921875 74.21875 44.703125 73.484375 
Q 48.484375 72.75 52.59375 71.296875 
" id="BitstreamVeraSans-Roman-36"/>
       <path d="M 31.78125 66.40625 
Q 24.171875 66.40625 20.328125 58.90625 
Q 16.5 51.421875 16.5 36.375 
Q 16.5 21.390625 20.328125 13.890625 
Q 24.171875 6.390625 31.78125 6.390625 
Q 39.453125 6.390625 43.28125 13.890625 
Q 47.125 21.390625 47.125 36.375 
Q 47.125 51.421875 43.28125 58.90625 
Q 39.453125 66.40625 31.78125 66.40625 
M 31.78125 74.21875 
Q 44.046875 74.21875 50.515625 64.515625 
Q 56.984375 54.828125 56.984375 36.375 
Q 56.984375 17.96875 50.515625 8.265625 
Q 44.046875 -1.421875 31.78125 -1.421875 
Q 19.53125 -1.421875 13.0625 8.265625 
Q 6.59375 17.96875 6.59375 36.375 
Q 6.59375 54.828125 13.0625 64.515625 
Q 19.53125 74.21875 31.78125 74.21875 
" id="BitstreamVeraSans-Roman-30"/>
       <path d="M 10.6875 12.40625 
L 21 12.40625 
L 21 0 
L 10.6875 0 
z
" id="BitstreamVeraSans-Roman-2e"/>
      </defs>
      <g transform="translate(201.4303124999999 887.918125)scale(0.12 -0.12)">
       <use xlink:href="#BitstreamVeraSans-Roman-2212"/>
       <use x="83.7890625" xlink:href="#BitstreamVeraSans-Roman-30"/>
       <use x="147.412109375" xlink:href="#BitstreamVeraSans-Roman-2e"/>
       <use x="179.19921875" xlink:href="#BitstreamVeraSans-Roman-36"/>
      </g>
     </g>
    </g>
    <g id="xtick_2">
     <g id="line2d_3">
      <g>
       <use style="stroke:#000000;stroke-width:0.5;" x="439.2" xlink:href="#m3f87d62bca" y="874.8000000000001"/>
      </g>
     </g>
     <g id="line2d_4">
      <g>
       <use style="stroke:#000000;stroke-width:0.5;" x="439.2" xlink:href="#me15f1f31d2" y="97.19999999999993"/>
      </g>
     </g>
     <g id="text_2">
      <!-- −0.4 -->
      <defs>
       <path d="M 37.796875 64.3125 
L 12.890625 25.390625 
L 37.796875 25.390625 
z
M 35.203125 72.90625 
L 47.609375 72.90625 
L 47.609375 25.390625 
L 58.015625 25.390625 
L 58.015625 17.1875 
L 47.609375 17.1875 
L 47.609375 0 
L 37.796875 0 
L 37.796875 17.1875 
L 4.890625 17.1875 
L 4.890625 26.703125 
z
" id="BitstreamVeraSans-Roman-34"/>
      </defs>
      <g transform="translate(424.6303125 887.918125)scale(0.12 -0.12)">
       <use xlink:href="#BitstreamVeraSans-Roman-2212"/>
       <use x="83.7890625" xlink:href="#BitstreamVeraSans-Roman-30"/>
       <use x="147.412109375" xlink:href="#BitstreamVeraSans-Roman-2e"/>
       <use x="179.19921875" xlink:href="#BitstreamVeraSans-Roman-34"/>
      </g>
     </g>
    </g>
    <g id="xtick_3">
     <g id="line2d_5">
      <g>
       <use style="stroke:#000000;stroke-width:0.5;" x="662.4000000000001" xlink:href="#m3f87d62bca" y="874.8000000000001"/>
      </g>
     </g>
     <g id="line2d_6">
      <g>
       <use style="stroke:#000000;stroke-width:0.5;" x="662.4000000000001" xlink:href="#me15f1f31d2" y="97.19999999999993"/>
      </g>
     </g>
     <g id="text_3">
      <!-- −0.2 -->
      <defs>
       <path d="M 19.1875 8.296875 
L 53.609375 8.296875 
L 53.609375 0 
L 7.328125 0 
L 7.328125 8.296875 
Q 12.9375 14.109375 22.625 23.890625 
Q 32.328125 33.6875 34.8125 36.53125 
Q 39.546875 41.84375 41.421875 45.53125 
Q 43.3125 49.21875 43.3125 52.78125 
Q 43.3125 58.59375 39.234375 62.25 
Q 35.15625 65.921875 28.609375 65.921875 
Q 23.96875 65.921875 18.8125 64.3125 
Q 13.671875 62.703125 7.8125 59.421875 
L 7.8125 69.390625 
Q 13.765625 71.78125 18.9375 73 
Q 24.125 74.21875 28.421875 74.21875 
Q 39.75 74.21875 46.484375 68.546875 
Q 53.21875 62.890625 53.21875 53.421875 
Q 53.21875 48.921875 51.53125 44.890625 
Q 49.859375 40.875 45.40625 35.40625 
Q 44.1875 33.984375 37.640625 27.21875 
Q 31.109375 20.453125 19.1875 8.296875 
" id="BitstreamVeraSans-Roman-32"/>
      </defs>
      <g transform="translate(647.8303125000001 887.918125)scale(0.12 -0.12)">
       <use xlink:href="#BitstreamVeraSans-Roman-2212"/>
       <use x="83.7890625" xlink:href="#BitstreamVeraSans-Roman-30"/>
       <use x="147.412109375" xlink:href="#BitstreamVeraSans-Roman-2e"/>
       <use x="179.19921875" xlink:href="#BitstreamVeraSans-Roman-32"/>
      </g>
     </g>
    </g>
    <g id="xtick_4">
     <g id="line2d_7">
      <g>
       <use style="stroke:#000000;stroke-width:0.5;" x="885.6" xlink:href="#m3f87d62bca" y="874.8000000000001"/>
      </g>
     </g>
     <g id="line2d_8">
      <g>
       <use style="stroke:#000000;stroke-width:0.5;" x="885.6" xlink:href="#me15f1f31d2" y="97.19999999999993"/>
      </g>
     </g>
     <g id="text_4">
      <!-- 0.0 -->
      <g transform="translate(876.058125 887.918125)scale(0.12 -0.12)">
       <use xlink:href="#BitstreamVeraSans-Roman-30"/>
       <use x="63.623046875" xlink:href="#BitstreamVeraSans-Roman-2e"/>
       <use x="95.41015625" xlink:href="#BitstreamVeraSans-Roman-30"/>
      </g>
     </g>
    </g>
    <g id="xtick_5">
     <g id="line2d_9">
      <g>
       <use style="stroke:#000000;stroke-width:0.5;" x="1108.8" xlink:href="#m3f87d62bca" y="874.8000000000001"/>
      </g>
     </g>
     <g id="line2d_10">
      <g>
       <use style="stroke:#000000;stroke-width:0.5;" x="1108.8" xlink:href="#me15f1f31d2" y="97.19999999999993"/>
      </g>
     </g>
     <g id="text_5">
      <!-- 0.2 -->
      <g transform="translate(1099.258125 887.918125)scale(0.12 -0.12)">
       <use xlink:href="#BitstreamVeraSans-Roman-30"/>
       <use x="63.623046875" xlink:href="#BitstreamVeraSans-Roman-2e"/>
       <use x="95.41015625" xlink:href="#BitstreamVeraSans-Roman-32"/>
      </g>
     </g>
    </g>
    <g id="xtick_6">
     <g id="line2d_11">
      <g>
       <use style="stroke:#000000;stroke-width:0.5;" x="1332.0000000000002" xlink:href="#m3f87d62bca" y="874.8000000000001"/>
      </g>
     </g>
     <g id="line2d_12">
      <g>
       <use style="stroke:#000000;stroke-width:0.5;" x="1332.0000000000002" xlink:href="#me15f1f31d2" y="97.19999999999993"/>
      </g>
     </g>
     <g id="text_6">
      <!-- 0.4 -->
      <g transform="translate(1322.4581250000003 887.918125)scale(0.12 -0.12)">
       <use xlink:href="#BitstreamVeraSans-Roman-30"/>
       <use x="63.623046875" xlink:href="#BitstreamVeraSans-Roman-2e"/>
       <use x="95.41015625" xlink:href="#BitstreamVeraSans-Roman-34"/>
      </g>
     </g>
    </g>
    <g id="xtick_7">
     <g id="line2d_13">
      <g>
       <use style="stroke:#000000;stroke-width:0.5;" x="1555.2000000000003" xlink:href="#m3f87d62bca" y="874.8000000000001"/>
      </g>
     </g>
     <g id="line2d_14">
      <g>
       <use style="stroke:#000000;stroke-width:0.5;" x="1555.2000000000003" xlink:href="#me15f1f31d2" y="97.19999999999993"/>
      </g>
     </g>
     <g id="text_7">
      <!-- 0.6 -->
      <g transform="translate(1545.6581250000004 887.918125)scale(0.12 -0.12)">
       <use xlink:href="#BitstreamVeraSans-Roman-30"/>
       <use x="63.623046875" xlink:href="#BitstreamVeraSans-Roman-2e"/>
       <use x="95.41015625" xlink:href="#BitstreamVeraSans-Roman-36"/>
      </g>
     </g>
    </g>
   </g>
   <g id="matplotlib.axis_2">
    <g id="ytick_1">
     <g id="line2d_15">
      <defs>
       <path d="M 0 0 
L 4 0 
" id="m430e2ecc4d" style="stroke:#000000;stroke-width:0.5;"/>
      </defs>
      <g>
       <use style="stroke:#000000;stroke-width:0.5;" x="216.0" xlink:href="#m430e2ecc4d" y="874.8000000000001"/>
      </g>
     </g>
     <g id="line2d_16">
      <defs>
       <path d="M 0 0 
L -4 0 
" id="mb6d543827c" style="stroke:#000000;stroke-width:0.5;"/>
      </defs>
      <g>
       <use style="stroke:#000000;stroke-width:0.5;" x="1555.2" xlink:href="#mb6d543827c" y="874.8000000000001"/>
      </g>
     </g>
     <g id="text_8">
      <!-- 0 -->
      <g transform="translate(204.365 878.11125)scale(0.12 -0.12)">
       <use xlink:href="#BitstreamVeraSans-Roman-30"/>
      </g>
     </g>
    </g>
    <g id="ytick_2">
     <g id="line2d_17">
      <g>
       <use style="stroke:#000000;stroke-width:0.5;" x="216.0" xlink:href="#m430e2ecc4d" y="745.2"/>
      </g>
     </g>
     <g id="line2d_18">
      <g>
       <use style="stroke:#000000;stroke-width:0.5;" x="1555.2" xlink:href="#mb6d543827c" y="745.2"/>
      </g>
     </g>
     <g id="text_9">
      <!-- 20 -->
      <g transform="translate(196.73 748.51125)scale(0.12 -0.12)">
       <use xlink:href="#BitstreamVeraSans-Roman-32"/>
       <use x="63.623046875" xlink:href="#BitstreamVeraSans-Roman-30"/>
      </g>
     </g>
    </g>
    <g id="ytick_3">
     <g id="line2d_19">
      <g>
       <use style="stroke:#000000;stroke-width:0.5;" x="216.0" xlink:href="#m430e2ecc4d" y="615.6"/>
      </g>
     </g>
     <g id="line2d_20">
      <g>
       <use style="stroke:#000000;stroke-width:0.5;" x="1555.2" xlink:href="#mb6d543827c" y="615.6"/>
      </g>
     </g>
     <g id="text_10">
      <!-- 40 -->
      <g transform="translate(196.73 618.9112499999999)scale(0.12 -0.12)">
       <use xlink:href="#BitstreamVeraSans-Roman-34"/>
       <use x="63.623046875" xlink:href="#BitstreamVeraSans-Roman-30"/>
      </g>
     </g>
    </g>
    <g id="ytick_4">
     <g id="line2d_21">
      <g>
       <use style="stroke:#000000;stroke-width:0.5;" x="216.0" xlink:href="#m430e2ecc4d" y="486.0"/>
      </g>
     </g>
     <g id="line2d_22">
      <g>
       <use style="stroke:#000000;stroke-width:0.5;" x="1555.2" xlink:href="#mb6d543827c" y="486.0"/>
      </g>
     </g>
     <g id="text_11">
      <!-- 60 -->
      <g transform="translate(196.73 489.3112499999999)scale(0.12 -0.12)">
       <use xlink:href="#BitstreamVeraSans-Roman-36"/>
       <use x="63.623046875" xlink:href="#BitstreamVeraSans-Roman-30"/>
      </g>
     </g>
    </g>
    <g id="ytick_5">
     <g id="line2d_23">
      <g>
       <use style="stroke:#000000;stroke-width:0.5;" x="216.0" xlink:href="#m430e2ecc4d" y="356.4"/>
      </g>
     </g>
     <g id="line2d_24">
      <g>
       <use style="stroke:#000000;stroke-width:0.5;" x="1555.2" xlink:href="#mb6d543827c" y="356.4"/>
      </g>
     </g>
     <g id="text_12">
      <!-- 80 -->
      <defs>
       <path d="M 31.78125 34.625 
Q 24.75 34.625 20.71875 30.859375 
Q 16.703125 27.09375 16.703125 20.515625 
Q 16.703125 13.921875 20.71875 10.15625 
Q 24.75 6.390625 31.78125 6.390625 
Q 38.8125 6.390625 42.859375 10.171875 
Q 46.921875 13.96875 46.921875 20.515625 
Q 46.921875 27.09375 42.890625 30.859375 
Q 38.875 34.625 31.78125 34.625 
M 21.921875 38.8125 
Q 15.578125 40.375 12.03125 44.71875 
Q 8.5 49.078125 8.5 55.328125 
Q 8.5 64.0625 14.71875 69.140625 
Q 20.953125 74.21875 31.78125 74.21875 
Q 42.671875 74.21875 48.875 69.140625 
Q 55.078125 64.0625 55.078125 55.328125 
Q 55.078125 49.078125 51.53125 44.71875 
Q 48 40.375 41.703125 38.8125 
Q 48.828125 37.15625 52.796875 32.3125 
Q 56.78125 27.484375 56.78125 20.515625 
Q 56.78125 9.90625 50.3125 4.234375 
Q 43.84375 -1.421875 31.78125 -1.421875 
Q 19.734375 -1.421875 13.25 4.234375 
Q 6.78125 9.90625 6.78125 20.515625 
Q 6.78125 27.484375 10.78125 32.3125 
Q 14.796875 37.15625 21.921875 38.8125 
M 18.3125 54.390625 
Q 18.3125 48.734375 21.84375 45.5625 
Q 25.390625 42.390625 31.78125 42.390625 
Q 38.140625 42.390625 41.71875 45.5625 
Q 45.3125 48.734375 45.3125 54.390625 
Q 45.3125 60.0625 41.71875 63.234375 
Q 38.140625 66.40625 31.78125 66.40625 
Q 25.390625 66.40625 21.84375 63.234375 
Q 18.3125 60.0625 18.3125 54.390625 
" id="BitstreamVeraSans-Roman-38"/>
      </defs>
      <g transform="translate(196.73 359.71124999999995)scale(0.12 -0.12)">
       <use xlink:href="#BitstreamVeraSans-Roman-38"/>
       <use x="63.623046875" xlink:href="#BitstreamVeraSans-Roman-30"/>
      </g>
     </g>
    </g>
    <g id="ytick_6">
     <g id="line2d_25">
      <g>
       <use style="stroke:#000000;stroke-width:0.5;" x="216.0" xlink:href="#m430e2ecc4d" y="226.79999999999995"/>
      </g>
     </g>
     <g id="line2d_26">
      <g>
       <use style="stroke:#000000;stroke-width:0.5;" x="1555.2" xlink:href="#mb6d543827c" y="226.79999999999995"/>
      </g>
     </g>
     <g id="text_13">
      <!-- 100 -->
      <defs>
       <path d="M 12.40625 8.296875 
L 28.515625 8.296875 
L 28.515625 63.921875 
L 10.984375 60.40625 
L 10.984375 69.390625 
L 28.421875 72.90625 
L 38.28125 72.90625 
L 38.28125 8.296875 
L 54.390625 8.296875 
L 54.390625 0 
L 12.40625 0 
z
" id="BitstreamVeraSans-Roman-31"/>
      </defs>
      <g transform="translate(189.095 230.11124999999993)scale(0.12 -0.12)">
       <use xlink:href="#BitstreamVeraSans-Roman-31"/>
       <use x="63.623046875" xlink:href="#BitstreamVeraSans-Roman-30"/>
       <use x="127.24609375" xlink:href="#BitstreamVeraSans-Roman-30"/>
      </g>
     </g>
    </g>
    <g id="ytick_7">
     <g id="line2d_27">
      <g>
       <use style="stroke:#000000;stroke-width:0.5;" x="216.0" xlink:href="#m430e2ecc4d" y="97.19999999999993"/>
      </g>
     </g>
     <g id="line2d_28">
      <g>
       <use style="stroke:#000000;stroke-width:0.5;" x="1555.2" xlink:href="#mb6d543827c" y="97.19999999999993"/>
      </g>
     </g>
     <g id="text_14">
      <!-- 120 -->
      <g transform="translate(189.095 100.5112499999999)scale(0.12 -0.12)">
       <use xlink:href="#BitstreamVeraSans-Roman-31"/>
       <use x="63.623046875" xlink:href="#BitstreamVeraSans-Roman-32"/>
       <use x="127.24609375" xlink:href="#BitstreamVeraSans-Roman-30"/>
      </g>
     </g>
    </g>
   </g>
   <g id="text_15">
    <!-- Histogram of R21 -->
    <defs>
     <path id="BitstreamVeraSans-Roman-20"/>
     <path d="M 34.28125 27.484375 
Q 23.390625 27.484375 19.1875 25 
Q 14.984375 22.515625 14.984375 16.5 
Q 14.984375 11.71875 18.140625 8.90625 
Q 21.296875 6.109375 26.703125 6.109375 
Q 34.1875 6.109375 38.703125 11.40625 
Q 43.21875 16.703125 43.21875 25.484375 
L 43.21875 27.484375 
z
M 52.203125 31.203125 
L 52.203125 0 
L 43.21875 0 
L 43.21875 8.296875 
Q 40.140625 3.328125 35.546875 0.953125 
Q 30.953125 -1.421875 24.3125 -1.421875 
Q 15.921875 -1.421875 10.953125 3.296875 
Q 6 8.015625 6 15.921875 
Q 6 25.140625 12.171875 29.828125 
Q 18.359375 34.515625 30.609375 34.515625 
L 43.21875 34.515625 
L 43.21875 35.40625 
Q 43.21875 41.609375 39.140625 45 
Q 35.0625 48.390625 27.6875 48.390625 
Q 23 48.390625 18.546875 47.265625 
Q 14.109375 46.140625 10.015625 43.890625 
L 10.015625 52.203125 
Q 14.9375 54.109375 19.578125 55.046875 
Q 24.21875 56 28.609375 56 
Q 40.484375 56 46.34375 49.84375 
Q 52.203125 43.703125 52.203125 31.203125 
" id="BitstreamVeraSans-Roman-61"/>
     <path d="M 30.609375 48.390625 
Q 23.390625 48.390625 19.1875 42.75 
Q 14.984375 37.109375 14.984375 27.296875 
Q 14.984375 17.484375 19.15625 11.84375 
Q 23.34375 6.203125 30.609375 6.203125 
Q 37.796875 6.203125 41.984375 11.859375 
Q 46.1875 17.53125 46.1875 27.296875 
Q 46.1875 37.015625 41.984375 42.703125 
Q 37.796875 48.390625 30.609375 48.390625 
M 30.609375 56 
Q 42.328125 56 49.015625 48.375 
Q 55.71875 40.765625 55.71875 27.296875 
Q 55.71875 13.875 49.015625 6.21875 
Q 42.328125 -1.421875 30.609375 -1.421875 
Q 18.84375 -1.421875 12.171875 6.21875 
Q 5.515625 13.875 5.515625 27.296875 
Q 5.515625 40.765625 12.171875 48.375 
Q 18.84375 56 30.609375 56 
" id="BitstreamVeraSans-Roman-6f"/>
     <path d="M 44.390625 34.1875 
Q 47.5625 33.109375 50.5625 29.59375 
Q 53.5625 26.078125 56.59375 19.921875 
L 66.609375 0 
L 56 0 
L 46.6875 18.703125 
Q 43.0625 26.03125 39.671875 28.421875 
Q 36.28125 30.8125 30.421875 30.8125 
L 19.671875 30.8125 
L 19.671875 0 
L 9.8125 0 
L 9.8125 72.90625 
L 32.078125 72.90625 
Q 44.578125 72.90625 50.734375 67.671875 
Q 56.890625 62.453125 56.890625 51.90625 
Q 56.890625 45.015625 53.6875 40.46875 
Q 50.484375 35.9375 44.390625 34.1875 
M 19.671875 64.796875 
L 19.671875 38.921875 
L 32.078125 38.921875 
Q 39.203125 38.921875 42.84375 42.21875 
Q 46.484375 45.515625 46.484375 51.90625 
Q 46.484375 58.296875 42.84375 61.546875 
Q 39.203125 64.796875 32.078125 64.796875 
z
" id="BitstreamVeraSans-Roman-52"/>
     <path d="M 9.421875 54.6875 
L 18.40625 54.6875 
L 18.40625 0 
L 9.421875 0 
z
M 9.421875 75.984375 
L 18.40625 75.984375 
L 18.40625 64.59375 
L 9.421875 64.59375 
z
" id="BitstreamVeraSans-Roman-69"/>
     <path d="M 52 44.1875 
Q 55.375 50.25 60.0625 53.125 
Q 64.75 56 71.09375 56 
Q 79.640625 56 84.28125 50.015625 
Q 88.921875 44.046875 88.921875 33.015625 
L 88.921875 0 
L 79.890625 0 
L 79.890625 32.71875 
Q 79.890625 40.578125 77.09375 44.375 
Q 74.3125 48.1875 68.609375 48.1875 
Q 61.625 48.1875 57.5625 43.546875 
Q 53.515625 38.921875 53.515625 30.90625 
L 53.515625 0 
L 44.484375 0 
L 44.484375 32.71875 
Q 44.484375 40.625 41.703125 44.40625 
Q 38.921875 48.1875 33.109375 48.1875 
Q 26.21875 48.1875 22.15625 43.53125 
Q 18.109375 38.875 18.109375 30.90625 
L 18.109375 0 
L 9.078125 0 
L 9.078125 54.6875 
L 18.109375 54.6875 
L 18.109375 46.1875 
Q 21.1875 51.21875 25.484375 53.609375 
Q 29.78125 56 35.6875 56 
Q 41.65625 56 45.828125 52.96875 
Q 50 49.953125 52 44.1875 
" id="BitstreamVeraSans-Roman-6d"/>
     <path d="M 18.3125 70.21875 
L 18.3125 54.6875 
L 36.8125 54.6875 
L 36.8125 47.703125 
L 18.3125 47.703125 
L 18.3125 18.015625 
Q 18.3125 11.328125 20.140625 9.421875 
Q 21.96875 7.515625 27.59375 7.515625 
L 36.8125 7.515625 
L 36.8125 0 
L 27.59375 0 
Q 17.1875 0 13.234375 3.875 
Q 9.28125 7.765625 9.28125 18.015625 
L 9.28125 47.703125 
L 2.6875 47.703125 
L 2.6875 54.6875 
L 9.28125 54.6875 
L 9.28125 70.21875 
z
" id="BitstreamVeraSans-Roman-74"/>
     <path d="M 37.109375 75.984375 
L 37.109375 68.5 
L 28.515625 68.5 
Q 23.6875 68.5 21.796875 66.546875 
Q 19.921875 64.59375 19.921875 59.515625 
L 19.921875 54.6875 
L 34.71875 54.6875 
L 34.71875 47.703125 
L 19.921875 47.703125 
L 19.921875 0 
L 10.890625 0 
L 10.890625 47.703125 
L 2.296875 47.703125 
L 2.296875 54.6875 
L 10.890625 54.6875 
L 10.890625 58.5 
Q 10.890625 67.625 15.140625 71.796875 
Q 19.390625 75.984375 28.609375 75.984375 
z
" id="BitstreamVeraSans-Roman-66"/>
     <path d="M 41.109375 46.296875 
Q 39.59375 47.171875 37.8125 47.578125 
Q 36.03125 48 33.890625 48 
Q 26.265625 48 22.1875 43.046875 
Q 18.109375 38.09375 18.109375 28.8125 
L 18.109375 0 
L 9.078125 0 
L 9.078125 54.6875 
L 18.109375 54.6875 
L 18.109375 46.1875 
Q 20.953125 51.171875 25.484375 53.578125 
Q 30.03125 56 36.53125 56 
Q 37.453125 56 38.578125 55.875 
Q 39.703125 55.765625 41.0625 55.515625 
z
" id="BitstreamVeraSans-Roman-72"/>
     <path d="M 44.28125 53.078125 
L 44.28125 44.578125 
Q 40.484375 46.53125 36.375 47.5 
Q 32.28125 48.484375 27.875 48.484375 
Q 21.1875 48.484375 17.84375 46.4375 
Q 14.5 44.390625 14.5 40.28125 
Q 14.5 37.15625 16.890625 35.375 
Q 19.28125 33.59375 26.515625 31.984375 
L 29.59375 31.296875 
Q 39.15625 29.25 43.1875 25.515625 
Q 47.21875 21.78125 47.21875 15.09375 
Q 47.21875 7.46875 41.1875 3.015625 
Q 35.15625 -1.421875 24.609375 -1.421875 
Q 20.21875 -1.421875 15.453125 -0.5625 
Q 10.6875 0.296875 5.421875 2 
L 5.421875 11.28125 
Q 10.40625 8.6875 15.234375 7.390625 
Q 20.0625 6.109375 24.8125 6.109375 
Q 31.15625 6.109375 34.5625 8.28125 
Q 37.984375 10.453125 37.984375 14.40625 
Q 37.984375 18.0625 35.515625 20.015625 
Q 33.0625 21.96875 24.703125 23.78125 
L 21.578125 24.515625 
Q 13.234375 26.265625 9.515625 29.90625 
Q 5.8125 33.546875 5.8125 39.890625 
Q 5.8125 47.609375 11.28125 51.796875 
Q 16.75 56 26.8125 56 
Q 31.78125 56 36.171875 55.265625 
Q 40.578125 54.546875 44.28125 53.078125 
" id="BitstreamVeraSans-Roman-73"/>
     <path d="M 45.40625 27.984375 
Q 45.40625 37.75 41.375 43.109375 
Q 37.359375 48.484375 30.078125 48.484375 
Q 22.859375 48.484375 18.828125 43.109375 
Q 14.796875 37.75 14.796875 27.984375 
Q 14.796875 18.265625 18.828125 12.890625 
Q 22.859375 7.515625 30.078125 7.515625 
Q 37.359375 7.515625 41.375 12.890625 
Q 45.40625 18.265625 45.40625 27.984375 
M 54.390625 6.78125 
Q 54.390625 -7.171875 48.1875 -13.984375 
Q 42 -20.796875 29.203125 -20.796875 
Q 24.46875 -20.796875 20.265625 -20.09375 
Q 16.0625 -19.390625 12.109375 -17.921875 
L 12.109375 -9.1875 
Q 16.0625 -11.328125 19.921875 -12.34375 
Q 23.78125 -13.375 27.78125 -13.375 
Q 36.625 -13.375 41.015625 -8.765625 
Q 45.40625 -4.15625 45.40625 5.171875 
L 45.40625 9.625 
Q 42.625 4.78125 38.28125 2.390625 
Q 33.9375 0 27.875 0 
Q 17.828125 0 11.671875 7.65625 
Q 5.515625 15.328125 5.515625 27.984375 
Q 5.515625 40.671875 11.671875 48.328125 
Q 17.828125 56 27.875 56 
Q 33.9375 56 38.28125 53.609375 
Q 42.625 51.21875 45.40625 46.390625 
L 45.40625 54.6875 
L 54.390625 54.6875 
z
" id="BitstreamVeraSans-Roman-67"/>
     <path d="M 9.8125 72.90625 
L 19.671875 72.90625 
L 19.671875 43.015625 
L 55.515625 43.015625 
L 55.515625 72.90625 
L 65.375 72.90625 
L 65.375 0 
L 55.515625 0 
L 55.515625 34.71875 
L 19.671875 34.71875 
L 19.671875 0 
L 9.8125 0 
z
" id="BitstreamVeraSans-Roman-48"/>
    </defs>
    <g transform="translate(822.5685000000001 92.19999999999993)scale(0.144 -0.144)">
     <use xlink:href="#BitstreamVeraSans-Roman-48"/>
     <use x="75.1953125" xlink:href="#BitstreamVeraSans-Roman-69"/>
     <use x="102.978515625" xlink:href="#BitstreamVeraSans-Roman-73"/>
     <use x="155.078125" xlink:href="#BitstreamVeraSans-Roman-74"/>
     <use x="194.287109375" xlink:href="#BitstreamVeraSans-Roman-6f"/>
     <use x="255.46875" xlink:href="#BitstreamVeraSans-Roman-67"/>
     <use x="318.9453125" xlink:href="#BitstreamVeraSans-Roman-72"/>
     <use x="360.05859375" xlink:href="#BitstreamVeraSans-Roman-61"/>
     <use x="421.337890625" xlink:href="#BitstreamVeraSans-Roman-6d"/>
     <use x="518.75" xlink:href="#BitstreamVeraSans-Roman-20"/>
     <use x="550.537109375" xlink:href="#BitstreamVeraSans-Roman-6f"/>
     <use x="611.71875" xlink:href="#BitstreamVeraSans-Roman-66"/>
     <use x="646.923828125" xlink:href="#BitstreamVeraSans-Roman-20"/>
     <use x="678.7109375" xlink:href="#BitstreamVeraSans-Roman-52"/>
     <use x="748.193359375" xlink:href="#BitstreamVeraSans-Roman-32"/>
     <use x="811.81640625" xlink:href="#BitstreamVeraSans-Roman-31"/>
    </g>
   </g>
  </g>
 </g>
 <defs>
  <clipPath id="pcb6d18e9ea">
   <rect height="777.6000000000001" width="1339.2" x="216.0" y="97.19999999999993"/>
  </clipPath>
 </defs>
</svg>
