<?xml version="1.0" encoding="utf-8" standalone="no"?>
<!DOCTYPE svg PUBLIC "-//W3C//DTD SVG 1.1//EN"
  "http://www.w3.org/Graphics/SVG/1.1/DTD/svg11.dtd">
<!-- Created with matplotlib (http://matplotlib.org/) -->
<svg height="972pt" version="1.1" viewBox="0 0 1728 972" width="1728pt" xmlns="http://www.w3.org/2000/svg" xmlns:xlink="http://www.w3.org/1999/xlink">
 <defs>
  <style type="text/css">
*{stroke-linecap:butt;stroke-linejoin:round;stroke-miterlimit:100000;}
  </style>
 </defs>
 <g id="figure_1">
  <g id="patch_1">
   <path d="M 0 972 
L 1728 972 
L 1728 0 
L 0 0 
z
" style="fill:#ffffff;"/>
  </g>
  <g id="axes_1">
   <g id="patch_2">
    <path d="M 216 874.8 
L 1555.2 874.8 
L 1555.2 97.2 
L 216 97.2 
L 216 874.8 
z
" style="fill:none;"/>
   </g>
   <g id="patch_3">
    <path clip-path="url(#p028b5ff5c1)" d="M 239.696576 874.8 
L 252.849939 874.8 
L 252.849939 869.245714 
L 239.696576 869.245714 
z
" style="fill:#336699;stroke:#000000;stroke-linejoin:miter;"/>
   </g>
   <g id="patch_4">
    <path clip-path="url(#p028b5ff5c1)" d="M 252.849939 874.8 
L 266.003301 874.8 
L 266.003301 874.8 
L 252.849939 874.8 
z
" style="fill:#336699;stroke:#000000;stroke-linejoin:miter;"/>
   </g>
   <g id="patch_5">
    <path clip-path="url(#p028b5ff5c1)" d="M 266.003301 874.8 
L 279.156664 874.8 
L 279.156664 874.8 
L 266.003301 874.8 
z
" style="fill:#336699;stroke:#000000;stroke-linejoin:miter;"/>
   </g>
   <g id="patch_6">
    <path clip-path="url(#p028b5ff5c1)" d="M 279.156664 874.8 
L 292.310027 874.8 
L 292.310027 869.245714 
L 279.156664 869.245714 
z
" style="fill:#336699;stroke:#000000;stroke-linejoin:miter;"/>
   </g>
   <g id="patch_7">
    <path clip-path="url(#p028b5ff5c1)" d="M 292.310027 874.8 
L 305.46339 874.8 
L 305.46339 874.8 
L 292.310027 874.8 
z
" style="fill:#336699;stroke:#000000;stroke-linejoin:miter;"/>
   </g>
   <g id="patch_8">
    <path clip-path="url(#p028b5ff5c1)" d="M 305.46339 874.8 
L 318.616753 874.8 
L 318.616753 874.8 
L 305.46339 874.8 
z
" style="fill:#336699;stroke:#000000;stroke-linejoin:miter;"/>
   </g>
   <g id="patch_9">
    <path clip-path="url(#p028b5ff5c1)" d="M 318.616753 874.8 
L 331.770115 874.8 
L 331.770115 874.8 
L 318.616753 874.8 
z
" style="fill:#336699;stroke:#000000;stroke-linejoin:miter;"/>
   </g>
   <g id="patch_10">
    <path clip-path="url(#p028b5ff5c1)" d="M 331.770115 874.8 
L 344.923478 874.8 
L 344.923478 874.8 
L 331.770115 874.8 
z
" style="fill:#336699;stroke:#000000;stroke-linejoin:miter;"/>
   </g>
   <g id="patch_11">
    <path clip-path="url(#p028b5ff5c1)" d="M 344.923478 874.8 
L 358.076841 874.8 
L 358.076841 874.8 
L 344.923478 874.8 
z
" style="fill:#336699;stroke:#000000;stroke-linejoin:miter;"/>
   </g>
   <g id="patch_12">
    <path clip-path="url(#p028b5ff5c1)" d="M 358.076841 874.8 
L 371.230204 874.8 
L 371.230204 874.8 
L 358.076841 874.8 
z
" style="fill:#336699;stroke:#000000;stroke-linejoin:miter;"/>
   </g>
   <g id="patch_13">
    <path clip-path="url(#p028b5ff5c1)" d="M 371.230204 874.8 
L 384.383567 874.8 
L 384.383567 874.8 
L 371.230204 874.8 
z
" style="fill:#336699;stroke:#000000;stroke-linejoin:miter;"/>
   </g>
   <g id="patch_14">
    <path clip-path="url(#p028b5ff5c1)" d="M 384.383567 874.8 
L 397.536929 874.8 
L 397.536929 869.245714 
L 384.383567 869.245714 
z
" style="fill:#336699;stroke:#000000;stroke-linejoin:miter;"/>
   </g>
   <g id="patch_15">
    <path clip-path="url(#p028b5ff5c1)" d="M 397.536929 874.8 
L 410.690292 874.8 
L 410.690292 874.8 
L 397.536929 874.8 
z
" style="fill:#336699;stroke:#000000;stroke-linejoin:miter;"/>
   </g>
   <g id="patch_16">
    <path clip-path="url(#p028b5ff5c1)" d="M 410.690292 874.8 
L 423.843655 874.8 
L 423.843655 874.8 
L 410.690292 874.8 
z
" style="fill:#336699;stroke:#000000;stroke-linejoin:miter;"/>
   </g>
   <g id="patch_17">
    <path clip-path="url(#p028b5ff5c1)" d="M 423.843655 874.8 
L 436.997018 874.8 
L 436.997018 874.8 
L 423.843655 874.8 
z
" style="fill:#336699;stroke:#000000;stroke-linejoin:miter;"/>
   </g>
   <g id="patch_18">
    <path clip-path="url(#p028b5ff5c1)" d="M 436.997018 874.8 
L 450.150381 874.8 
L 450.150381 874.8 
L 436.997018 874.8 
z
" style="fill:#336699;stroke:#000000;stroke-linejoin:miter;"/>
   </g>
   <g id="patch_19">
    <path clip-path="url(#p028b5ff5c1)" d="M 450.150381 874.8 
L 463.303743 874.8 
L 463.303743 874.8 
L 450.150381 874.8 
z
" style="fill:#336699;stroke:#000000;stroke-linejoin:miter;"/>
   </g>
   <g id="patch_20">
    <path clip-path="url(#p028b5ff5c1)" d="M 463.303743 874.8 
L 476.457106 874.8 
L 476.457106 874.8 
L 463.303743 874.8 
z
" style="fill:#336699;stroke:#000000;stroke-linejoin:miter;"/>
   </g>
   <g id="patch_21">
    <path clip-path="url(#p028b5ff5c1)" d="M 476.457106 874.8 
L 489.610469 874.8 
L 489.610469 874.8 
L 476.457106 874.8 
z
" style="fill:#336699;stroke:#000000;stroke-linejoin:miter;"/>
   </g>
   <g id="patch_22">
    <path clip-path="url(#p028b5ff5c1)" d="M 489.610469 874.8 
L 502.763832 874.8 
L 502.763832 869.245714 
L 489.610469 869.245714 
z
" style="fill:#336699;stroke:#000000;stroke-linejoin:miter;"/>
   </g>
   <g id="patch_23">
    <path clip-path="url(#p028b5ff5c1)" d="M 502.763832 874.8 
L 515.917195 874.8 
L 515.917195 874.8 
L 502.763832 874.8 
z
" style="fill:#336699;stroke:#000000;stroke-linejoin:miter;"/>
   </g>
   <g id="patch_24">
    <path clip-path="url(#p028b5ff5c1)" d="M 515.917195 874.8 
L 529.070557 874.8 
L 529.070557 869.245714 
L 515.917195 869.245714 
z
" style="fill:#336699;stroke:#000000;stroke-linejoin:miter;"/>
   </g>
   <g id="patch_25">
    <path clip-path="url(#p028b5ff5c1)" d="M 529.070557 874.8 
L 542.22392 874.8 
L 542.22392 874.8 
L 529.070557 874.8 
z
" style="fill:#336699;stroke:#000000;stroke-linejoin:miter;"/>
   </g>
   <g id="patch_26">
    <path clip-path="url(#p028b5ff5c1)" d="M 542.22392 874.8 
L 555.377283 874.8 
L 555.377283 874.8 
L 542.22392 874.8 
z
" style="fill:#336699;stroke:#000000;stroke-linejoin:miter;"/>
   </g>
   <g id="patch_27">
    <path clip-path="url(#p028b5ff5c1)" d="M 555.377283 874.8 
L 568.530646 874.8 
L 568.530646 869.245714 
L 555.377283 869.245714 
z
" style="fill:#336699;stroke:#000000;stroke-linejoin:miter;"/>
   </g>
   <g id="patch_28">
    <path clip-path="url(#p028b5ff5c1)" d="M 568.530646 874.8 
L 581.684009 874.8 
L 581.684009 874.8 
L 568.530646 874.8 
z
" style="fill:#336699;stroke:#000000;stroke-linejoin:miter;"/>
   </g>
   <g id="patch_29">
    <path clip-path="url(#p028b5ff5c1)" d="M 581.684009 874.8 
L 594.837371 874.8 
L 594.837371 874.8 
L 581.684009 874.8 
z
" style="fill:#336699;stroke:#000000;stroke-linejoin:miter;"/>
   </g>
   <g id="patch_30">
    <path clip-path="url(#p028b5ff5c1)" d="M 594.837371 874.8 
L 607.990734 874.8 
L 607.990734 874.8 
L 594.837371 874.8 
z
" style="fill:#336699;stroke:#000000;stroke-linejoin:miter;"/>
   </g>
   <g id="patch_31">
    <path clip-path="url(#p028b5ff5c1)" d="M 607.990734 874.8 
L 621.144097 874.8 
L 621.144097 874.8 
L 607.990734 874.8 
z
" style="fill:#336699;stroke:#000000;stroke-linejoin:miter;"/>
   </g>
   <g id="patch_32">
    <path clip-path="url(#p028b5ff5c1)" d="M 621.144097 874.8 
L 634.29746 874.8 
L 634.29746 869.245714 
L 621.144097 869.245714 
z
" style="fill:#336699;stroke:#000000;stroke-linejoin:miter;"/>
   </g>
   <g id="patch_33">
    <path clip-path="url(#p028b5ff5c1)" d="M 634.29746 874.8 
L 647.450823 874.8 
L 647.450823 869.245714 
L 634.29746 869.245714 
z
" style="fill:#336699;stroke:#000000;stroke-linejoin:miter;"/>
   </g>
   <g id="patch_34">
    <path clip-path="url(#p028b5ff5c1)" d="M 647.450823 874.8 
L 660.604185 874.8 
L 660.604185 874.8 
L 647.450823 874.8 
z
" style="fill:#336699;stroke:#000000;stroke-linejoin:miter;"/>
   </g>
   <g id="patch_35">
    <path clip-path="url(#p028b5ff5c1)" d="M 660.604185 874.8 
L 673.757548 874.8 
L 673.757548 874.8 
L 660.604185 874.8 
z
" style="fill:#336699;stroke:#000000;stroke-linejoin:miter;"/>
   </g>
   <g id="patch_36">
    <path clip-path="url(#p028b5ff5c1)" d="M 673.757548 874.8 
L 686.910911 874.8 
L 686.910911 869.245714 
L 673.757548 869.245714 
z
" style="fill:#336699;stroke:#000000;stroke-linejoin:miter;"/>
   </g>
   <g id="patch_37">
    <path clip-path="url(#p028b5ff5c1)" d="M 686.910911 874.8 
L 700.064274 874.8 
L 700.064274 863.691429 
L 686.910911 863.691429 
z
" style="fill:#336699;stroke:#000000;stroke-linejoin:miter;"/>
   </g>
   <g id="patch_38">
    <path clip-path="url(#p028b5ff5c1)" d="M 700.064274 874.8 
L 713.217637 874.8 
L 713.217637 874.8 
L 700.064274 874.8 
z
" style="fill:#336699;stroke:#000000;stroke-linejoin:miter;"/>
   </g>
   <g id="patch_39">
    <path clip-path="url(#p028b5ff5c1)" d="M 713.217637 874.8 
L 726.371 874.8 
L 726.371 874.8 
L 713.217637 874.8 
z
" style="fill:#336699;stroke:#000000;stroke-linejoin:miter;"/>
   </g>
   <g id="patch_40">
    <path clip-path="url(#p028b5ff5c1)" d="M 726.371 874.8 
L 739.524362 874.8 
L 739.524362 874.8 
L 726.371 874.8 
z
" style="fill:#336699;stroke:#000000;stroke-linejoin:miter;"/>
   </g>
   <g id="patch_41">
    <path clip-path="url(#p028b5ff5c1)" d="M 739.524362 874.8 
L 752.677725 874.8 
L 752.677725 874.8 
L 739.524362 874.8 
z
" style="fill:#336699;stroke:#000000;stroke-linejoin:miter;"/>
   </g>
   <g id="patch_42">
    <path clip-path="url(#p028b5ff5c1)" d="M 752.677725 874.8 
L 765.831088 874.8 
L 765.831088 874.8 
L 752.677725 874.8 
z
" style="fill:#336699;stroke:#000000;stroke-linejoin:miter;"/>
   </g>
   <g id="patch_43">
    <path clip-path="url(#p028b5ff5c1)" d="M 765.831088 874.8 
L 778.984451 874.8 
L 778.984451 869.245714 
L 765.831088 869.245714 
z
" style="fill:#336699;stroke:#000000;stroke-linejoin:miter;"/>
   </g>
   <g id="patch_44">
    <path clip-path="url(#p028b5ff5c1)" d="M 778.984451 874.8 
L 792.137814 874.8 
L 792.137814 874.8 
L 778.984451 874.8 
z
" style="fill:#336699;stroke:#000000;stroke-linejoin:miter;"/>
   </g>
   <g id="patch_45">
    <path clip-path="url(#p028b5ff5c1)" d="M 792.137814 874.8 
L 805.291176 874.8 
L 805.291176 874.8 
L 792.137814 874.8 
z
" style="fill:#336699;stroke:#000000;stroke-linejoin:miter;"/>
   </g>
   <g id="patch_46">
    <path clip-path="url(#p028b5ff5c1)" d="M 805.291176 874.8 
L 818.444539 874.8 
L 818.444539 874.8 
L 805.291176 874.8 
z
" style="fill:#336699;stroke:#000000;stroke-linejoin:miter;"/>
   </g>
   <g id="patch_47">
    <path clip-path="url(#p028b5ff5c1)" d="M 818.444539 874.8 
L 831.597902 874.8 
L 831.597902 874.8 
L 818.444539 874.8 
z
" style="fill:#336699;stroke:#000000;stroke-linejoin:miter;"/>
   </g>
   <g id="patch_48">
    <path clip-path="url(#p028b5ff5c1)" d="M 831.597902 874.8 
L 844.751265 874.8 
L 844.751265 869.245714 
L 831.597902 869.245714 
z
" style="fill:#336699;stroke:#000000;stroke-linejoin:miter;"/>
   </g>
   <g id="patch_49">
    <path clip-path="url(#p028b5ff5c1)" d="M 844.751265 874.8 
L 857.904628 874.8 
L 857.904628 874.8 
L 844.751265 874.8 
z
" style="fill:#336699;stroke:#000000;stroke-linejoin:miter;"/>
   </g>
   <g id="patch_50">
    <path clip-path="url(#p028b5ff5c1)" d="M 857.904628 874.8 
L 871.05799 874.8 
L 871.05799 874.8 
L 857.904628 874.8 
z
" style="fill:#336699;stroke:#000000;stroke-linejoin:miter;"/>
   </g>
   <g id="patch_51">
    <path clip-path="url(#p028b5ff5c1)" d="M 871.05799 874.8 
L 884.211353 874.8 
L 884.211353 869.245714 
L 871.05799 869.245714 
z
" style="fill:#336699;stroke:#000000;stroke-linejoin:miter;"/>
   </g>
   <g id="patch_52">
    <path clip-path="url(#p028b5ff5c1)" d="M 884.211353 874.8 
L 897.364716 874.8 
L 897.364716 874.8 
L 884.211353 874.8 
z
" style="fill:#336699;stroke:#000000;stroke-linejoin:miter;"/>
   </g>
   <g id="patch_53">
    <path clip-path="url(#p028b5ff5c1)" d="M 897.364716 874.8 
L 910.518079 874.8 
L 910.518079 874.8 
L 897.364716 874.8 
z
" style="fill:#336699;stroke:#000000;stroke-linejoin:miter;"/>
   </g>
   <g id="patch_54">
    <path clip-path="url(#p028b5ff5c1)" d="M 910.518079 874.8 
L 923.671442 874.8 
L 923.671442 874.8 
L 910.518079 874.8 
z
" style="fill:#336699;stroke:#000000;stroke-linejoin:miter;"/>
   </g>
   <g id="patch_55">
    <path clip-path="url(#p028b5ff5c1)" d="M 923.671442 874.8 
L 936.824804 874.8 
L 936.824804 869.245714 
L 923.671442 869.245714 
z
" style="fill:#336699;stroke:#000000;stroke-linejoin:miter;"/>
   </g>
   <g id="patch_56">
    <path clip-path="url(#p028b5ff5c1)" d="M 936.824804 874.8 
L 949.978167 874.8 
L 949.978167 874.8 
L 936.824804 874.8 
z
" style="fill:#336699;stroke:#000000;stroke-linejoin:miter;"/>
   </g>
   <g id="patch_57">
    <path clip-path="url(#p028b5ff5c1)" d="M 949.978167 874.8 
L 963.13153 874.8 
L 963.13153 874.8 
L 949.978167 874.8 
z
" style="fill:#336699;stroke:#000000;stroke-linejoin:miter;"/>
   </g>
   <g id="patch_58">
    <path clip-path="url(#p028b5ff5c1)" d="M 963.13153 874.8 
L 976.284893 874.8 
L 976.284893 869.245714 
L 963.13153 869.245714 
z
" style="fill:#336699;stroke:#000000;stroke-linejoin:miter;"/>
   </g>
   <g id="patch_59">
    <path clip-path="url(#p028b5ff5c1)" d="M 976.284893 874.8 
L 989.438256 874.8 
L 989.438256 874.8 
L 976.284893 874.8 
z
" style="fill:#336699;stroke:#000000;stroke-linejoin:miter;"/>
   </g>
   <g id="patch_60">
    <path clip-path="url(#p028b5ff5c1)" d="M 989.438256 874.8 
L 1002.591618 874.8 
L 1002.591618 869.245714 
L 989.438256 869.245714 
z
" style="fill:#336699;stroke:#000000;stroke-linejoin:miter;"/>
   </g>
   <g id="patch_61">
    <path clip-path="url(#p028b5ff5c1)" d="M 1002.591618 874.8 
L 1015.744981 874.8 
L 1015.744981 874.8 
L 1002.591618 874.8 
z
" style="fill:#336699;stroke:#000000;stroke-linejoin:miter;"/>
   </g>
   <g id="patch_62">
    <path clip-path="url(#p028b5ff5c1)" d="M 1015.744981 874.8 
L 1028.898344 874.8 
L 1028.898344 869.245714 
L 1015.744981 869.245714 
z
" style="fill:#336699;stroke:#000000;stroke-linejoin:miter;"/>
   </g>
   <g id="patch_63">
    <path clip-path="url(#p028b5ff5c1)" d="M 1028.898344 874.8 
L 1042.051707 874.8 
L 1042.051707 874.8 
L 1028.898344 874.8 
z
" style="fill:#336699;stroke:#000000;stroke-linejoin:miter;"/>
   </g>
   <g id="patch_64">
    <path clip-path="url(#p028b5ff5c1)" d="M 1042.051707 874.8 
L 1055.20507 874.8 
L 1055.20507 874.8 
L 1042.051707 874.8 
z
" style="fill:#336699;stroke:#000000;stroke-linejoin:miter;"/>
   </g>
   <g id="patch_65">
    <path clip-path="url(#p028b5ff5c1)" d="M 1055.20507 874.8 
L 1068.358432 874.8 
L 1068.358432 869.245714 
L 1055.20507 869.245714 
z
" style="fill:#336699;stroke:#000000;stroke-linejoin:miter;"/>
   </g>
   <g id="patch_66">
    <path clip-path="url(#p028b5ff5c1)" d="M 1068.358432 874.8 
L 1081.511795 874.8 
L 1081.511795 874.8 
L 1068.358432 874.8 
z
" style="fill:#336699;stroke:#000000;stroke-linejoin:miter;"/>
   </g>
   <g id="patch_67">
    <path clip-path="url(#p028b5ff5c1)" d="M 1081.511795 874.8 
L 1094.665158 874.8 
L 1094.665158 874.8 
L 1081.511795 874.8 
z
" style="fill:#336699;stroke:#000000;stroke-linejoin:miter;"/>
   </g>
   <g id="patch_68">
    <path clip-path="url(#p028b5ff5c1)" d="M 1094.665158 874.8 
L 1107.818521 874.8 
L 1107.818521 869.245714 
L 1094.665158 869.245714 
z
" style="fill:#336699;stroke:#000000;stroke-linejoin:miter;"/>
   </g>
   <g id="patch_69">
    <path clip-path="url(#p028b5ff5c1)" d="M 1107.818521 874.8 
L 1120.971884 874.8 
L 1120.971884 874.8 
L 1107.818521 874.8 
z
" style="fill:#336699;stroke:#000000;stroke-linejoin:miter;"/>
   </g>
   <g id="patch_70">
    <path clip-path="url(#p028b5ff5c1)" d="M 1120.971884 874.8 
L 1134.125246 874.8 
L 1134.125246 869.245714 
L 1120.971884 869.245714 
z
" style="fill:#336699;stroke:#000000;stroke-linejoin:miter;"/>
   </g>
   <g id="patch_71">
    <path clip-path="url(#p028b5ff5c1)" d="M 1134.125246 874.8 
L 1147.278609 874.8 
L 1147.278609 874.8 
L 1134.125246 874.8 
z
" style="fill:#336699;stroke:#000000;stroke-linejoin:miter;"/>
   </g>
   <g id="patch_72">
    <path clip-path="url(#p028b5ff5c1)" d="M 1147.278609 874.8 
L 1160.431972 874.8 
L 1160.431972 874.8 
L 1147.278609 874.8 
z
" style="fill:#336699;stroke:#000000;stroke-linejoin:miter;"/>
   </g>
   <g id="patch_73">
    <path clip-path="url(#p028b5ff5c1)" d="M 1160.431972 874.8 
L 1173.585335 874.8 
L 1173.585335 869.245714 
L 1160.431972 869.245714 
z
" style="fill:#336699;stroke:#000000;stroke-linejoin:miter;"/>
   </g>
   <g id="patch_74">
    <path clip-path="url(#p028b5ff5c1)" d="M 1173.585335 874.8 
L 1186.738698 874.8 
L 1186.738698 874.8 
L 1173.585335 874.8 
z
" style="fill:#336699;stroke:#000000;stroke-linejoin:miter;"/>
   </g>
   <g id="patch_75">
    <path clip-path="url(#p028b5ff5c1)" d="M 1186.738698 874.8 
L 1199.892061 874.8 
L 1199.892061 869.245714 
L 1186.738698 869.245714 
z
" style="fill:#336699;stroke:#000000;stroke-linejoin:miter;"/>
   </g>
   <g id="patch_76">
    <path clip-path="url(#p028b5ff5c1)" d="M 1199.892061 874.8 
L 1213.045423 874.8 
L 1213.045423 874.8 
L 1199.892061 874.8 
z
" style="fill:#336699;stroke:#000000;stroke-linejoin:miter;"/>
   </g>
   <g id="patch_77">
    <path clip-path="url(#p028b5ff5c1)" d="M 1213.045423 874.8 
L 1226.198786 874.8 
L 1226.198786 874.8 
L 1213.045423 874.8 
z
" style="fill:#336699;stroke:#000000;stroke-linejoin:miter;"/>
   </g>
   <g id="patch_78">
    <path clip-path="url(#p028b5ff5c1)" d="M 1226.198786 874.8 
L 1239.352149 874.8 
L 1239.352149 869.245714 
L 1226.198786 869.245714 
z
" style="fill:#336699;stroke:#000000;stroke-linejoin:miter;"/>
   </g>
   <g id="patch_79">
    <path clip-path="url(#p028b5ff5c1)" d="M 1239.352149 874.8 
L 1252.505512 874.8 
L 1252.505512 874.8 
L 1239.352149 874.8 
z
" style="fill:#336699;stroke:#000000;stroke-linejoin:miter;"/>
   </g>
   <g id="patch_80">
    <path clip-path="url(#p028b5ff5c1)" d="M 1252.505512 874.8 
L 1265.658875 874.8 
L 1265.658875 869.245714 
L 1252.505512 869.245714 
z
" style="fill:#336699;stroke:#000000;stroke-linejoin:miter;"/>
   </g>
   <g id="patch_81">
    <path clip-path="url(#p028b5ff5c1)" d="M 1265.658875 874.8 
L 1278.812237 874.8 
L 1278.812237 869.245714 
L 1265.658875 869.245714 
z
" style="fill:#336699;stroke:#000000;stroke-linejoin:miter;"/>
   </g>
   <g id="patch_82">
    <path clip-path="url(#p028b5ff5c1)" d="M 1278.812237 874.8 
L 1291.9656 874.8 
L 1291.9656 874.8 
L 1278.812237 874.8 
z
" style="fill:#336699;stroke:#000000;stroke-linejoin:miter;"/>
   </g>
   <g id="patch_83">
    <path clip-path="url(#p028b5ff5c1)" d="M 1291.9656 874.8 
L 1305.118963 874.8 
L 1305.118963 869.245714 
L 1291.9656 869.245714 
z
" style="fill:#336699;stroke:#000000;stroke-linejoin:miter;"/>
   </g>
   <g id="patch_84">
    <path clip-path="url(#p028b5ff5c1)" d="M 1305.118963 874.8 
L 1318.272326 874.8 
L 1318.272326 869.245714 
L 1305.118963 869.245714 
z
" style="fill:#336699;stroke:#000000;stroke-linejoin:miter;"/>
   </g>
   <g id="patch_85">
    <path clip-path="url(#p028b5ff5c1)" d="M 1318.272326 874.8 
L 1331.425689 874.8 
L 1331.425689 863.691429 
L 1318.272326 863.691429 
z
" style="fill:#336699;stroke:#000000;stroke-linejoin:miter;"/>
   </g>
   <g id="patch_86">
    <path clip-path="url(#p028b5ff5c1)" d="M 1331.425689 874.8 
L 1344.579051 874.8 
L 1344.579051 824.811429 
L 1331.425689 824.811429 
z
" style="fill:#336699;stroke:#000000;stroke-linejoin:miter;"/>
   </g>
   <g id="patch_87">
    <path clip-path="url(#p028b5ff5c1)" d="M 1344.579051 874.8 
L 1357.732414 874.8 
L 1357.732414 869.245714 
L 1344.579051 869.245714 
z
" style="fill:#336699;stroke:#000000;stroke-linejoin:miter;"/>
   </g>
   <g id="patch_88">
    <path clip-path="url(#p028b5ff5c1)" d="M 1357.732414 874.8 
L 1370.885777 874.8 
L 1370.885777 835.92 
L 1357.732414 835.92 
z
" style="fill:#336699;stroke:#000000;stroke-linejoin:miter;"/>
   </g>
   <g id="patch_89">
    <path clip-path="url(#p028b5ff5c1)" d="M 1370.885777 874.8 
L 1384.03914 874.8 
L 1384.03914 819.257143 
L 1370.885777 819.257143 
z
" style="fill:#336699;stroke:#000000;stroke-linejoin:miter;"/>
   </g>
   <g id="patch_90">
    <path clip-path="url(#p028b5ff5c1)" d="M 1384.03914 874.8 
L 1397.192503 874.8 
L 1397.192503 802.594286 
L 1384.03914 802.594286 
z
" style="fill:#336699;stroke:#000000;stroke-linejoin:miter;"/>
   </g>
   <g id="patch_91">
    <path clip-path="url(#p028b5ff5c1)" d="M 1397.192503 874.8 
L 1410.345865 874.8 
L 1410.345865 785.931429 
L 1397.192503 785.931429 
z
" style="fill:#336699;stroke:#000000;stroke-linejoin:miter;"/>
   </g>
   <g id="patch_92">
    <path clip-path="url(#p028b5ff5c1)" d="M 1410.345865 874.8 
L 1423.499228 874.8 
L 1423.499228 769.268571 
L 1410.345865 769.268571 
z
" style="fill:#336699;stroke:#000000;stroke-linejoin:miter;"/>
   </g>
   <g id="patch_93">
    <path clip-path="url(#p028b5ff5c1)" d="M 1423.499228 874.8 
L 1436.652591 874.8 
L 1436.652591 663.737143 
L 1423.499228 663.737143 
z
" style="fill:#336699;stroke:#000000;stroke-linejoin:miter;"/>
   </g>
   <g id="patch_94">
    <path clip-path="url(#p028b5ff5c1)" d="M 1436.652591 874.8 
L 1449.805954 874.8 
L 1449.805954 630.411429 
L 1436.652591 630.411429 
z
" style="fill:#336699;stroke:#000000;stroke-linejoin:miter;"/>
   </g>
   <g id="patch_95">
    <path clip-path="url(#p028b5ff5c1)" d="M 1449.805954 874.8 
L 1462.959317 874.8 
L 1462.959317 558.205714 
L 1449.805954 558.205714 
z
" style="fill:#336699;stroke:#000000;stroke-linejoin:miter;"/>
   </g>
   <g id="patch_96">
    <path clip-path="url(#p028b5ff5c1)" d="M 1462.959317 874.8 
L 1476.112679 874.8 
L 1476.112679 574.868571 
L 1462.959317 574.868571 
z
" style="fill:#336699;stroke:#000000;stroke-linejoin:miter;"/>
   </g>
   <g id="patch_97">
    <path clip-path="url(#p028b5ff5c1)" d="M 1476.112679 874.8 
L 1489.266042 874.8 
L 1489.266042 297.154286 
L 1476.112679 297.154286 
z
" style="fill:#336699;stroke:#000000;stroke-linejoin:miter;"/>
   </g>
   <g id="patch_98">
    <path clip-path="url(#p028b5ff5c1)" d="M 1489.266042 874.8 
L 1502.419405 874.8 
L 1502.419405 213.84 
L 1489.266042 213.84 
z
" style="fill:#336699;stroke:#000000;stroke-linejoin:miter;"/>
   </g>
   <g id="patch_99">
    <path clip-path="url(#p028b5ff5c1)" d="M 1502.419405 874.8 
L 1515.572768 874.8 
L 1515.572768 158.297143 
L 1502.419405 158.297143 
z
" style="fill:#336699;stroke:#000000;stroke-linejoin:miter;"/>
   </g>
   <g id="patch_100">
    <path clip-path="url(#p028b5ff5c1)" d="M 1515.572768 874.8 
L 1528.726131 874.8 
L 1528.726131 119.417143 
L 1515.572768 119.417143 
z
" style="fill:#336699;stroke:#000000;stroke-linejoin:miter;"/>
   </g>
   <g id="patch_101">
    <path clip-path="url(#p028b5ff5c1)" d="M 1528.726131 874.8 
L 1541.879493 874.8 
L 1541.879493 169.405714 
L 1528.726131 169.405714 
z
" style="fill:#336699;stroke:#000000;stroke-linejoin:miter;"/>
   </g>
   <g id="patch_102">
    <path clip-path="url(#p028b5ff5c1)" d="M 1541.879493 874.8 
L 1555.032856 874.8 
L 1555.032856 197.177143 
L 1541.879493 197.177143 
z
" style="fill:#336699;stroke:#000000;stroke-linejoin:miter;"/>
   </g>
   <g id="patch_103">
    <path d="M 216 97.2 
L 1555.2 97.2 
" style="fill:none;stroke:#000000;stroke-linecap:square;stroke-linejoin:miter;"/>
   </g>
   <g id="patch_104">
    <path d="M 1555.2 874.8 
L 1555.2 97.2 
" style="fill:none;stroke:#000000;stroke-linecap:square;stroke-linejoin:miter;"/>
   </g>
   <g id="patch_105">
    <path d="M 216 874.8 
L 1555.2 874.8 
" style="fill:none;stroke:#000000;stroke-linecap:square;stroke-linejoin:miter;"/>
   </g>
   <g id="patch_106">
    <path d="M 216 874.8 
L 216 97.2 
" style="fill:none;stroke:#000000;stroke-linecap:square;stroke-linejoin:miter;"/>
   </g>
   <g id="matplotlib.axis_1">
    <g id="xtick_1">
     <g id="line2d_1">
      <defs>
       <path d="M 0 0 
L 0 -4 
" id="m7fe114488a" style="stroke:#000000;stroke-width:0.5;"/>
      </defs>
      <g>
       <use style="stroke:#000000;stroke-width:0.5;" x="216.0" xlink:href="#m7fe114488a" y="874.8000000000001"/>
      </g>
     </g>
     <g id="line2d_2">
      <defs>
       <path d="M 0 0 
L 0 4 
" id="mc0f35e9c20" style="stroke:#000000;stroke-width:0.5;"/>
      </defs>
      <g>
       <use style="stroke:#000000;stroke-width:0.5;" x="216.0" xlink:href="#mc0f35e9c20" y="97.19999999999993"/>
      </g>
     </g>
     <g id="text_1">
      <!-- −4.0 -->
      <defs>
       <path d="M 10.59375 35.5 
L 73.1875 35.5 
L 73.1875 27.203125 
L 10.59375 27.203125 
z
" id="BitstreamVeraSans-Roman-2212"/>
       <path d="M 31.78125 66.40625 
Q 24.171875 66.40625 20.328125 58.90625 
Q 16.5 51.421875 16.5 36.375 
Q 16.5 21.390625 20.328125 13.890625 
Q 24.171875 6.390625 31.78125 6.390625 
Q 39.453125 6.390625 43.28125 13.890625 
Q 47.125 21.390625 47.125 36.375 
Q 47.125 51.421875 43.28125 58.90625 
Q 39.453125 66.40625 31.78125 66.40625 
M 31.78125 74.21875 
Q 44.046875 74.21875 50.515625 64.515625 
Q 56.984375 54.828125 56.984375 36.375 
Q 56.984375 17.96875 50.515625 8.265625 
Q 44.046875 -1.421875 31.78125 -1.421875 
Q 19.53125 -1.421875 13.0625 8.265625 
Q 6.59375 17.96875 6.59375 36.375 
Q 6.59375 54.828125 13.0625 64.515625 
Q 19.53125 74.21875 31.78125 74.21875 
" id="BitstreamVeraSans-Roman-30"/>
       <path d="M 10.6875 12.40625 
L 21 12.40625 
L 21 0 
L 10.6875 0 
z
" id="BitstreamVeraSans-Roman-2e"/>
       <path d="M 37.796875 64.3125 
L 12.890625 25.390625 
L 37.796875 25.390625 
z
M 35.203125 72.90625 
L 47.609375 72.90625 
L 47.609375 25.390625 
L 58.015625 25.390625 
L 58.015625 17.1875 
L 47.609375 17.1875 
L 47.609375 0 
L 37.796875 0 
L 37.796875 17.1875 
L 4.890625 17.1875 
L 4.890625 26.703125 
z
" id="BitstreamVeraSans-Roman-34"/>
      </defs>
      <g transform="translate(201.4303125 887.918125)scale(0.12 -0.12)">
       <use xlink:href="#BitstreamVeraSans-Roman-2212"/>
       <use x="83.7890625" xlink:href="#BitstreamVeraSans-Roman-34"/>
       <use x="147.412109375" xlink:href="#BitstreamVeraSans-Roman-2e"/>
       <use x="179.19921875" xlink:href="#BitstreamVeraSans-Roman-30"/>
      </g>
     </g>
    </g>
    <g id="xtick_2">
     <g id="line2d_3">
      <g>
       <use style="stroke:#000000;stroke-width:0.5;" x="383.4000000000001" xlink:href="#m7fe114488a" y="874.8000000000001"/>
      </g>
     </g>
     <g id="line2d_4">
      <g>
       <use style="stroke:#000000;stroke-width:0.5;" x="383.4000000000001" xlink:href="#mc0f35e9c20" y="97.19999999999993"/>
      </g>
     </g>
     <g id="text_2">
      <!-- −3.5 -->
      <defs>
       <path d="M 40.578125 39.3125 
Q 47.65625 37.796875 51.625 33 
Q 55.609375 28.21875 55.609375 21.1875 
Q 55.609375 10.40625 48.1875 4.484375 
Q 40.765625 -1.421875 27.09375 -1.421875 
Q 22.515625 -1.421875 17.65625 -0.515625 
Q 12.796875 0.390625 7.625 2.203125 
L 7.625 11.71875 
Q 11.71875 9.328125 16.59375 8.109375 
Q 21.484375 6.890625 26.8125 6.890625 
Q 36.078125 6.890625 40.9375 10.546875 
Q 45.796875 14.203125 45.796875 21.1875 
Q 45.796875 27.640625 41.28125 31.265625 
Q 36.765625 34.90625 28.71875 34.90625 
L 20.21875 34.90625 
L 20.21875 43.015625 
L 29.109375 43.015625 
Q 36.375 43.015625 40.234375 45.921875 
Q 44.09375 48.828125 44.09375 54.296875 
Q 44.09375 59.90625 40.109375 62.90625 
Q 36.140625 65.921875 28.71875 65.921875 
Q 24.65625 65.921875 20.015625 65.03125 
Q 15.375 64.15625 9.8125 62.3125 
L 9.8125 71.09375 
Q 15.4375 72.65625 20.34375 73.4375 
Q 25.25 74.21875 29.59375 74.21875 
Q 40.828125 74.21875 47.359375 69.109375 
Q 53.90625 64.015625 53.90625 55.328125 
Q 53.90625 49.265625 50.4375 45.09375 
Q 46.96875 40.921875 40.578125 39.3125 
" id="BitstreamVeraSans-Roman-33"/>
       <path d="M 10.796875 72.90625 
L 49.515625 72.90625 
L 49.515625 64.59375 
L 19.828125 64.59375 
L 19.828125 46.734375 
Q 21.96875 47.46875 24.109375 47.828125 
Q 26.265625 48.1875 28.421875 48.1875 
Q 40.625 48.1875 47.75 41.5 
Q 54.890625 34.8125 54.890625 23.390625 
Q 54.890625 11.625 47.5625 5.09375 
Q 40.234375 -1.421875 26.90625 -1.421875 
Q 22.3125 -1.421875 17.546875 -0.640625 
Q 12.796875 0.140625 7.71875 1.703125 
L 7.71875 11.625 
Q 12.109375 9.234375 16.796875 8.0625 
Q 21.484375 6.890625 26.703125 6.890625 
Q 35.15625 6.890625 40.078125 11.328125 
Q 45.015625 15.765625 45.015625 23.390625 
Q 45.015625 31 40.078125 35.4375 
Q 35.15625 39.890625 26.703125 39.890625 
Q 22.75 39.890625 18.8125 39.015625 
Q 14.890625 38.140625 10.796875 36.28125 
z
" id="BitstreamVeraSans-Roman-35"/>
      </defs>
      <g transform="translate(368.8303125000001 887.918125)scale(0.12 -0.12)">
       <use xlink:href="#BitstreamVeraSans-Roman-2212"/>
       <use x="83.7890625" xlink:href="#BitstreamVeraSans-Roman-33"/>
       <use x="147.412109375" xlink:href="#BitstreamVeraSans-Roman-2e"/>
       <use x="179.19921875" xlink:href="#BitstreamVeraSans-Roman-35"/>
      </g>
     </g>
    </g>
    <g id="xtick_3">
     <g id="line2d_5">
      <g>
       <use style="stroke:#000000;stroke-width:0.5;" x="550.8" xlink:href="#m7fe114488a" y="874.8000000000001"/>
      </g>
     </g>
     <g id="line2d_6">
      <g>
       <use style="stroke:#000000;stroke-width:0.5;" x="550.8" xlink:href="#mc0f35e9c20" y="97.19999999999993"/>
      </g>
     </g>
     <g id="text_3">
      <!-- −3.0 -->
      <g transform="translate(536.2303125 887.918125)scale(0.12 -0.12)">
       <use xlink:href="#BitstreamVeraSans-Roman-2212"/>
       <use x="83.7890625" xlink:href="#BitstreamVeraSans-Roman-33"/>
       <use x="147.412109375" xlink:href="#BitstreamVeraSans-Roman-2e"/>
       <use x="179.19921875" xlink:href="#BitstreamVeraSans-Roman-30"/>
      </g>
     </g>
    </g>
    <g id="xtick_4">
     <g id="line2d_7">
      <g>
       <use style="stroke:#000000;stroke-width:0.5;" x="718.2" xlink:href="#m7fe114488a" y="874.8000000000001"/>
      </g>
     </g>
     <g id="line2d_8">
      <g>
       <use style="stroke:#000000;stroke-width:0.5;" x="718.2" xlink:href="#mc0f35e9c20" y="97.19999999999993"/>
      </g>
     </g>
     <g id="text_4">
      <!-- −2.5 -->
      <defs>
       <path d="M 19.1875 8.296875 
L 53.609375 8.296875 
L 53.609375 0 
L 7.328125 0 
L 7.328125 8.296875 
Q 12.9375 14.109375 22.625 23.890625 
Q 32.328125 33.6875 34.8125 36.53125 
Q 39.546875 41.84375 41.421875 45.53125 
Q 43.3125 49.21875 43.3125 52.78125 
Q 43.3125 58.59375 39.234375 62.25 
Q 35.15625 65.921875 28.609375 65.921875 
Q 23.96875 65.921875 18.8125 64.3125 
Q 13.671875 62.703125 7.8125 59.421875 
L 7.8125 69.390625 
Q 13.765625 71.78125 18.9375 73 
Q 24.125 74.21875 28.421875 74.21875 
Q 39.75 74.21875 46.484375 68.546875 
Q 53.21875 62.890625 53.21875 53.421875 
Q 53.21875 48.921875 51.53125 44.890625 
Q 49.859375 40.875 45.40625 35.40625 
Q 44.1875 33.984375 37.640625 27.21875 
Q 31.109375 20.453125 19.1875 8.296875 
" id="BitstreamVeraSans-Roman-32"/>
      </defs>
      <g transform="translate(703.6303125000001 887.918125)scale(0.12 -0.12)">
       <use xlink:href="#BitstreamVeraSans-Roman-2212"/>
       <use x="83.7890625" xlink:href="#BitstreamVeraSans-Roman-32"/>
       <use x="147.412109375" xlink:href="#BitstreamVeraSans-Roman-2e"/>
       <use x="179.19921875" xlink:href="#BitstreamVeraSans-Roman-35"/>
      </g>
     </g>
    </g>
    <g id="xtick_5">
     <g id="line2d_9">
      <g>
       <use style="stroke:#000000;stroke-width:0.5;" x="885.6" xlink:href="#m7fe114488a" y="874.8000000000001"/>
      </g>
     </g>
     <g id="line2d_10">
      <g>
       <use style="stroke:#000000;stroke-width:0.5;" x="885.6" xlink:href="#mc0f35e9c20" y="97.19999999999993"/>
      </g>
     </g>
     <g id="text_5">
      <!-- −2.0 -->
      <g transform="translate(871.0303125 887.918125)scale(0.12 -0.12)">
       <use xlink:href="#BitstreamVeraSans-Roman-2212"/>
       <use x="83.7890625" xlink:href="#BitstreamVeraSans-Roman-32"/>
       <use x="147.412109375" xlink:href="#BitstreamVeraSans-Roman-2e"/>
       <use x="179.19921875" xlink:href="#BitstreamVeraSans-Roman-30"/>
      </g>
     </g>
    </g>
    <g id="xtick_6">
     <g id="line2d_11">
      <g>
       <use style="stroke:#000000;stroke-width:0.5;" x="1053.0" xlink:href="#m7fe114488a" y="874.8000000000001"/>
      </g>
     </g>
     <g id="line2d_12">
      <g>
       <use style="stroke:#000000;stroke-width:0.5;" x="1053.0" xlink:href="#mc0f35e9c20" y="97.19999999999993"/>
      </g>
     </g>
     <g id="text_6">
      <!-- −1.5 -->
      <defs>
       <path d="M 12.40625 8.296875 
L 28.515625 8.296875 
L 28.515625 63.921875 
L 10.984375 60.40625 
L 10.984375 69.390625 
L 28.421875 72.90625 
L 38.28125 72.90625 
L 38.28125 8.296875 
L 54.390625 8.296875 
L 54.390625 0 
L 12.40625 0 
z
" id="BitstreamVeraSans-Roman-31"/>
      </defs>
      <g transform="translate(1038.4303125 887.918125)scale(0.12 -0.12)">
       <use xlink:href="#BitstreamVeraSans-Roman-2212"/>
       <use x="83.7890625" xlink:href="#BitstreamVeraSans-Roman-31"/>
       <use x="147.412109375" xlink:href="#BitstreamVeraSans-Roman-2e"/>
       <use x="179.19921875" xlink:href="#BitstreamVeraSans-Roman-35"/>
      </g>
     </g>
    </g>
    <g id="xtick_7">
     <g id="line2d_13">
      <g>
       <use style="stroke:#000000;stroke-width:0.5;" x="1220.4" xlink:href="#m7fe114488a" y="874.8000000000001"/>
      </g>
     </g>
     <g id="line2d_14">
      <g>
       <use style="stroke:#000000;stroke-width:0.5;" x="1220.4" xlink:href="#mc0f35e9c20" y="97.19999999999993"/>
      </g>
     </g>
     <g id="text_7">
      <!-- −1.0 -->
      <g transform="translate(1205.8303125 887.918125)scale(0.12 -0.12)">
       <use xlink:href="#BitstreamVeraSans-Roman-2212"/>
       <use x="83.7890625" xlink:href="#BitstreamVeraSans-Roman-31"/>
       <use x="147.412109375" xlink:href="#BitstreamVeraSans-Roman-2e"/>
       <use x="179.19921875" xlink:href="#BitstreamVeraSans-Roman-30"/>
      </g>
     </g>
    </g>
    <g id="xtick_8">
     <g id="line2d_15">
      <g>
       <use style="stroke:#000000;stroke-width:0.5;" x="1387.8" xlink:href="#m7fe114488a" y="874.8000000000001"/>
      </g>
     </g>
     <g id="line2d_16">
      <g>
       <use style="stroke:#000000;stroke-width:0.5;" x="1387.8" xlink:href="#mc0f35e9c20" y="97.19999999999993"/>
      </g>
     </g>
     <g id="text_8">
      <!-- −0.5 -->
      <g transform="translate(1373.2303124999999 887.918125)scale(0.12 -0.12)">
       <use xlink:href="#BitstreamVeraSans-Roman-2212"/>
       <use x="83.7890625" xlink:href="#BitstreamVeraSans-Roman-30"/>
       <use x="147.412109375" xlink:href="#BitstreamVeraSans-Roman-2e"/>
       <use x="179.19921875" xlink:href="#BitstreamVeraSans-Roman-35"/>
      </g>
     </g>
    </g>
    <g id="xtick_9">
     <g id="line2d_17">
      <g>
       <use style="stroke:#000000;stroke-width:0.5;" x="1555.2" xlink:href="#m7fe114488a" y="874.8000000000001"/>
      </g>
     </g>
     <g id="line2d_18">
      <g>
       <use style="stroke:#000000;stroke-width:0.5;" x="1555.2" xlink:href="#mc0f35e9c20" y="97.19999999999993"/>
      </g>
     </g>
     <g id="text_9">
      <!-- 0.0 -->
      <g transform="translate(1545.6581250000002 887.918125)scale(0.12 -0.12)">
       <use xlink:href="#BitstreamVeraSans-Roman-30"/>
       <use x="63.623046875" xlink:href="#BitstreamVeraSans-Roman-2e"/>
       <use x="95.41015625" xlink:href="#BitstreamVeraSans-Roman-30"/>
      </g>
     </g>
    </g>
   </g>
   <g id="matplotlib.axis_2">
    <g id="ytick_1">
     <g id="line2d_19">
      <defs>
       <path d="M 0 0 
L 4 0 
" id="md2ac0e14ae" style="stroke:#000000;stroke-width:0.5;"/>
      </defs>
      <g>
       <use style="stroke:#000000;stroke-width:0.5;" x="216.0" xlink:href="#md2ac0e14ae" y="874.8000000000001"/>
      </g>
     </g>
     <g id="line2d_20">
      <defs>
       <path d="M 0 0 
L -4 0 
" id="m4e93398f49" style="stroke:#000000;stroke-width:0.5;"/>
      </defs>
      <g>
       <use style="stroke:#000000;stroke-width:0.5;" x="1555.2" xlink:href="#m4e93398f49" y="874.8000000000001"/>
      </g>
     </g>
     <g id="text_10">
      <!-- 0 -->
      <g transform="translate(204.365 878.11125)scale(0.12 -0.12)">
       <use xlink:href="#BitstreamVeraSans-Roman-30"/>
      </g>
     </g>
    </g>
    <g id="ytick_2">
     <g id="line2d_21">
      <g>
       <use style="stroke:#000000;stroke-width:0.5;" x="216.0" xlink:href="#md2ac0e14ae" y="763.7142857142858"/>
      </g>
     </g>
     <g id="line2d_22">
      <g>
       <use style="stroke:#000000;stroke-width:0.5;" x="1555.2" xlink:href="#m4e93398f49" y="763.7142857142858"/>
      </g>
     </g>
     <g id="text_11">
      <!-- 20 -->
      <g transform="translate(196.73 767.0255357142858)scale(0.12 -0.12)">
       <use xlink:href="#BitstreamVeraSans-Roman-32"/>
       <use x="63.623046875" xlink:href="#BitstreamVeraSans-Roman-30"/>
      </g>
     </g>
    </g>
    <g id="ytick_3">
     <g id="line2d_23">
      <g>
       <use style="stroke:#000000;stroke-width:0.5;" x="216.0" xlink:href="#md2ac0e14ae" y="652.6285714285715"/>
      </g>
     </g>
     <g id="line2d_24">
      <g>
       <use style="stroke:#000000;stroke-width:0.5;" x="1555.2" xlink:href="#m4e93398f49" y="652.6285714285715"/>
      </g>
     </g>
     <g id="text_12">
      <!-- 40 -->
      <g transform="translate(196.73 655.9398214285713)scale(0.12 -0.12)">
       <use xlink:href="#BitstreamVeraSans-Roman-34"/>
       <use x="63.623046875" xlink:href="#BitstreamVeraSans-Roman-30"/>
      </g>
     </g>
    </g>
    <g id="ytick_4">
     <g id="line2d_25">
      <g>
       <use style="stroke:#000000;stroke-width:0.5;" x="216.0" xlink:href="#md2ac0e14ae" y="541.5428571428572"/>
      </g>
     </g>
     <g id="line2d_26">
      <g>
       <use style="stroke:#000000;stroke-width:0.5;" x="1555.2" xlink:href="#m4e93398f49" y="541.5428571428572"/>
      </g>
     </g>
     <g id="text_13">
      <!-- 60 -->
      <defs>
       <path d="M 33.015625 40.375 
Q 26.375 40.375 22.484375 35.828125 
Q 18.609375 31.296875 18.609375 23.390625 
Q 18.609375 15.53125 22.484375 10.953125 
Q 26.375 6.390625 33.015625 6.390625 
Q 39.65625 6.390625 43.53125 10.953125 
Q 47.40625 15.53125 47.40625 23.390625 
Q 47.40625 31.296875 43.53125 35.828125 
Q 39.65625 40.375 33.015625 40.375 
M 52.59375 71.296875 
L 52.59375 62.3125 
Q 48.875 64.0625 45.09375 64.984375 
Q 41.3125 65.921875 37.59375 65.921875 
Q 27.828125 65.921875 22.671875 59.328125 
Q 17.53125 52.734375 16.796875 39.40625 
Q 19.671875 43.65625 24.015625 45.921875 
Q 28.375 48.1875 33.59375 48.1875 
Q 44.578125 48.1875 50.953125 41.515625 
Q 57.328125 34.859375 57.328125 23.390625 
Q 57.328125 12.15625 50.6875 5.359375 
Q 44.046875 -1.421875 33.015625 -1.421875 
Q 20.359375 -1.421875 13.671875 8.265625 
Q 6.984375 17.96875 6.984375 36.375 
Q 6.984375 53.65625 15.1875 63.9375 
Q 23.390625 74.21875 37.203125 74.21875 
Q 40.921875 74.21875 44.703125 73.484375 
Q 48.484375 72.75 52.59375 71.296875 
" id="BitstreamVeraSans-Roman-36"/>
      </defs>
      <g transform="translate(196.73 544.8541071428571)scale(0.12 -0.12)">
       <use xlink:href="#BitstreamVeraSans-Roman-36"/>
       <use x="63.623046875" xlink:href="#BitstreamVeraSans-Roman-30"/>
      </g>
     </g>
    </g>
    <g id="ytick_5">
     <g id="line2d_27">
      <g>
       <use style="stroke:#000000;stroke-width:0.5;" x="216.0" xlink:href="#md2ac0e14ae" y="430.45714285714286"/>
      </g>
     </g>
     <g id="line2d_28">
      <g>
       <use style="stroke:#000000;stroke-width:0.5;" x="1555.2" xlink:href="#m4e93398f49" y="430.45714285714286"/>
      </g>
     </g>
     <g id="text_14">
      <!-- 80 -->
      <defs>
       <path d="M 31.78125 34.625 
Q 24.75 34.625 20.71875 30.859375 
Q 16.703125 27.09375 16.703125 20.515625 
Q 16.703125 13.921875 20.71875 10.15625 
Q 24.75 6.390625 31.78125 6.390625 
Q 38.8125 6.390625 42.859375 10.171875 
Q 46.921875 13.96875 46.921875 20.515625 
Q 46.921875 27.09375 42.890625 30.859375 
Q 38.875 34.625 31.78125 34.625 
M 21.921875 38.8125 
Q 15.578125 40.375 12.03125 44.71875 
Q 8.5 49.078125 8.5 55.328125 
Q 8.5 64.0625 14.71875 69.140625 
Q 20.953125 74.21875 31.78125 74.21875 
Q 42.671875 74.21875 48.875 69.140625 
Q 55.078125 64.0625 55.078125 55.328125 
Q 55.078125 49.078125 51.53125 44.71875 
Q 48 40.375 41.703125 38.8125 
Q 48.828125 37.15625 52.796875 32.3125 
Q 56.78125 27.484375 56.78125 20.515625 
Q 56.78125 9.90625 50.3125 4.234375 
Q 43.84375 -1.421875 31.78125 -1.421875 
Q 19.734375 -1.421875 13.25 4.234375 
Q 6.78125 9.90625 6.78125 20.515625 
Q 6.78125 27.484375 10.78125 32.3125 
Q 14.796875 37.15625 21.921875 38.8125 
M 18.3125 54.390625 
Q 18.3125 48.734375 21.84375 45.5625 
Q 25.390625 42.390625 31.78125 42.390625 
Q 38.140625 42.390625 41.71875 45.5625 
Q 45.3125 48.734375 45.3125 54.390625 
Q 45.3125 60.0625 41.71875 63.234375 
Q 38.140625 66.40625 31.78125 66.40625 
Q 25.390625 66.40625 21.84375 63.234375 
Q 18.3125 60.0625 18.3125 54.390625 
" id="BitstreamVeraSans-Roman-38"/>
      </defs>
      <g transform="translate(196.73 433.76839285714277)scale(0.12 -0.12)">
       <use xlink:href="#BitstreamVeraSans-Roman-38"/>
       <use x="63.623046875" xlink:href="#BitstreamVeraSans-Roman-30"/>
      </g>
     </g>
    </g>
    <g id="ytick_6">
     <g id="line2d_29">
      <g>
       <use style="stroke:#000000;stroke-width:0.5;" x="216.0" xlink:href="#md2ac0e14ae" y="319.3714285714285"/>
      </g>
     </g>
     <g id="line2d_30">
      <g>
       <use style="stroke:#000000;stroke-width:0.5;" x="1555.2" xlink:href="#m4e93398f49" y="319.3714285714285"/>
      </g>
     </g>
     <g id="text_15">
      <!-- 100 -->
      <g transform="translate(189.095 322.6826785714285)scale(0.12 -0.12)">
       <use xlink:href="#BitstreamVeraSans-Roman-31"/>
       <use x="63.623046875" xlink:href="#BitstreamVeraSans-Roman-30"/>
       <use x="127.24609375" xlink:href="#BitstreamVeraSans-Roman-30"/>
      </g>
     </g>
    </g>
    <g id="ytick_7">
     <g id="line2d_31">
      <g>
       <use style="stroke:#000000;stroke-width:0.5;" x="216.0" xlink:href="#md2ac0e14ae" y="208.28571428571422"/>
      </g>
     </g>
     <g id="line2d_32">
      <g>
       <use style="stroke:#000000;stroke-width:0.5;" x="1555.2" xlink:href="#m4e93398f49" y="208.28571428571422"/>
      </g>
     </g>
     <g id="text_16">
      <!-- 120 -->
      <g transform="translate(189.095 211.5969642857142)scale(0.12 -0.12)">
       <use xlink:href="#BitstreamVeraSans-Roman-31"/>
       <use x="63.623046875" xlink:href="#BitstreamVeraSans-Roman-32"/>
       <use x="127.24609375" xlink:href="#BitstreamVeraSans-Roman-30"/>
      </g>
     </g>
    </g>
    <g id="ytick_8">
     <g id="line2d_33">
      <g>
       <use style="stroke:#000000;stroke-width:0.5;" x="216.0" xlink:href="#md2ac0e14ae" y="97.19999999999993"/>
      </g>
     </g>
     <g id="line2d_34">
      <g>
       <use style="stroke:#000000;stroke-width:0.5;" x="1555.2" xlink:href="#m4e93398f49" y="97.19999999999993"/>
      </g>
     </g>
     <g id="text_17">
      <!-- 140 -->
      <g transform="translate(189.095 100.5112499999999)scale(0.12 -0.12)">
       <use xlink:href="#BitstreamVeraSans-Roman-31"/>
       <use x="63.623046875" xlink:href="#BitstreamVeraSans-Roman-34"/>
       <use x="127.24609375" xlink:href="#BitstreamVeraSans-Roman-30"/>
      </g>
     </g>
    </g>
   </g>
   <g id="text_18">
    <!-- Histogram of X -->
    <defs>
     <path id="BitstreamVeraSans-Roman-20"/>
     <path d="M 34.28125 27.484375 
Q 23.390625 27.484375 19.1875 25 
Q 14.984375 22.515625 14.984375 16.5 
Q 14.984375 11.71875 18.140625 8.90625 
Q 21.296875 6.109375 26.703125 6.109375 
Q 34.1875 6.109375 38.703125 11.40625 
Q 43.21875 16.703125 43.21875 25.484375 
L 43.21875 27.484375 
z
M 52.203125 31.203125 
L 52.203125 0 
L 43.21875 0 
L 43.21875 8.296875 
Q 40.140625 3.328125 35.546875 0.953125 
Q 30.953125 -1.421875 24.3125 -1.421875 
Q 15.921875 -1.421875 10.953125 3.296875 
Q 6 8.015625 6 15.921875 
Q 6 25.140625 12.171875 29.828125 
Q 18.359375 34.515625 30.609375 34.515625 
L 43.21875 34.515625 
L 43.21875 35.40625 
Q 43.21875 41.609375 39.140625 45 
Q 35.0625 48.390625 27.6875 48.390625 
Q 23 48.390625 18.546875 47.265625 
Q 14.109375 46.140625 10.015625 43.890625 
L 10.015625 52.203125 
Q 14.9375 54.109375 19.578125 55.046875 
Q 24.21875 56 28.609375 56 
Q 40.484375 56 46.34375 49.84375 
Q 52.203125 43.703125 52.203125 31.203125 
" id="BitstreamVeraSans-Roman-61"/>
     <path d="M 30.609375 48.390625 
Q 23.390625 48.390625 19.1875 42.75 
Q 14.984375 37.109375 14.984375 27.296875 
Q 14.984375 17.484375 19.15625 11.84375 
Q 23.34375 6.203125 30.609375 6.203125 
Q 37.796875 6.203125 41.984375 11.859375 
Q 46.1875 17.53125 46.1875 27.296875 
Q 46.1875 37.015625 41.984375 42.703125 
Q 37.796875 48.390625 30.609375 48.390625 
M 30.609375 56 
Q 42.328125 56 49.015625 48.375 
Q 55.71875 40.765625 55.71875 27.296875 
Q 55.71875 13.875 49.015625 6.21875 
Q 42.328125 -1.421875 30.609375 -1.421875 
Q 18.84375 -1.421875 12.171875 6.21875 
Q 5.515625 13.875 5.515625 27.296875 
Q 5.515625 40.765625 12.171875 48.375 
Q 18.84375 56 30.609375 56 
" id="BitstreamVeraSans-Roman-6f"/>
     <path d="M 9.421875 54.6875 
L 18.40625 54.6875 
L 18.40625 0 
L 9.421875 0 
z
M 9.421875 75.984375 
L 18.40625 75.984375 
L 18.40625 64.59375 
L 9.421875 64.59375 
z
" id="BitstreamVeraSans-Roman-69"/>
     <path d="M 52 44.1875 
Q 55.375 50.25 60.0625 53.125 
Q 64.75 56 71.09375 56 
Q 79.640625 56 84.28125 50.015625 
Q 88.921875 44.046875 88.921875 33.015625 
L 88.921875 0 
L 79.890625 0 
L 79.890625 32.71875 
Q 79.890625 40.578125 77.09375 44.375 
Q 74.3125 48.1875 68.609375 48.1875 
Q 61.625 48.1875 57.5625 43.546875 
Q 53.515625 38.921875 53.515625 30.90625 
L 53.515625 0 
L 44.484375 0 
L 44.484375 32.71875 
Q 44.484375 40.625 41.703125 44.40625 
Q 38.921875 48.1875 33.109375 48.1875 
Q 26.21875 48.1875 22.15625 43.53125 
Q 18.109375 38.875 18.109375 30.90625 
L 18.109375 0 
L 9.078125 0 
L 9.078125 54.6875 
L 18.109375 54.6875 
L 18.109375 46.1875 
Q 21.1875 51.21875 25.484375 53.609375 
Q 29.78125 56 35.6875 56 
Q 41.65625 56 45.828125 52.96875 
Q 50 49.953125 52 44.1875 
" id="BitstreamVeraSans-Roman-6d"/>
     <path d="M 6.296875 72.90625 
L 16.890625 72.90625 
L 35.015625 45.796875 
L 53.21875 72.90625 
L 63.8125 72.90625 
L 40.375 37.890625 
L 65.375 0 
L 54.78125 0 
L 34.28125 31 
L 13.625 0 
L 2.984375 0 
L 29 38.921875 
z
" id="BitstreamVeraSans-Roman-58"/>
     <path d="M 18.3125 70.21875 
L 18.3125 54.6875 
L 36.8125 54.6875 
L 36.8125 47.703125 
L 18.3125 47.703125 
L 18.3125 18.015625 
Q 18.3125 11.328125 20.140625 9.421875 
Q 21.96875 7.515625 27.59375 7.515625 
L 36.8125 7.515625 
L 36.8125 0 
L 27.59375 0 
Q 17.1875 0 13.234375 3.875 
Q 9.28125 7.765625 9.28125 18.015625 
L 9.28125 47.703125 
L 2.6875 47.703125 
L 2.6875 54.6875 
L 9.28125 54.6875 
L 9.28125 70.21875 
z
" id="BitstreamVeraSans-Roman-74"/>
     <path d="M 37.109375 75.984375 
L 37.109375 68.5 
L 28.515625 68.5 
Q 23.6875 68.5 21.796875 66.546875 
Q 19.921875 64.59375 19.921875 59.515625 
L 19.921875 54.6875 
L 34.71875 54.6875 
L 34.71875 47.703125 
L 19.921875 47.703125 
L 19.921875 0 
L 10.890625 0 
L 10.890625 47.703125 
L 2.296875 47.703125 
L 2.296875 54.6875 
L 10.890625 54.6875 
L 10.890625 58.5 
Q 10.890625 67.625 15.140625 71.796875 
Q 19.390625 75.984375 28.609375 75.984375 
z
" id="BitstreamVeraSans-Roman-66"/>
     <path d="M 41.109375 46.296875 
Q 39.59375 47.171875 37.8125 47.578125 
Q 36.03125 48 33.890625 48 
Q 26.265625 48 22.1875 43.046875 
Q 18.109375 38.09375 18.109375 28.8125 
L 18.109375 0 
L 9.078125 0 
L 9.078125 54.6875 
L 18.109375 54.6875 
L 18.109375 46.1875 
Q 20.953125 51.171875 25.484375 53.578125 
Q 30.03125 56 36.53125 56 
Q 37.453125 56 38.578125 55.875 
Q 39.703125 55.765625 41.0625 55.515625 
z
" id="BitstreamVeraSans-Roman-72"/>
     <path d="M 44.28125 53.078125 
L 44.28125 44.578125 
Q 40.484375 46.53125 36.375 47.5 
Q 32.28125 48.484375 27.875 48.484375 
Q 21.1875 48.484375 17.84375 46.4375 
Q 14.5 44.390625 14.5 40.28125 
Q 14.5 37.15625 16.890625 35.375 
Q 19.28125 33.59375 26.515625 31.984375 
L 29.59375 31.296875 
Q 39.15625 29.25 43.1875 25.515625 
Q 47.21875 21.78125 47.21875 15.09375 
Q 47.21875 7.46875 41.1875 3.015625 
Q 35.15625 -1.421875 24.609375 -1.421875 
Q 20.21875 -1.421875 15.453125 -0.5625 
Q 10.6875 0.296875 5.421875 2 
L 5.421875 11.28125 
Q 10.40625 8.6875 15.234375 7.390625 
Q 20.0625 6.109375 24.8125 6.109375 
Q 31.15625 6.109375 34.5625 8.28125 
Q 37.984375 10.453125 37.984375 14.40625 
Q 37.984375 18.0625 35.515625 20.015625 
Q 33.0625 21.96875 24.703125 23.78125 
L 21.578125 24.515625 
Q 13.234375 26.265625 9.515625 29.90625 
Q 5.8125 33.546875 5.8125 39.890625 
Q 5.8125 47.609375 11.28125 51.796875 
Q 16.75 56 26.8125 56 
Q 31.78125 56 36.171875 55.265625 
Q 40.578125 54.546875 44.28125 53.078125 
" id="BitstreamVeraSans-Roman-73"/>
     <path d="M 45.40625 27.984375 
Q 45.40625 37.75 41.375 43.109375 
Q 37.359375 48.484375 30.078125 48.484375 
Q 22.859375 48.484375 18.828125 43.109375 
Q 14.796875 37.75 14.796875 27.984375 
Q 14.796875 18.265625 18.828125 12.890625 
Q 22.859375 7.515625 30.078125 7.515625 
Q 37.359375 7.515625 41.375 12.890625 
Q 45.40625 18.265625 45.40625 27.984375 
M 54.390625 6.78125 
Q 54.390625 -7.171875 48.1875 -13.984375 
Q 42 -20.796875 29.203125 -20.796875 
Q 24.46875 -20.796875 20.265625 -20.09375 
Q 16.0625 -19.390625 12.109375 -17.921875 
L 12.109375 -9.1875 
Q 16.0625 -11.328125 19.921875 -12.34375 
Q 23.78125 -13.375 27.78125 -13.375 
Q 36.625 -13.375 41.015625 -8.765625 
Q 45.40625 -4.15625 45.40625 5.171875 
L 45.40625 9.625 
Q 42.625 4.78125 38.28125 2.390625 
Q 33.9375 0 27.875 0 
Q 17.828125 0 11.671875 7.65625 
Q 5.515625 15.328125 5.515625 27.984375 
Q 5.515625 40.671875 11.671875 48.328125 
Q 17.828125 56 27.875 56 
Q 33.9375 56 38.28125 53.609375 
Q 42.625 51.21875 45.40625 46.390625 
L 45.40625 54.6875 
L 54.390625 54.6875 
z
" id="BitstreamVeraSans-Roman-67"/>
     <path d="M 9.8125 72.90625 
L 19.671875 72.90625 
L 19.671875 43.015625 
L 55.515625 43.015625 
L 55.515625 72.90625 
L 65.375 72.90625 
L 65.375 0 
L 55.515625 0 
L 55.515625 34.71875 
L 19.671875 34.71875 
L 19.671875 0 
L 9.8125 0 
z
" id="BitstreamVeraSans-Roman-48"/>
    </defs>
    <g transform="translate(831.801375 92.19999999999993)scale(0.144 -0.144)">
     <use xlink:href="#BitstreamVeraSans-Roman-48"/>
     <use x="75.1953125" xlink:href="#BitstreamVeraSans-Roman-69"/>
     <use x="102.978515625" xlink:href="#BitstreamVeraSans-Roman-73"/>
     <use x="155.078125" xlink:href="#BitstreamVeraSans-Roman-74"/>
     <use x="194.287109375" xlink:href="#BitstreamVeraSans-Roman-6f"/>
     <use x="255.46875" xlink:href="#BitstreamVeraSans-Roman-67"/>
     <use x="318.9453125" xlink:href="#BitstreamVeraSans-Roman-72"/>
     <use x="360.05859375" xlink:href="#BitstreamVeraSans-Roman-61"/>
     <use x="421.337890625" xlink:href="#BitstreamVeraSans-Roman-6d"/>
     <use x="518.75" xlink:href="#BitstreamVeraSans-Roman-20"/>
     <use x="550.537109375" xlink:href="#BitstreamVeraSans-Roman-6f"/>
     <use x="611.71875" xlink:href="#BitstreamVeraSans-Roman-66"/>
     <use x="646.923828125" xlink:href="#BitstreamVeraSans-Roman-20"/>
     <use x="678.7109375" xlink:href="#BitstreamVeraSans-Roman-58"/>
    </g>
   </g>
  </g>
 </g>
 <defs>
  <clipPath id="p028b5ff5c1">
   <rect height="777.6000000000001" width="1339.2" x="216.0" y="97.19999999999993"/>
  </clipPath>
 </defs>
</svg>
