<?xml version="1.0" encoding="utf-8" standalone="no"?>
<!DOCTYPE svg PUBLIC "-//W3C//DTD SVG 1.1//EN"
  "http://www.w3.org/Graphics/SVG/1.1/DTD/svg11.dtd">
<!-- Created with matplotlib (http://matplotlib.org/) -->
<svg height="972pt" version="1.1" viewBox="0 0 1728 972" width="1728pt" xmlns="http://www.w3.org/2000/svg" xmlns:xlink="http://www.w3.org/1999/xlink">
 <defs>
  <style type="text/css">
*{stroke-linecap:butt;stroke-linejoin:round;stroke-miterlimit:100000;}
  </style>
 </defs>
 <g id="figure_1">
  <g id="patch_1">
   <path d="M 0 972 
L 1728 972 
L 1728 0 
L 0 0 
z
" style="fill:#ffffff;"/>
  </g>
  <g id="axes_1">
   <g id="patch_2">
    <path d="M 216 874.8 
L 1555.2 874.8 
L 1555.2 97.2 
L 216 97.2 
L 216 874.8 
z
" style="fill:none;"/>
   </g>
   <g id="patch_3">
    <path clip-path="url(#p22738d12e4)" d="M 280.231351 874.8 
L 292.764549 874.8 
L 292.764549 869.94 
L 280.231351 869.94 
z
" style="fill:#336699;stroke:#000000;stroke-linejoin:miter;"/>
   </g>
   <g id="patch_4">
    <path clip-path="url(#p22738d12e4)" d="M 292.764549 874.8 
L 305.297746 874.8 
L 305.297746 874.8 
L 292.764549 874.8 
z
" style="fill:#336699;stroke:#000000;stroke-linejoin:miter;"/>
   </g>
   <g id="patch_5">
    <path clip-path="url(#p22738d12e4)" d="M 305.297746 874.8 
L 317.830944 874.8 
L 317.830944 874.8 
L 305.297746 874.8 
z
" style="fill:#336699;stroke:#000000;stroke-linejoin:miter;"/>
   </g>
   <g id="patch_6">
    <path clip-path="url(#p22738d12e4)" d="M 317.830944 874.8 
L 330.364141 874.8 
L 330.364141 874.8 
L 317.830944 874.8 
z
" style="fill:#336699;stroke:#000000;stroke-linejoin:miter;"/>
   </g>
   <g id="patch_7">
    <path clip-path="url(#p22738d12e4)" d="M 330.364141 874.8 
L 342.897339 874.8 
L 342.897339 874.8 
L 330.364141 874.8 
z
" style="fill:#336699;stroke:#000000;stroke-linejoin:miter;"/>
   </g>
   <g id="patch_8">
    <path clip-path="url(#p22738d12e4)" d="M 342.897339 874.8 
L 355.430536 874.8 
L 355.430536 874.8 
L 342.897339 874.8 
z
" style="fill:#336699;stroke:#000000;stroke-linejoin:miter;"/>
   </g>
   <g id="patch_9">
    <path clip-path="url(#p22738d12e4)" d="M 355.430536 874.8 
L 367.963734 874.8 
L 367.963734 874.8 
L 355.430536 874.8 
z
" style="fill:#336699;stroke:#000000;stroke-linejoin:miter;"/>
   </g>
   <g id="patch_10">
    <path clip-path="url(#p22738d12e4)" d="M 367.963734 874.8 
L 380.496931 874.8 
L 380.496931 874.8 
L 367.963734 874.8 
z
" style="fill:#336699;stroke:#000000;stroke-linejoin:miter;"/>
   </g>
   <g id="patch_11">
    <path clip-path="url(#p22738d12e4)" d="M 380.496931 874.8 
L 393.030128 874.8 
L 393.030128 874.8 
L 380.496931 874.8 
z
" style="fill:#336699;stroke:#000000;stroke-linejoin:miter;"/>
   </g>
   <g id="patch_12">
    <path clip-path="url(#p22738d12e4)" d="M 393.030128 874.8 
L 405.563326 874.8 
L 405.563326 874.8 
L 393.030128 874.8 
z
" style="fill:#336699;stroke:#000000;stroke-linejoin:miter;"/>
   </g>
   <g id="patch_13">
    <path clip-path="url(#p22738d12e4)" d="M 405.563326 874.8 
L 418.096523 874.8 
L 418.096523 874.8 
L 405.563326 874.8 
z
" style="fill:#336699;stroke:#000000;stroke-linejoin:miter;"/>
   </g>
   <g id="patch_14">
    <path clip-path="url(#p22738d12e4)" d="M 418.096523 874.8 
L 430.629721 874.8 
L 430.629721 874.8 
L 418.096523 874.8 
z
" style="fill:#336699;stroke:#000000;stroke-linejoin:miter;"/>
   </g>
   <g id="patch_15">
    <path clip-path="url(#p22738d12e4)" d="M 430.629721 874.8 
L 443.162918 874.8 
L 443.162918 869.94 
L 430.629721 869.94 
z
" style="fill:#336699;stroke:#000000;stroke-linejoin:miter;"/>
   </g>
   <g id="patch_16">
    <path clip-path="url(#p22738d12e4)" d="M 443.162918 874.8 
L 455.696116 874.8 
L 455.696116 874.8 
L 443.162918 874.8 
z
" style="fill:#336699;stroke:#000000;stroke-linejoin:miter;"/>
   </g>
   <g id="patch_17">
    <path clip-path="url(#p22738d12e4)" d="M 455.696116 874.8 
L 468.229313 874.8 
L 468.229313 874.8 
L 455.696116 874.8 
z
" style="fill:#336699;stroke:#000000;stroke-linejoin:miter;"/>
   </g>
   <g id="patch_18">
    <path clip-path="url(#p22738d12e4)" d="M 468.229313 874.8 
L 480.762511 874.8 
L 480.762511 874.8 
L 468.229313 874.8 
z
" style="fill:#336699;stroke:#000000;stroke-linejoin:miter;"/>
   </g>
   <g id="patch_19">
    <path clip-path="url(#p22738d12e4)" d="M 480.762511 874.8 
L 493.295708 874.8 
L 493.295708 874.8 
L 480.762511 874.8 
z
" style="fill:#336699;stroke:#000000;stroke-linejoin:miter;"/>
   </g>
   <g id="patch_20">
    <path clip-path="url(#p22738d12e4)" d="M 493.295708 874.8 
L 505.828906 874.8 
L 505.828906 874.8 
L 493.295708 874.8 
z
" style="fill:#336699;stroke:#000000;stroke-linejoin:miter;"/>
   </g>
   <g id="patch_21">
    <path clip-path="url(#p22738d12e4)" d="M 505.828906 874.8 
L 518.362103 874.8 
L 518.362103 874.8 
L 505.828906 874.8 
z
" style="fill:#336699;stroke:#000000;stroke-linejoin:miter;"/>
   </g>
   <g id="patch_22">
    <path clip-path="url(#p22738d12e4)" d="M 518.362103 874.8 
L 530.895301 874.8 
L 530.895301 874.8 
L 518.362103 874.8 
z
" style="fill:#336699;stroke:#000000;stroke-linejoin:miter;"/>
   </g>
   <g id="patch_23">
    <path clip-path="url(#p22738d12e4)" d="M 530.895301 874.8 
L 543.428498 874.8 
L 543.428498 874.8 
L 530.895301 874.8 
z
" style="fill:#336699;stroke:#000000;stroke-linejoin:miter;"/>
   </g>
   <g id="patch_24">
    <path clip-path="url(#p22738d12e4)" d="M 543.428498 874.8 
L 555.961695 874.8 
L 555.961695 874.8 
L 543.428498 874.8 
z
" style="fill:#336699;stroke:#000000;stroke-linejoin:miter;"/>
   </g>
   <g id="patch_25">
    <path clip-path="url(#p22738d12e4)" d="M 555.961695 874.8 
L 568.494893 874.8 
L 568.494893 874.8 
L 555.961695 874.8 
z
" style="fill:#336699;stroke:#000000;stroke-linejoin:miter;"/>
   </g>
   <g id="patch_26">
    <path clip-path="url(#p22738d12e4)" d="M 568.494893 874.8 
L 581.02809 874.8 
L 581.02809 874.8 
L 568.494893 874.8 
z
" style="fill:#336699;stroke:#000000;stroke-linejoin:miter;"/>
   </g>
   <g id="patch_27">
    <path clip-path="url(#p22738d12e4)" d="M 581.02809 874.8 
L 593.561288 874.8 
L 593.561288 874.8 
L 581.02809 874.8 
z
" style="fill:#336699;stroke:#000000;stroke-linejoin:miter;"/>
   </g>
   <g id="patch_28">
    <path clip-path="url(#p22738d12e4)" d="M 593.561288 874.8 
L 606.094485 874.8 
L 606.094485 874.8 
L 593.561288 874.8 
z
" style="fill:#336699;stroke:#000000;stroke-linejoin:miter;"/>
   </g>
   <g id="patch_29">
    <path clip-path="url(#p22738d12e4)" d="M 606.094485 874.8 
L 618.627683 874.8 
L 618.627683 874.8 
L 606.094485 874.8 
z
" style="fill:#336699;stroke:#000000;stroke-linejoin:miter;"/>
   </g>
   <g id="patch_30">
    <path clip-path="url(#p22738d12e4)" d="M 618.627683 874.8 
L 631.16088 874.8 
L 631.16088 874.8 
L 618.627683 874.8 
z
" style="fill:#336699;stroke:#000000;stroke-linejoin:miter;"/>
   </g>
   <g id="patch_31">
    <path clip-path="url(#p22738d12e4)" d="M 631.16088 874.8 
L 643.694078 874.8 
L 643.694078 874.8 
L 631.16088 874.8 
z
" style="fill:#336699;stroke:#000000;stroke-linejoin:miter;"/>
   </g>
   <g id="patch_32">
    <path clip-path="url(#p22738d12e4)" d="M 643.694078 874.8 
L 656.227275 874.8 
L 656.227275 874.8 
L 643.694078 874.8 
z
" style="fill:#336699;stroke:#000000;stroke-linejoin:miter;"/>
   </g>
   <g id="patch_33">
    <path clip-path="url(#p22738d12e4)" d="M 656.227275 874.8 
L 668.760473 874.8 
L 668.760473 874.8 
L 656.227275 874.8 
z
" style="fill:#336699;stroke:#000000;stroke-linejoin:miter;"/>
   </g>
   <g id="patch_34">
    <path clip-path="url(#p22738d12e4)" d="M 668.760473 874.8 
L 681.29367 874.8 
L 681.29367 874.8 
L 668.760473 874.8 
z
" style="fill:#336699;stroke:#000000;stroke-linejoin:miter;"/>
   </g>
   <g id="patch_35">
    <path clip-path="url(#p22738d12e4)" d="M 681.29367 874.8 
L 693.826867 874.8 
L 693.826867 874.8 
L 681.29367 874.8 
z
" style="fill:#336699;stroke:#000000;stroke-linejoin:miter;"/>
   </g>
   <g id="patch_36">
    <path clip-path="url(#p22738d12e4)" d="M 693.826867 874.8 
L 706.360065 874.8 
L 706.360065 874.8 
L 693.826867 874.8 
z
" style="fill:#336699;stroke:#000000;stroke-linejoin:miter;"/>
   </g>
   <g id="patch_37">
    <path clip-path="url(#p22738d12e4)" d="M 706.360065 874.8 
L 718.893262 874.8 
L 718.893262 874.8 
L 706.360065 874.8 
z
" style="fill:#336699;stroke:#000000;stroke-linejoin:miter;"/>
   </g>
   <g id="patch_38">
    <path clip-path="url(#p22738d12e4)" d="M 718.893262 874.8 
L 731.42646 874.8 
L 731.42646 869.94 
L 718.893262 869.94 
z
" style="fill:#336699;stroke:#000000;stroke-linejoin:miter;"/>
   </g>
   <g id="patch_39">
    <path clip-path="url(#p22738d12e4)" d="M 731.42646 874.8 
L 743.959657 874.8 
L 743.959657 874.8 
L 731.42646 874.8 
z
" style="fill:#336699;stroke:#000000;stroke-linejoin:miter;"/>
   </g>
   <g id="patch_40">
    <path clip-path="url(#p22738d12e4)" d="M 743.959657 874.8 
L 756.492855 874.8 
L 756.492855 869.94 
L 743.959657 869.94 
z
" style="fill:#336699;stroke:#000000;stroke-linejoin:miter;"/>
   </g>
   <g id="patch_41">
    <path clip-path="url(#p22738d12e4)" d="M 756.492855 874.8 
L 769.026052 874.8 
L 769.026052 869.94 
L 756.492855 869.94 
z
" style="fill:#336699;stroke:#000000;stroke-linejoin:miter;"/>
   </g>
   <g id="patch_42">
    <path clip-path="url(#p22738d12e4)" d="M 769.026052 874.8 
L 781.55925 874.8 
L 781.55925 874.8 
L 769.026052 874.8 
z
" style="fill:#336699;stroke:#000000;stroke-linejoin:miter;"/>
   </g>
   <g id="patch_43">
    <path clip-path="url(#p22738d12e4)" d="M 781.55925 874.8 
L 794.092447 874.8 
L 794.092447 869.94 
L 781.55925 869.94 
z
" style="fill:#336699;stroke:#000000;stroke-linejoin:miter;"/>
   </g>
   <g id="patch_44">
    <path clip-path="url(#p22738d12e4)" d="M 794.092447 874.8 
L 806.625645 874.8 
L 806.625645 850.5 
L 794.092447 850.5 
z
" style="fill:#336699;stroke:#000000;stroke-linejoin:miter;"/>
   </g>
   <g id="patch_45">
    <path clip-path="url(#p22738d12e4)" d="M 806.625645 874.8 
L 819.158842 874.8 
L 819.158842 845.64 
L 806.625645 845.64 
z
" style="fill:#336699;stroke:#000000;stroke-linejoin:miter;"/>
   </g>
   <g id="patch_46">
    <path clip-path="url(#p22738d12e4)" d="M 819.158842 874.8 
L 831.692039 874.8 
L 831.692039 801.9 
L 819.158842 801.9 
z
" style="fill:#336699;stroke:#000000;stroke-linejoin:miter;"/>
   </g>
   <g id="patch_47">
    <path clip-path="url(#p22738d12e4)" d="M 831.692039 874.8 
L 844.225237 874.8 
L 844.225237 831.06 
L 831.692039 831.06 
z
" style="fill:#336699;stroke:#000000;stroke-linejoin:miter;"/>
   </g>
   <g id="patch_48">
    <path clip-path="url(#p22738d12e4)" d="M 844.225237 874.8 
L 856.758434 874.8 
L 856.758434 738.72 
L 844.225237 738.72 
z
" style="fill:#336699;stroke:#000000;stroke-linejoin:miter;"/>
   </g>
   <g id="patch_49">
    <path clip-path="url(#p22738d12e4)" d="M 856.758434 874.8 
L 869.291632 874.8 
L 869.291632 680.4 
L 856.758434 680.4 
z
" style="fill:#336699;stroke:#000000;stroke-linejoin:miter;"/>
   </g>
   <g id="patch_50">
    <path clip-path="url(#p22738d12e4)" d="M 869.291632 874.8 
L 881.824829 874.8 
L 881.824829 670.68 
L 869.291632 670.68 
z
" style="fill:#336699;stroke:#000000;stroke-linejoin:miter;"/>
   </g>
   <g id="patch_51">
    <path clip-path="url(#p22738d12e4)" d="M 881.824829 874.8 
L 894.358027 874.8 
L 894.358027 524.88 
L 881.824829 524.88 
z
" style="fill:#336699;stroke:#000000;stroke-linejoin:miter;"/>
   </g>
   <g id="patch_52">
    <path clip-path="url(#p22738d12e4)" d="M 894.358027 874.8 
L 906.891224 874.8 
L 906.891224 422.82 
L 894.358027 422.82 
z
" style="fill:#336699;stroke:#000000;stroke-linejoin:miter;"/>
   </g>
   <g id="patch_53">
    <path clip-path="url(#p22738d12e4)" d="M 906.891224 874.8 
L 919.424422 874.8 
L 919.424422 262.44 
L 906.891224 262.44 
z
" style="fill:#336699;stroke:#000000;stroke-linejoin:miter;"/>
   </g>
   <g id="patch_54">
    <path clip-path="url(#p22738d12e4)" d="M 919.424422 874.8 
L 931.957619 874.8 
L 931.957619 150.66 
L 919.424422 150.66 
z
" style="fill:#336699;stroke:#000000;stroke-linejoin:miter;"/>
   </g>
   <g id="patch_55">
    <path clip-path="url(#p22738d12e4)" d="M 931.957619 874.8 
L 944.490817 874.8 
L 944.490817 306.18 
L 931.957619 306.18 
z
" style="fill:#336699;stroke:#000000;stroke-linejoin:miter;"/>
   </g>
   <g id="patch_56">
    <path clip-path="url(#p22738d12e4)" d="M 944.490817 874.8 
L 957.024014 874.8 
L 957.024014 461.7 
L 944.490817 461.7 
z
" style="fill:#336699;stroke:#000000;stroke-linejoin:miter;"/>
   </g>
   <g id="patch_57">
    <path clip-path="url(#p22738d12e4)" d="M 957.024014 874.8 
L 969.557212 874.8 
L 969.557212 578.34 
L 957.024014 578.34 
z
" style="fill:#336699;stroke:#000000;stroke-linejoin:miter;"/>
   </g>
   <g id="patch_58">
    <path clip-path="url(#p22738d12e4)" d="M 969.557212 874.8 
L 982.090409 874.8 
L 982.090409 641.52 
L 969.557212 641.52 
z
" style="fill:#336699;stroke:#000000;stroke-linejoin:miter;"/>
   </g>
   <g id="patch_59">
    <path clip-path="url(#p22738d12e4)" d="M 982.090409 874.8 
L 994.623606 874.8 
L 994.623606 694.98 
L 982.090409 694.98 
z
" style="fill:#336699;stroke:#000000;stroke-linejoin:miter;"/>
   </g>
   <g id="patch_60">
    <path clip-path="url(#p22738d12e4)" d="M 994.623606 874.8 
L 1007.156804 874.8 
L 1007.156804 694.98 
L 994.623606 694.98 
z
" style="fill:#336699;stroke:#000000;stroke-linejoin:miter;"/>
   </g>
   <g id="patch_61">
    <path clip-path="url(#p22738d12e4)" d="M 1007.156804 874.8 
L 1019.690001 874.8 
L 1019.690001 782.46 
L 1007.156804 782.46 
z
" style="fill:#336699;stroke:#000000;stroke-linejoin:miter;"/>
   </g>
   <g id="patch_62">
    <path clip-path="url(#p22738d12e4)" d="M 1019.690001 874.8 
L 1032.223199 874.8 
L 1032.223199 821.34 
L 1019.690001 821.34 
z
" style="fill:#336699;stroke:#000000;stroke-linejoin:miter;"/>
   </g>
   <g id="patch_63">
    <path clip-path="url(#p22738d12e4)" d="M 1032.223199 874.8 
L 1044.756396 874.8 
L 1044.756396 855.36 
L 1032.223199 855.36 
z
" style="fill:#336699;stroke:#000000;stroke-linejoin:miter;"/>
   </g>
   <g id="patch_64">
    <path clip-path="url(#p22738d12e4)" d="M 1044.756396 874.8 
L 1057.289594 874.8 
L 1057.289594 855.36 
L 1044.756396 855.36 
z
" style="fill:#336699;stroke:#000000;stroke-linejoin:miter;"/>
   </g>
   <g id="patch_65">
    <path clip-path="url(#p22738d12e4)" d="M 1057.289594 874.8 
L 1069.822791 874.8 
L 1069.822791 874.8 
L 1057.289594 874.8 
z
" style="fill:#336699;stroke:#000000;stroke-linejoin:miter;"/>
   </g>
   <g id="patch_66">
    <path clip-path="url(#p22738d12e4)" d="M 1069.822791 874.8 
L 1082.355989 874.8 
L 1082.355989 869.94 
L 1069.822791 869.94 
z
" style="fill:#336699;stroke:#000000;stroke-linejoin:miter;"/>
   </g>
   <g id="patch_67">
    <path clip-path="url(#p22738d12e4)" d="M 1082.355989 874.8 
L 1094.889186 874.8 
L 1094.889186 869.94 
L 1082.355989 869.94 
z
" style="fill:#336699;stroke:#000000;stroke-linejoin:miter;"/>
   </g>
   <g id="patch_68">
    <path clip-path="url(#p22738d12e4)" d="M 1094.889186 874.8 
L 1107.422384 874.8 
L 1107.422384 874.8 
L 1094.889186 874.8 
z
" style="fill:#336699;stroke:#000000;stroke-linejoin:miter;"/>
   </g>
   <g id="patch_69">
    <path clip-path="url(#p22738d12e4)" d="M 1107.422384 874.8 
L 1119.955581 874.8 
L 1119.955581 869.94 
L 1107.422384 869.94 
z
" style="fill:#336699;stroke:#000000;stroke-linejoin:miter;"/>
   </g>
   <g id="patch_70">
    <path clip-path="url(#p22738d12e4)" d="M 1119.955581 874.8 
L 1132.488778 874.8 
L 1132.488778 874.8 
L 1119.955581 874.8 
z
" style="fill:#336699;stroke:#000000;stroke-linejoin:miter;"/>
   </g>
   <g id="patch_71">
    <path clip-path="url(#p22738d12e4)" d="M 1132.488778 874.8 
L 1145.021976 874.8 
L 1145.021976 869.94 
L 1132.488778 869.94 
z
" style="fill:#336699;stroke:#000000;stroke-linejoin:miter;"/>
   </g>
   <g id="patch_72">
    <path clip-path="url(#p22738d12e4)" d="M 1145.021976 874.8 
L 1157.555173 874.8 
L 1157.555173 874.8 
L 1145.021976 874.8 
z
" style="fill:#336699;stroke:#000000;stroke-linejoin:miter;"/>
   </g>
   <g id="patch_73">
    <path clip-path="url(#p22738d12e4)" d="M 1157.555173 874.8 
L 1170.088371 874.8 
L 1170.088371 874.8 
L 1157.555173 874.8 
z
" style="fill:#336699;stroke:#000000;stroke-linejoin:miter;"/>
   </g>
   <g id="patch_74">
    <path clip-path="url(#p22738d12e4)" d="M 1170.088371 874.8 
L 1182.621568 874.8 
L 1182.621568 869.94 
L 1170.088371 869.94 
z
" style="fill:#336699;stroke:#000000;stroke-linejoin:miter;"/>
   </g>
   <g id="patch_75">
    <path clip-path="url(#p22738d12e4)" d="M 1182.621568 874.8 
L 1195.154766 874.8 
L 1195.154766 874.8 
L 1182.621568 874.8 
z
" style="fill:#336699;stroke:#000000;stroke-linejoin:miter;"/>
   </g>
   <g id="patch_76">
    <path clip-path="url(#p22738d12e4)" d="M 1195.154766 874.8 
L 1207.687963 874.8 
L 1207.687963 874.8 
L 1195.154766 874.8 
z
" style="fill:#336699;stroke:#000000;stroke-linejoin:miter;"/>
   </g>
   <g id="patch_77">
    <path clip-path="url(#p22738d12e4)" d="M 1207.687963 874.8 
L 1220.221161 874.8 
L 1220.221161 869.94 
L 1207.687963 869.94 
z
" style="fill:#336699;stroke:#000000;stroke-linejoin:miter;"/>
   </g>
   <g id="patch_78">
    <path clip-path="url(#p22738d12e4)" d="M 1220.221161 874.8 
L 1232.754358 874.8 
L 1232.754358 874.8 
L 1220.221161 874.8 
z
" style="fill:#336699;stroke:#000000;stroke-linejoin:miter;"/>
   </g>
   <g id="patch_79">
    <path clip-path="url(#p22738d12e4)" d="M 1232.754358 874.8 
L 1245.287556 874.8 
L 1245.287556 874.8 
L 1232.754358 874.8 
z
" style="fill:#336699;stroke:#000000;stroke-linejoin:miter;"/>
   </g>
   <g id="patch_80">
    <path clip-path="url(#p22738d12e4)" d="M 1245.287556 874.8 
L 1257.820753 874.8 
L 1257.820753 869.94 
L 1245.287556 869.94 
z
" style="fill:#336699;stroke:#000000;stroke-linejoin:miter;"/>
   </g>
   <g id="patch_81">
    <path clip-path="url(#p22738d12e4)" d="M 1257.820753 874.8 
L 1270.35395 874.8 
L 1270.35395 874.8 
L 1257.820753 874.8 
z
" style="fill:#336699;stroke:#000000;stroke-linejoin:miter;"/>
   </g>
   <g id="patch_82">
    <path clip-path="url(#p22738d12e4)" d="M 1270.35395 874.8 
L 1282.887148 874.8 
L 1282.887148 869.94 
L 1270.35395 869.94 
z
" style="fill:#336699;stroke:#000000;stroke-linejoin:miter;"/>
   </g>
   <g id="patch_83">
    <path clip-path="url(#p22738d12e4)" d="M 1282.887148 874.8 
L 1295.420345 874.8 
L 1295.420345 865.08 
L 1282.887148 865.08 
z
" style="fill:#336699;stroke:#000000;stroke-linejoin:miter;"/>
   </g>
   <g id="patch_84">
    <path clip-path="url(#p22738d12e4)" d="M 1295.420345 874.8 
L 1307.953543 874.8 
L 1307.953543 874.8 
L 1295.420345 874.8 
z
" style="fill:#336699;stroke:#000000;stroke-linejoin:miter;"/>
   </g>
   <g id="patch_85">
    <path clip-path="url(#p22738d12e4)" d="M 1307.953543 874.8 
L 1320.48674 874.8 
L 1320.48674 869.94 
L 1307.953543 869.94 
z
" style="fill:#336699;stroke:#000000;stroke-linejoin:miter;"/>
   </g>
   <g id="patch_86">
    <path clip-path="url(#p22738d12e4)" d="M 1320.48674 874.8 
L 1333.019938 874.8 
L 1333.019938 874.8 
L 1320.48674 874.8 
z
" style="fill:#336699;stroke:#000000;stroke-linejoin:miter;"/>
   </g>
   <g id="patch_87">
    <path clip-path="url(#p22738d12e4)" d="M 1333.019938 874.8 
L 1345.553135 874.8 
L 1345.553135 874.8 
L 1333.019938 874.8 
z
" style="fill:#336699;stroke:#000000;stroke-linejoin:miter;"/>
   </g>
   <g id="patch_88">
    <path clip-path="url(#p22738d12e4)" d="M 1345.553135 874.8 
L 1358.086333 874.8 
L 1358.086333 869.94 
L 1345.553135 869.94 
z
" style="fill:#336699;stroke:#000000;stroke-linejoin:miter;"/>
   </g>
   <g id="patch_89">
    <path clip-path="url(#p22738d12e4)" d="M 1358.086333 874.8 
L 1370.61953 874.8 
L 1370.61953 874.8 
L 1358.086333 874.8 
z
" style="fill:#336699;stroke:#000000;stroke-linejoin:miter;"/>
   </g>
   <g id="patch_90">
    <path clip-path="url(#p22738d12e4)" d="M 1370.61953 874.8 
L 1383.152728 874.8 
L 1383.152728 874.8 
L 1370.61953 874.8 
z
" style="fill:#336699;stroke:#000000;stroke-linejoin:miter;"/>
   </g>
   <g id="patch_91">
    <path clip-path="url(#p22738d12e4)" d="M 1383.152728 874.8 
L 1395.685925 874.8 
L 1395.685925 869.94 
L 1383.152728 869.94 
z
" style="fill:#336699;stroke:#000000;stroke-linejoin:miter;"/>
   </g>
   <g id="patch_92">
    <path clip-path="url(#p22738d12e4)" d="M 1395.685925 874.8 
L 1408.219123 874.8 
L 1408.219123 869.94 
L 1395.685925 869.94 
z
" style="fill:#336699;stroke:#000000;stroke-linejoin:miter;"/>
   </g>
   <g id="patch_93">
    <path clip-path="url(#p22738d12e4)" d="M 1408.219123 874.8 
L 1420.75232 874.8 
L 1420.75232 869.94 
L 1408.219123 869.94 
z
" style="fill:#336699;stroke:#000000;stroke-linejoin:miter;"/>
   </g>
   <g id="patch_94">
    <path clip-path="url(#p22738d12e4)" d="M 1420.75232 874.8 
L 1433.285517 874.8 
L 1433.285517 865.08 
L 1420.75232 865.08 
z
" style="fill:#336699;stroke:#000000;stroke-linejoin:miter;"/>
   </g>
   <g id="patch_95">
    <path clip-path="url(#p22738d12e4)" d="M 1433.285517 874.8 
L 1445.818715 874.8 
L 1445.818715 874.8 
L 1433.285517 874.8 
z
" style="fill:#336699;stroke:#000000;stroke-linejoin:miter;"/>
   </g>
   <g id="patch_96">
    <path clip-path="url(#p22738d12e4)" d="M 1445.818715 874.8 
L 1458.351912 874.8 
L 1458.351912 874.8 
L 1445.818715 874.8 
z
" style="fill:#336699;stroke:#000000;stroke-linejoin:miter;"/>
   </g>
   <g id="patch_97">
    <path clip-path="url(#p22738d12e4)" d="M 1458.351912 874.8 
L 1470.88511 874.8 
L 1470.88511 874.8 
L 1458.351912 874.8 
z
" style="fill:#336699;stroke:#000000;stroke-linejoin:miter;"/>
   </g>
   <g id="patch_98">
    <path clip-path="url(#p22738d12e4)" d="M 1470.88511 874.8 
L 1483.418307 874.8 
L 1483.418307 869.94 
L 1470.88511 869.94 
z
" style="fill:#336699;stroke:#000000;stroke-linejoin:miter;"/>
   </g>
   <g id="patch_99">
    <path clip-path="url(#p22738d12e4)" d="M 1483.418307 874.8 
L 1495.951505 874.8 
L 1495.951505 874.8 
L 1483.418307 874.8 
z
" style="fill:#336699;stroke:#000000;stroke-linejoin:miter;"/>
   </g>
   <g id="patch_100">
    <path clip-path="url(#p22738d12e4)" d="M 1495.951505 874.8 
L 1508.484702 874.8 
L 1508.484702 874.8 
L 1495.951505 874.8 
z
" style="fill:#336699;stroke:#000000;stroke-linejoin:miter;"/>
   </g>
   <g id="patch_101">
    <path clip-path="url(#p22738d12e4)" d="M 1508.484702 874.8 
L 1521.0179 874.8 
L 1521.0179 869.94 
L 1508.484702 869.94 
z
" style="fill:#336699;stroke:#000000;stroke-linejoin:miter;"/>
   </g>
   <g id="patch_102">
    <path clip-path="url(#p22738d12e4)" d="M 1521.0179 874.8 
L 1533.551097 874.8 
L 1533.551097 865.08 
L 1521.0179 865.08 
z
" style="fill:#336699;stroke:#000000;stroke-linejoin:miter;"/>
   </g>
   <g id="patch_103">
    <path d="M 216 97.2 
L 1555.2 97.2 
" style="fill:none;stroke:#000000;stroke-linecap:square;stroke-linejoin:miter;"/>
   </g>
   <g id="patch_104">
    <path d="M 1555.2 874.8 
L 1555.2 97.2 
" style="fill:none;stroke:#000000;stroke-linecap:square;stroke-linejoin:miter;"/>
   </g>
   <g id="patch_105">
    <path d="M 216 874.8 
L 1555.2 874.8 
" style="fill:none;stroke:#000000;stroke-linecap:square;stroke-linejoin:miter;"/>
   </g>
   <g id="patch_106">
    <path d="M 216 874.8 
L 216 97.2 
" style="fill:none;stroke:#000000;stroke-linecap:square;stroke-linejoin:miter;"/>
   </g>
   <g id="matplotlib.axis_1">
    <g id="xtick_1">
     <g id="line2d_1">
      <defs>
       <path d="M 0 0 
L 0 -4 
" id="m292ecd7316" style="stroke:#000000;stroke-width:0.5;"/>
      </defs>
      <g>
       <use style="stroke:#000000;stroke-width:0.5;" x="216.0" xlink:href="#m292ecd7316" y="874.8000000000001"/>
      </g>
     </g>
     <g id="line2d_2">
      <defs>
       <path d="M 0 0 
L 0 4 
" id="m5e4c83319d" style="stroke:#000000;stroke-width:0.5;"/>
      </defs>
      <g>
       <use style="stroke:#000000;stroke-width:0.5;" x="216.0" xlink:href="#m5e4c83319d" y="97.19999999999993"/>
      </g>
     </g>
     <g id="text_1">
      <!-- −1.0 -->
      <defs>
       <path d="M 10.59375 35.5 
L 73.1875 35.5 
L 73.1875 27.203125 
L 10.59375 27.203125 
z
" id="BitstreamVeraSans-Roman-2212"/>
       <path d="M 31.78125 66.40625 
Q 24.171875 66.40625 20.328125 58.90625 
Q 16.5 51.421875 16.5 36.375 
Q 16.5 21.390625 20.328125 13.890625 
Q 24.171875 6.390625 31.78125 6.390625 
Q 39.453125 6.390625 43.28125 13.890625 
Q 47.125 21.390625 47.125 36.375 
Q 47.125 51.421875 43.28125 58.90625 
Q 39.453125 66.40625 31.78125 66.40625 
M 31.78125 74.21875 
Q 44.046875 74.21875 50.515625 64.515625 
Q 56.984375 54.828125 56.984375 36.375 
Q 56.984375 17.96875 50.515625 8.265625 
Q 44.046875 -1.421875 31.78125 -1.421875 
Q 19.53125 -1.421875 13.0625 8.265625 
Q 6.59375 17.96875 6.59375 36.375 
Q 6.59375 54.828125 13.0625 64.515625 
Q 19.53125 74.21875 31.78125 74.21875 
" id="BitstreamVeraSans-Roman-30"/>
       <path d="M 12.40625 8.296875 
L 28.515625 8.296875 
L 28.515625 63.921875 
L 10.984375 60.40625 
L 10.984375 69.390625 
L 28.421875 72.90625 
L 38.28125 72.90625 
L 38.28125 8.296875 
L 54.390625 8.296875 
L 54.390625 0 
L 12.40625 0 
z
" id="BitstreamVeraSans-Roman-31"/>
       <path d="M 10.6875 12.40625 
L 21 12.40625 
L 21 0 
L 10.6875 0 
z
" id="BitstreamVeraSans-Roman-2e"/>
      </defs>
      <g transform="translate(201.4303125 887.918125)scale(0.12 -0.12)">
       <use xlink:href="#BitstreamVeraSans-Roman-2212"/>
       <use x="83.7890625" xlink:href="#BitstreamVeraSans-Roman-31"/>
       <use x="147.412109375" xlink:href="#BitstreamVeraSans-Roman-2e"/>
       <use x="179.19921875" xlink:href="#BitstreamVeraSans-Roman-30"/>
      </g>
     </g>
    </g>
    <g id="xtick_2">
     <g id="line2d_3">
      <g>
       <use style="stroke:#000000;stroke-width:0.5;" x="364.79999999999995" xlink:href="#m292ecd7316" y="874.8000000000001"/>
      </g>
     </g>
     <g id="line2d_4">
      <g>
       <use style="stroke:#000000;stroke-width:0.5;" x="364.79999999999995" xlink:href="#m5e4c83319d" y="97.19999999999993"/>
      </g>
     </g>
     <g id="text_2">
      <!-- −0.8 -->
      <defs>
       <path d="M 31.78125 34.625 
Q 24.75 34.625 20.71875 30.859375 
Q 16.703125 27.09375 16.703125 20.515625 
Q 16.703125 13.921875 20.71875 10.15625 
Q 24.75 6.390625 31.78125 6.390625 
Q 38.8125 6.390625 42.859375 10.171875 
Q 46.921875 13.96875 46.921875 20.515625 
Q 46.921875 27.09375 42.890625 30.859375 
Q 38.875 34.625 31.78125 34.625 
M 21.921875 38.8125 
Q 15.578125 40.375 12.03125 44.71875 
Q 8.5 49.078125 8.5 55.328125 
Q 8.5 64.0625 14.71875 69.140625 
Q 20.953125 74.21875 31.78125 74.21875 
Q 42.671875 74.21875 48.875 69.140625 
Q 55.078125 64.0625 55.078125 55.328125 
Q 55.078125 49.078125 51.53125 44.71875 
Q 48 40.375 41.703125 38.8125 
Q 48.828125 37.15625 52.796875 32.3125 
Q 56.78125 27.484375 56.78125 20.515625 
Q 56.78125 9.90625 50.3125 4.234375 
Q 43.84375 -1.421875 31.78125 -1.421875 
Q 19.734375 -1.421875 13.25 4.234375 
Q 6.78125 9.90625 6.78125 20.515625 
Q 6.78125 27.484375 10.78125 32.3125 
Q 14.796875 37.15625 21.921875 38.8125 
M 18.3125 54.390625 
Q 18.3125 48.734375 21.84375 45.5625 
Q 25.390625 42.390625 31.78125 42.390625 
Q 38.140625 42.390625 41.71875 45.5625 
Q 45.3125 48.734375 45.3125 54.390625 
Q 45.3125 60.0625 41.71875 63.234375 
Q 38.140625 66.40625 31.78125 66.40625 
Q 25.390625 66.40625 21.84375 63.234375 
Q 18.3125 60.0625 18.3125 54.390625 
" id="BitstreamVeraSans-Roman-38"/>
      </defs>
      <g transform="translate(350.23031249999997 887.918125)scale(0.12 -0.12)">
       <use xlink:href="#BitstreamVeraSans-Roman-2212"/>
       <use x="83.7890625" xlink:href="#BitstreamVeraSans-Roman-30"/>
       <use x="147.412109375" xlink:href="#BitstreamVeraSans-Roman-2e"/>
       <use x="179.19921875" xlink:href="#BitstreamVeraSans-Roman-38"/>
      </g>
     </g>
    </g>
    <g id="xtick_3">
     <g id="line2d_5">
      <g>
       <use style="stroke:#000000;stroke-width:0.5;" x="513.6000000000001" xlink:href="#m292ecd7316" y="874.8000000000001"/>
      </g>
     </g>
     <g id="line2d_6">
      <g>
       <use style="stroke:#000000;stroke-width:0.5;" x="513.6000000000001" xlink:href="#m5e4c83319d" y="97.19999999999993"/>
      </g>
     </g>
     <g id="text_3">
      <!-- −0.6 -->
      <defs>
       <path d="M 33.015625 40.375 
Q 26.375 40.375 22.484375 35.828125 
Q 18.609375 31.296875 18.609375 23.390625 
Q 18.609375 15.53125 22.484375 10.953125 
Q 26.375 6.390625 33.015625 6.390625 
Q 39.65625 6.390625 43.53125 10.953125 
Q 47.40625 15.53125 47.40625 23.390625 
Q 47.40625 31.296875 43.53125 35.828125 
Q 39.65625 40.375 33.015625 40.375 
M 52.59375 71.296875 
L 52.59375 62.3125 
Q 48.875 64.0625 45.09375 64.984375 
Q 41.3125 65.921875 37.59375 65.921875 
Q 27.828125 65.921875 22.671875 59.328125 
Q 17.53125 52.734375 16.796875 39.40625 
Q 19.671875 43.65625 24.015625 45.921875 
Q 28.375 48.1875 33.59375 48.1875 
Q 44.578125 48.1875 50.953125 41.515625 
Q 57.328125 34.859375 57.328125 23.390625 
Q 57.328125 12.15625 50.6875 5.359375 
Q 44.046875 -1.421875 33.015625 -1.421875 
Q 20.359375 -1.421875 13.671875 8.265625 
Q 6.984375 17.96875 6.984375 36.375 
Q 6.984375 53.65625 15.1875 63.9375 
Q 23.390625 74.21875 37.203125 74.21875 
Q 40.921875 74.21875 44.703125 73.484375 
Q 48.484375 72.75 52.59375 71.296875 
" id="BitstreamVeraSans-Roman-36"/>
      </defs>
      <g transform="translate(499.03031250000015 887.918125)scale(0.12 -0.12)">
       <use xlink:href="#BitstreamVeraSans-Roman-2212"/>
       <use x="83.7890625" xlink:href="#BitstreamVeraSans-Roman-30"/>
       <use x="147.412109375" xlink:href="#BitstreamVeraSans-Roman-2e"/>
       <use x="179.19921875" xlink:href="#BitstreamVeraSans-Roman-36"/>
      </g>
     </g>
    </g>
    <g id="xtick_4">
     <g id="line2d_7">
      <g>
       <use style="stroke:#000000;stroke-width:0.5;" x="662.4000000000001" xlink:href="#m292ecd7316" y="874.8000000000001"/>
      </g>
     </g>
     <g id="line2d_8">
      <g>
       <use style="stroke:#000000;stroke-width:0.5;" x="662.4000000000001" xlink:href="#m5e4c83319d" y="97.19999999999993"/>
      </g>
     </g>
     <g id="text_4">
      <!-- −0.4 -->
      <defs>
       <path d="M 37.796875 64.3125 
L 12.890625 25.390625 
L 37.796875 25.390625 
z
M 35.203125 72.90625 
L 47.609375 72.90625 
L 47.609375 25.390625 
L 58.015625 25.390625 
L 58.015625 17.1875 
L 47.609375 17.1875 
L 47.609375 0 
L 37.796875 0 
L 37.796875 17.1875 
L 4.890625 17.1875 
L 4.890625 26.703125 
z
" id="BitstreamVeraSans-Roman-34"/>
      </defs>
      <g transform="translate(647.8303125000001 887.918125)scale(0.12 -0.12)">
       <use xlink:href="#BitstreamVeraSans-Roman-2212"/>
       <use x="83.7890625" xlink:href="#BitstreamVeraSans-Roman-30"/>
       <use x="147.412109375" xlink:href="#BitstreamVeraSans-Roman-2e"/>
       <use x="179.19921875" xlink:href="#BitstreamVeraSans-Roman-34"/>
      </g>
     </g>
    </g>
    <g id="xtick_5">
     <g id="line2d_9">
      <g>
       <use style="stroke:#000000;stroke-width:0.5;" x="811.2000000000002" xlink:href="#m292ecd7316" y="874.8000000000001"/>
      </g>
     </g>
     <g id="line2d_10">
      <g>
       <use style="stroke:#000000;stroke-width:0.5;" x="811.2000000000002" xlink:href="#m5e4c83319d" y="97.19999999999993"/>
      </g>
     </g>
     <g id="text_5">
      <!-- −0.2 -->
      <defs>
       <path d="M 19.1875 8.296875 
L 53.609375 8.296875 
L 53.609375 0 
L 7.328125 0 
L 7.328125 8.296875 
Q 12.9375 14.109375 22.625 23.890625 
Q 32.328125 33.6875 34.8125 36.53125 
Q 39.546875 41.84375 41.421875 45.53125 
Q 43.3125 49.21875 43.3125 52.78125 
Q 43.3125 58.59375 39.234375 62.25 
Q 35.15625 65.921875 28.609375 65.921875 
Q 23.96875 65.921875 18.8125 64.3125 
Q 13.671875 62.703125 7.8125 59.421875 
L 7.8125 69.390625 
Q 13.765625 71.78125 18.9375 73 
Q 24.125 74.21875 28.421875 74.21875 
Q 39.75 74.21875 46.484375 68.546875 
Q 53.21875 62.890625 53.21875 53.421875 
Q 53.21875 48.921875 51.53125 44.890625 
Q 49.859375 40.875 45.40625 35.40625 
Q 44.1875 33.984375 37.640625 27.21875 
Q 31.109375 20.453125 19.1875 8.296875 
" id="BitstreamVeraSans-Roman-32"/>
      </defs>
      <g transform="translate(796.6303125000002 887.918125)scale(0.12 -0.12)">
       <use xlink:href="#BitstreamVeraSans-Roman-2212"/>
       <use x="83.7890625" xlink:href="#BitstreamVeraSans-Roman-30"/>
       <use x="147.412109375" xlink:href="#BitstreamVeraSans-Roman-2e"/>
       <use x="179.19921875" xlink:href="#BitstreamVeraSans-Roman-32"/>
      </g>
     </g>
    </g>
    <g id="xtick_6">
     <g id="line2d_11">
      <g>
       <use style="stroke:#000000;stroke-width:0.5;" x="960.0000000000001" xlink:href="#m292ecd7316" y="874.8000000000001"/>
      </g>
     </g>
     <g id="line2d_12">
      <g>
       <use style="stroke:#000000;stroke-width:0.5;" x="960.0000000000001" xlink:href="#m5e4c83319d" y="97.19999999999993"/>
      </g>
     </g>
     <g id="text_6">
      <!-- 0.0 -->
      <g transform="translate(950.4581250000001 887.918125)scale(0.12 -0.12)">
       <use xlink:href="#BitstreamVeraSans-Roman-30"/>
       <use x="63.623046875" xlink:href="#BitstreamVeraSans-Roman-2e"/>
       <use x="95.41015625" xlink:href="#BitstreamVeraSans-Roman-30"/>
      </g>
     </g>
    </g>
    <g id="xtick_7">
     <g id="line2d_13">
      <g>
       <use style="stroke:#000000;stroke-width:0.5;" x="1108.8000000000002" xlink:href="#m292ecd7316" y="874.8000000000001"/>
      </g>
     </g>
     <g id="line2d_14">
      <g>
       <use style="stroke:#000000;stroke-width:0.5;" x="1108.8000000000002" xlink:href="#m5e4c83319d" y="97.19999999999993"/>
      </g>
     </g>
     <g id="text_7">
      <!-- 0.2 -->
      <g transform="translate(1099.2581250000003 887.918125)scale(0.12 -0.12)">
       <use xlink:href="#BitstreamVeraSans-Roman-30"/>
       <use x="63.623046875" xlink:href="#BitstreamVeraSans-Roman-2e"/>
       <use x="95.41015625" xlink:href="#BitstreamVeraSans-Roman-32"/>
      </g>
     </g>
    </g>
    <g id="xtick_8">
     <g id="line2d_15">
      <g>
       <use style="stroke:#000000;stroke-width:0.5;" x="1257.6000000000004" xlink:href="#m292ecd7316" y="874.8000000000001"/>
      </g>
     </g>
     <g id="line2d_16">
      <g>
       <use style="stroke:#000000;stroke-width:0.5;" x="1257.6000000000004" xlink:href="#m5e4c83319d" y="97.19999999999993"/>
      </g>
     </g>
     <g id="text_8">
      <!-- 0.4 -->
      <g transform="translate(1248.0581250000005 887.918125)scale(0.12 -0.12)">
       <use xlink:href="#BitstreamVeraSans-Roman-30"/>
       <use x="63.623046875" xlink:href="#BitstreamVeraSans-Roman-2e"/>
       <use x="95.41015625" xlink:href="#BitstreamVeraSans-Roman-34"/>
      </g>
     </g>
    </g>
    <g id="xtick_9">
     <g id="line2d_17">
      <g>
       <use style="stroke:#000000;stroke-width:0.5;" x="1406.4000000000003" xlink:href="#m292ecd7316" y="874.8000000000001"/>
      </g>
     </g>
     <g id="line2d_18">
      <g>
       <use style="stroke:#000000;stroke-width:0.5;" x="1406.4000000000003" xlink:href="#m5e4c83319d" y="97.19999999999993"/>
      </g>
     </g>
     <g id="text_9">
      <!-- 0.6 -->
      <g transform="translate(1396.8581250000004 887.918125)scale(0.12 -0.12)">
       <use xlink:href="#BitstreamVeraSans-Roman-30"/>
       <use x="63.623046875" xlink:href="#BitstreamVeraSans-Roman-2e"/>
       <use x="95.41015625" xlink:href="#BitstreamVeraSans-Roman-36"/>
      </g>
     </g>
    </g>
    <g id="xtick_10">
     <g id="line2d_19">
      <g>
       <use style="stroke:#000000;stroke-width:0.5;" x="1555.2000000000003" xlink:href="#m292ecd7316" y="874.8000000000001"/>
      </g>
     </g>
     <g id="line2d_20">
      <g>
       <use style="stroke:#000000;stroke-width:0.5;" x="1555.2000000000003" xlink:href="#m5e4c83319d" y="97.19999999999993"/>
      </g>
     </g>
     <g id="text_10">
      <!-- 0.8 -->
      <g transform="translate(1545.6581250000004 887.918125)scale(0.12 -0.12)">
       <use xlink:href="#BitstreamVeraSans-Roman-30"/>
       <use x="63.623046875" xlink:href="#BitstreamVeraSans-Roman-2e"/>
       <use x="95.41015625" xlink:href="#BitstreamVeraSans-Roman-38"/>
      </g>
     </g>
    </g>
   </g>
   <g id="matplotlib.axis_2">
    <g id="ytick_1">
     <g id="line2d_21">
      <defs>
       <path d="M 0 0 
L 4 0 
" id="m47ef5c676c" style="stroke:#000000;stroke-width:0.5;"/>
      </defs>
      <g>
       <use style="stroke:#000000;stroke-width:0.5;" x="216.0" xlink:href="#m47ef5c676c" y="874.8000000000001"/>
      </g>
     </g>
     <g id="line2d_22">
      <defs>
       <path d="M 0 0 
L -4 0 
" id="mc3c205224d" style="stroke:#000000;stroke-width:0.5;"/>
      </defs>
      <g>
       <use style="stroke:#000000;stroke-width:0.5;" x="1555.2" xlink:href="#mc3c205224d" y="874.8000000000001"/>
      </g>
     </g>
     <g id="text_11">
      <!-- 0 -->
      <g transform="translate(204.365 878.11125)scale(0.12 -0.12)">
       <use xlink:href="#BitstreamVeraSans-Roman-30"/>
      </g>
     </g>
    </g>
    <g id="ytick_2">
     <g id="line2d_23">
      <g>
       <use style="stroke:#000000;stroke-width:0.5;" x="216.0" xlink:href="#m47ef5c676c" y="777.6"/>
      </g>
     </g>
     <g id="line2d_24">
      <g>
       <use style="stroke:#000000;stroke-width:0.5;" x="1555.2" xlink:href="#mc3c205224d" y="777.6"/>
      </g>
     </g>
     <g id="text_12">
      <!-- 20 -->
      <g transform="translate(196.73 780.91125)scale(0.12 -0.12)">
       <use xlink:href="#BitstreamVeraSans-Roman-32"/>
       <use x="63.623046875" xlink:href="#BitstreamVeraSans-Roman-30"/>
      </g>
     </g>
    </g>
    <g id="ytick_3">
     <g id="line2d_25">
      <g>
       <use style="stroke:#000000;stroke-width:0.5;" x="216.0" xlink:href="#m47ef5c676c" y="680.4000000000001"/>
      </g>
     </g>
     <g id="line2d_26">
      <g>
       <use style="stroke:#000000;stroke-width:0.5;" x="1555.2" xlink:href="#mc3c205224d" y="680.4000000000001"/>
      </g>
     </g>
     <g id="text_13">
      <!-- 40 -->
      <g transform="translate(196.73 683.71125)scale(0.12 -0.12)">
       <use xlink:href="#BitstreamVeraSans-Roman-34"/>
       <use x="63.623046875" xlink:href="#BitstreamVeraSans-Roman-30"/>
      </g>
     </g>
    </g>
    <g id="ytick_4">
     <g id="line2d_27">
      <g>
       <use style="stroke:#000000;stroke-width:0.5;" x="216.0" xlink:href="#m47ef5c676c" y="583.2"/>
      </g>
     </g>
     <g id="line2d_28">
      <g>
       <use style="stroke:#000000;stroke-width:0.5;" x="1555.2" xlink:href="#mc3c205224d" y="583.2"/>
      </g>
     </g>
     <g id="text_14">
      <!-- 60 -->
      <g transform="translate(196.73 586.5112499999999)scale(0.12 -0.12)">
       <use xlink:href="#BitstreamVeraSans-Roman-36"/>
       <use x="63.623046875" xlink:href="#BitstreamVeraSans-Roman-30"/>
      </g>
     </g>
    </g>
    <g id="ytick_5">
     <g id="line2d_29">
      <g>
       <use style="stroke:#000000;stroke-width:0.5;" x="216.0" xlink:href="#m47ef5c676c" y="486.0"/>
      </g>
     </g>
     <g id="line2d_30">
      <g>
       <use style="stroke:#000000;stroke-width:0.5;" x="1555.2" xlink:href="#mc3c205224d" y="486.0"/>
      </g>
     </g>
     <g id="text_15">
      <!-- 80 -->
      <g transform="translate(196.73 489.3112499999999)scale(0.12 -0.12)">
       <use xlink:href="#BitstreamVeraSans-Roman-38"/>
       <use x="63.623046875" xlink:href="#BitstreamVeraSans-Roman-30"/>
      </g>
     </g>
    </g>
    <g id="ytick_6">
     <g id="line2d_31">
      <g>
       <use style="stroke:#000000;stroke-width:0.5;" x="216.0" xlink:href="#m47ef5c676c" y="388.79999999999995"/>
      </g>
     </g>
     <g id="line2d_32">
      <g>
       <use style="stroke:#000000;stroke-width:0.5;" x="1555.2" xlink:href="#mc3c205224d" y="388.79999999999995"/>
      </g>
     </g>
     <g id="text_16">
      <!-- 100 -->
      <g transform="translate(189.095 392.1112499999999)scale(0.12 -0.12)">
       <use xlink:href="#BitstreamVeraSans-Roman-31"/>
       <use x="63.623046875" xlink:href="#BitstreamVeraSans-Roman-30"/>
       <use x="127.24609375" xlink:href="#BitstreamVeraSans-Roman-30"/>
      </g>
     </g>
    </g>
    <g id="ytick_7">
     <g id="line2d_33">
      <g>
       <use style="stroke:#000000;stroke-width:0.5;" x="216.0" xlink:href="#m47ef5c676c" y="291.5999999999999"/>
      </g>
     </g>
     <g id="line2d_34">
      <g>
       <use style="stroke:#000000;stroke-width:0.5;" x="1555.2" xlink:href="#mc3c205224d" y="291.5999999999999"/>
      </g>
     </g>
     <g id="text_17">
      <!-- 120 -->
      <g transform="translate(189.095 294.9112499999999)scale(0.12 -0.12)">
       <use xlink:href="#BitstreamVeraSans-Roman-31"/>
       <use x="63.623046875" xlink:href="#BitstreamVeraSans-Roman-32"/>
       <use x="127.24609375" xlink:href="#BitstreamVeraSans-Roman-30"/>
      </g>
     </g>
    </g>
    <g id="ytick_8">
     <g id="line2d_35">
      <g>
       <use style="stroke:#000000;stroke-width:0.5;" x="216.0" xlink:href="#m47ef5c676c" y="194.39999999999986"/>
      </g>
     </g>
     <g id="line2d_36">
      <g>
       <use style="stroke:#000000;stroke-width:0.5;" x="1555.2" xlink:href="#mc3c205224d" y="194.39999999999986"/>
      </g>
     </g>
     <g id="text_18">
      <!-- 140 -->
      <g transform="translate(189.095 197.71124999999984)scale(0.12 -0.12)">
       <use xlink:href="#BitstreamVeraSans-Roman-31"/>
       <use x="63.623046875" xlink:href="#BitstreamVeraSans-Roman-34"/>
       <use x="127.24609375" xlink:href="#BitstreamVeraSans-Roman-30"/>
      </g>
     </g>
    </g>
    <g id="ytick_9">
     <g id="line2d_37">
      <g>
       <use style="stroke:#000000;stroke-width:0.5;" x="216.0" xlink:href="#m47ef5c676c" y="97.19999999999993"/>
      </g>
     </g>
     <g id="line2d_38">
      <g>
       <use style="stroke:#000000;stroke-width:0.5;" x="1555.2" xlink:href="#mc3c205224d" y="97.19999999999993"/>
      </g>
     </g>
     <g id="text_19">
      <!-- 160 -->
      <g transform="translate(189.095 100.5112499999999)scale(0.12 -0.12)">
       <use xlink:href="#BitstreamVeraSans-Roman-31"/>
       <use x="63.623046875" xlink:href="#BitstreamVeraSans-Roman-36"/>
       <use x="127.24609375" xlink:href="#BitstreamVeraSans-Roman-30"/>
      </g>
     </g>
    </g>
   </g>
   <g id="text_20">
    <!-- Histogram of R12 -->
    <defs>
     <path id="BitstreamVeraSans-Roman-20"/>
     <path d="M 34.28125 27.484375 
Q 23.390625 27.484375 19.1875 25 
Q 14.984375 22.515625 14.984375 16.5 
Q 14.984375 11.71875 18.140625 8.90625 
Q 21.296875 6.109375 26.703125 6.109375 
Q 34.1875 6.109375 38.703125 11.40625 
Q 43.21875 16.703125 43.21875 25.484375 
L 43.21875 27.484375 
z
M 52.203125 31.203125 
L 52.203125 0 
L 43.21875 0 
L 43.21875 8.296875 
Q 40.140625 3.328125 35.546875 0.953125 
Q 30.953125 -1.421875 24.3125 -1.421875 
Q 15.921875 -1.421875 10.953125 3.296875 
Q 6 8.015625 6 15.921875 
Q 6 25.140625 12.171875 29.828125 
Q 18.359375 34.515625 30.609375 34.515625 
L 43.21875 34.515625 
L 43.21875 35.40625 
Q 43.21875 41.609375 39.140625 45 
Q 35.0625 48.390625 27.6875 48.390625 
Q 23 48.390625 18.546875 47.265625 
Q 14.109375 46.140625 10.015625 43.890625 
L 10.015625 52.203125 
Q 14.9375 54.109375 19.578125 55.046875 
Q 24.21875 56 28.609375 56 
Q 40.484375 56 46.34375 49.84375 
Q 52.203125 43.703125 52.203125 31.203125 
" id="BitstreamVeraSans-Roman-61"/>
     <path d="M 30.609375 48.390625 
Q 23.390625 48.390625 19.1875 42.75 
Q 14.984375 37.109375 14.984375 27.296875 
Q 14.984375 17.484375 19.15625 11.84375 
Q 23.34375 6.203125 30.609375 6.203125 
Q 37.796875 6.203125 41.984375 11.859375 
Q 46.1875 17.53125 46.1875 27.296875 
Q 46.1875 37.015625 41.984375 42.703125 
Q 37.796875 48.390625 30.609375 48.390625 
M 30.609375 56 
Q 42.328125 56 49.015625 48.375 
Q 55.71875 40.765625 55.71875 27.296875 
Q 55.71875 13.875 49.015625 6.21875 
Q 42.328125 -1.421875 30.609375 -1.421875 
Q 18.84375 -1.421875 12.171875 6.21875 
Q 5.515625 13.875 5.515625 27.296875 
Q 5.515625 40.765625 12.171875 48.375 
Q 18.84375 56 30.609375 56 
" id="BitstreamVeraSans-Roman-6f"/>
     <path d="M 44.390625 34.1875 
Q 47.5625 33.109375 50.5625 29.59375 
Q 53.5625 26.078125 56.59375 19.921875 
L 66.609375 0 
L 56 0 
L 46.6875 18.703125 
Q 43.0625 26.03125 39.671875 28.421875 
Q 36.28125 30.8125 30.421875 30.8125 
L 19.671875 30.8125 
L 19.671875 0 
L 9.8125 0 
L 9.8125 72.90625 
L 32.078125 72.90625 
Q 44.578125 72.90625 50.734375 67.671875 
Q 56.890625 62.453125 56.890625 51.90625 
Q 56.890625 45.015625 53.6875 40.46875 
Q 50.484375 35.9375 44.390625 34.1875 
M 19.671875 64.796875 
L 19.671875 38.921875 
L 32.078125 38.921875 
Q 39.203125 38.921875 42.84375 42.21875 
Q 46.484375 45.515625 46.484375 51.90625 
Q 46.484375 58.296875 42.84375 61.546875 
Q 39.203125 64.796875 32.078125 64.796875 
z
" id="BitstreamVeraSans-Roman-52"/>
     <path d="M 9.421875 54.6875 
L 18.40625 54.6875 
L 18.40625 0 
L 9.421875 0 
z
M 9.421875 75.984375 
L 18.40625 75.984375 
L 18.40625 64.59375 
L 9.421875 64.59375 
z
" id="BitstreamVeraSans-Roman-69"/>
     <path d="M 52 44.1875 
Q 55.375 50.25 60.0625 53.125 
Q 64.75 56 71.09375 56 
Q 79.640625 56 84.28125 50.015625 
Q 88.921875 44.046875 88.921875 33.015625 
L 88.921875 0 
L 79.890625 0 
L 79.890625 32.71875 
Q 79.890625 40.578125 77.09375 44.375 
Q 74.3125 48.1875 68.609375 48.1875 
Q 61.625 48.1875 57.5625 43.546875 
Q 53.515625 38.921875 53.515625 30.90625 
L 53.515625 0 
L 44.484375 0 
L 44.484375 32.71875 
Q 44.484375 40.625 41.703125 44.40625 
Q 38.921875 48.1875 33.109375 48.1875 
Q 26.21875 48.1875 22.15625 43.53125 
Q 18.109375 38.875 18.109375 30.90625 
L 18.109375 0 
L 9.078125 0 
L 9.078125 54.6875 
L 18.109375 54.6875 
L 18.109375 46.1875 
Q 21.1875 51.21875 25.484375 53.609375 
Q 29.78125 56 35.6875 56 
Q 41.65625 56 45.828125 52.96875 
Q 50 49.953125 52 44.1875 
" id="BitstreamVeraSans-Roman-6d"/>
     <path d="M 18.3125 70.21875 
L 18.3125 54.6875 
L 36.8125 54.6875 
L 36.8125 47.703125 
L 18.3125 47.703125 
L 18.3125 18.015625 
Q 18.3125 11.328125 20.140625 9.421875 
Q 21.96875 7.515625 27.59375 7.515625 
L 36.8125 7.515625 
L 36.8125 0 
L 27.59375 0 
Q 17.1875 0 13.234375 3.875 
Q 9.28125 7.765625 9.28125 18.015625 
L 9.28125 47.703125 
L 2.6875 47.703125 
L 2.6875 54.6875 
L 9.28125 54.6875 
L 9.28125 70.21875 
z
" id="BitstreamVeraSans-Roman-74"/>
     <path d="M 37.109375 75.984375 
L 37.109375 68.5 
L 28.515625 68.5 
Q 23.6875 68.5 21.796875 66.546875 
Q 19.921875 64.59375 19.921875 59.515625 
L 19.921875 54.6875 
L 34.71875 54.6875 
L 34.71875 47.703125 
L 19.921875 47.703125 
L 19.921875 0 
L 10.890625 0 
L 10.890625 47.703125 
L 2.296875 47.703125 
L 2.296875 54.6875 
L 10.890625 54.6875 
L 10.890625 58.5 
Q 10.890625 67.625 15.140625 71.796875 
Q 19.390625 75.984375 28.609375 75.984375 
z
" id="BitstreamVeraSans-Roman-66"/>
     <path d="M 41.109375 46.296875 
Q 39.59375 47.171875 37.8125 47.578125 
Q 36.03125 48 33.890625 48 
Q 26.265625 48 22.1875 43.046875 
Q 18.109375 38.09375 18.109375 28.8125 
L 18.109375 0 
L 9.078125 0 
L 9.078125 54.6875 
L 18.109375 54.6875 
L 18.109375 46.1875 
Q 20.953125 51.171875 25.484375 53.578125 
Q 30.03125 56 36.53125 56 
Q 37.453125 56 38.578125 55.875 
Q 39.703125 55.765625 41.0625 55.515625 
z
" id="BitstreamVeraSans-Roman-72"/>
     <path d="M 44.28125 53.078125 
L 44.28125 44.578125 
Q 40.484375 46.53125 36.375 47.5 
Q 32.28125 48.484375 27.875 48.484375 
Q 21.1875 48.484375 17.84375 46.4375 
Q 14.5 44.390625 14.5 40.28125 
Q 14.5 37.15625 16.890625 35.375 
Q 19.28125 33.59375 26.515625 31.984375 
L 29.59375 31.296875 
Q 39.15625 29.25 43.1875 25.515625 
Q 47.21875 21.78125 47.21875 15.09375 
Q 47.21875 7.46875 41.1875 3.015625 
Q 35.15625 -1.421875 24.609375 -1.421875 
Q 20.21875 -1.421875 15.453125 -0.5625 
Q 10.6875 0.296875 5.421875 2 
L 5.421875 11.28125 
Q 10.40625 8.6875 15.234375 7.390625 
Q 20.0625 6.109375 24.8125 6.109375 
Q 31.15625 6.109375 34.5625 8.28125 
Q 37.984375 10.453125 37.984375 14.40625 
Q 37.984375 18.0625 35.515625 20.015625 
Q 33.0625 21.96875 24.703125 23.78125 
L 21.578125 24.515625 
Q 13.234375 26.265625 9.515625 29.90625 
Q 5.8125 33.546875 5.8125 39.890625 
Q 5.8125 47.609375 11.28125 51.796875 
Q 16.75 56 26.8125 56 
Q 31.78125 56 36.171875 55.265625 
Q 40.578125 54.546875 44.28125 53.078125 
" id="BitstreamVeraSans-Roman-73"/>
     <path d="M 45.40625 27.984375 
Q 45.40625 37.75 41.375 43.109375 
Q 37.359375 48.484375 30.078125 48.484375 
Q 22.859375 48.484375 18.828125 43.109375 
Q 14.796875 37.75 14.796875 27.984375 
Q 14.796875 18.265625 18.828125 12.890625 
Q 22.859375 7.515625 30.078125 7.515625 
Q 37.359375 7.515625 41.375 12.890625 
Q 45.40625 18.265625 45.40625 27.984375 
M 54.390625 6.78125 
Q 54.390625 -7.171875 48.1875 -13.984375 
Q 42 -20.796875 29.203125 -20.796875 
Q 24.46875 -20.796875 20.265625 -20.09375 
Q 16.0625 -19.390625 12.109375 -17.921875 
L 12.109375 -9.1875 
Q 16.0625 -11.328125 19.921875 -12.34375 
Q 23.78125 -13.375 27.78125 -13.375 
Q 36.625 -13.375 41.015625 -8.765625 
Q 45.40625 -4.15625 45.40625 5.171875 
L 45.40625 9.625 
Q 42.625 4.78125 38.28125 2.390625 
Q 33.9375 0 27.875 0 
Q 17.828125 0 11.671875 7.65625 
Q 5.515625 15.328125 5.515625 27.984375 
Q 5.515625 40.671875 11.671875 48.328125 
Q 17.828125 56 27.875 56 
Q 33.9375 56 38.28125 53.609375 
Q 42.625 51.21875 45.40625 46.390625 
L 45.40625 54.6875 
L 54.390625 54.6875 
z
" id="BitstreamVeraSans-Roman-67"/>
     <path d="M 9.8125 72.90625 
L 19.671875 72.90625 
L 19.671875 43.015625 
L 55.515625 43.015625 
L 55.515625 72.90625 
L 65.375 72.90625 
L 65.375 0 
L 55.515625 0 
L 55.515625 34.71875 
L 19.671875 34.71875 
L 19.671875 0 
L 9.8125 0 
z
" id="BitstreamVeraSans-Roman-48"/>
    </defs>
    <g transform="translate(822.5685000000001 92.19999999999993)scale(0.144 -0.144)">
     <use xlink:href="#BitstreamVeraSans-Roman-48"/>
     <use x="75.1953125" xlink:href="#BitstreamVeraSans-Roman-69"/>
     <use x="102.978515625" xlink:href="#BitstreamVeraSans-Roman-73"/>
     <use x="155.078125" xlink:href="#BitstreamVeraSans-Roman-74"/>
     <use x="194.287109375" xlink:href="#BitstreamVeraSans-Roman-6f"/>
     <use x="255.46875" xlink:href="#BitstreamVeraSans-Roman-67"/>
     <use x="318.9453125" xlink:href="#BitstreamVeraSans-Roman-72"/>
     <use x="360.05859375" xlink:href="#BitstreamVeraSans-Roman-61"/>
     <use x="421.337890625" xlink:href="#BitstreamVeraSans-Roman-6d"/>
     <use x="518.75" xlink:href="#BitstreamVeraSans-Roman-20"/>
     <use x="550.537109375" xlink:href="#BitstreamVeraSans-Roman-6f"/>
     <use x="611.71875" xlink:href="#BitstreamVeraSans-Roman-66"/>
     <use x="646.923828125" xlink:href="#BitstreamVeraSans-Roman-20"/>
     <use x="678.7109375" xlink:href="#BitstreamVeraSans-Roman-52"/>
     <use x="748.193359375" xlink:href="#BitstreamVeraSans-Roman-31"/>
     <use x="811.81640625" xlink:href="#BitstreamVeraSans-Roman-32"/>
    </g>
   </g>
  </g>
 </g>
 <defs>
  <clipPath id="p22738d12e4">
   <rect height="777.6000000000001" width="1339.2" x="216.0" y="97.19999999999993"/>
  </clipPath>
 </defs>
</svg>
