<?xml version="1.0" encoding="utf-8" standalone="no"?>
<!DOCTYPE svg PUBLIC "-//W3C//DTD SVG 1.1//EN"
  "http://www.w3.org/Graphics/SVG/1.1/DTD/svg11.dtd">
<!-- Created with matplotlib (http://matplotlib.org/) -->
<svg height="972pt" version="1.1" viewBox="0 0 1728 972" width="1728pt" xmlns="http://www.w3.org/2000/svg" xmlns:xlink="http://www.w3.org/1999/xlink">
 <defs>
  <style type="text/css">
*{stroke-linecap:butt;stroke-linejoin:round;stroke-miterlimit:100000;}
  </style>
 </defs>
 <g id="figure_1">
  <g id="patch_1">
   <path d="M 0 972 
L 1728 972 
L 1728 0 
L 0 0 
z
" style="fill:#ffffff;"/>
  </g>
  <g id="axes_1">
   <g id="patch_2">
    <path d="M 216 874.8 
L 1555.2 874.8 
L 1555.2 97.2 
L 216 97.2 
L 216 874.8 
z
" style="fill:none;"/>
   </g>
   <g id="patch_3">
    <path clip-path="url(#p7001c6708b)" d="M 378.020356 874.8 
L 389.482723 874.8 
L 389.482723 843.696 
L 378.020356 843.696 
z
" style="fill:#336699;stroke:#000000;stroke-linejoin:miter;"/>
   </g>
   <g id="patch_4">
    <path clip-path="url(#p7001c6708b)" d="M 389.482723 874.8 
L 400.945091 874.8 
L 400.945091 874.8 
L 389.482723 874.8 
z
" style="fill:#336699;stroke:#000000;stroke-linejoin:miter;"/>
   </g>
   <g id="patch_5">
    <path clip-path="url(#p7001c6708b)" d="M 400.945091 874.8 
L 412.407459 874.8 
L 412.407459 874.8 
L 400.945091 874.8 
z
" style="fill:#336699;stroke:#000000;stroke-linejoin:miter;"/>
   </g>
   <g id="patch_6">
    <path clip-path="url(#p7001c6708b)" d="M 412.407459 874.8 
L 423.869826 874.8 
L 423.869826 874.8 
L 412.407459 874.8 
z
" style="fill:#336699;stroke:#000000;stroke-linejoin:miter;"/>
   </g>
   <g id="patch_7">
    <path clip-path="url(#p7001c6708b)" d="M 423.869826 874.8 
L 435.332194 874.8 
L 435.332194 874.8 
L 423.869826 874.8 
z
" style="fill:#336699;stroke:#000000;stroke-linejoin:miter;"/>
   </g>
   <g id="patch_8">
    <path clip-path="url(#p7001c6708b)" d="M 435.332194 874.8 
L 446.794561 874.8 
L 446.794561 874.8 
L 435.332194 874.8 
z
" style="fill:#336699;stroke:#000000;stroke-linejoin:miter;"/>
   </g>
   <g id="patch_9">
    <path clip-path="url(#p7001c6708b)" d="M 446.794561 874.8 
L 458.256929 874.8 
L 458.256929 874.8 
L 446.794561 874.8 
z
" style="fill:#336699;stroke:#000000;stroke-linejoin:miter;"/>
   </g>
   <g id="patch_10">
    <path clip-path="url(#p7001c6708b)" d="M 458.256929 874.8 
L 469.719297 874.8 
L 469.719297 874.8 
L 458.256929 874.8 
z
" style="fill:#336699;stroke:#000000;stroke-linejoin:miter;"/>
   </g>
   <g id="patch_11">
    <path clip-path="url(#p7001c6708b)" d="M 469.719297 874.8 
L 481.181664 874.8 
L 481.181664 874.8 
L 469.719297 874.8 
z
" style="fill:#336699;stroke:#000000;stroke-linejoin:miter;"/>
   </g>
   <g id="patch_12">
    <path clip-path="url(#p7001c6708b)" d="M 481.181664 874.8 
L 492.644032 874.8 
L 492.644032 874.8 
L 481.181664 874.8 
z
" style="fill:#336699;stroke:#000000;stroke-linejoin:miter;"/>
   </g>
   <g id="patch_13">
    <path clip-path="url(#p7001c6708b)" d="M 492.644032 874.8 
L 504.1064 874.8 
L 504.1064 843.696 
L 492.644032 843.696 
z
" style="fill:#336699;stroke:#000000;stroke-linejoin:miter;"/>
   </g>
   <g id="patch_14">
    <path clip-path="url(#p7001c6708b)" d="M 504.1064 874.8 
L 515.568767 874.8 
L 515.568767 874.8 
L 504.1064 874.8 
z
" style="fill:#336699;stroke:#000000;stroke-linejoin:miter;"/>
   </g>
   <g id="patch_15">
    <path clip-path="url(#p7001c6708b)" d="M 515.568767 874.8 
L 527.031135 874.8 
L 527.031135 843.696 
L 515.568767 843.696 
z
" style="fill:#336699;stroke:#000000;stroke-linejoin:miter;"/>
   </g>
   <g id="patch_16">
    <path clip-path="url(#p7001c6708b)" d="M 527.031135 874.8 
L 538.493503 874.8 
L 538.493503 874.8 
L 527.031135 874.8 
z
" style="fill:#336699;stroke:#000000;stroke-linejoin:miter;"/>
   </g>
   <g id="patch_17">
    <path clip-path="url(#p7001c6708b)" d="M 538.493503 874.8 
L 549.95587 874.8 
L 549.95587 843.696 
L 538.493503 843.696 
z
" style="fill:#336699;stroke:#000000;stroke-linejoin:miter;"/>
   </g>
   <g id="patch_18">
    <path clip-path="url(#p7001c6708b)" d="M 549.95587 874.8 
L 561.418238 874.8 
L 561.418238 874.8 
L 549.95587 874.8 
z
" style="fill:#336699;stroke:#000000;stroke-linejoin:miter;"/>
   </g>
   <g id="patch_19">
    <path clip-path="url(#p7001c6708b)" d="M 561.418238 874.8 
L 572.880606 874.8 
L 572.880606 874.8 
L 561.418238 874.8 
z
" style="fill:#336699;stroke:#000000;stroke-linejoin:miter;"/>
   </g>
   <g id="patch_20">
    <path clip-path="url(#p7001c6708b)" d="M 572.880606 874.8 
L 584.342973 874.8 
L 584.342973 843.696 
L 572.880606 843.696 
z
" style="fill:#336699;stroke:#000000;stroke-linejoin:miter;"/>
   </g>
   <g id="patch_21">
    <path clip-path="url(#p7001c6708b)" d="M 584.342973 874.8 
L 595.805341 874.8 
L 595.805341 843.696 
L 584.342973 843.696 
z
" style="fill:#336699;stroke:#000000;stroke-linejoin:miter;"/>
   </g>
   <g id="patch_22">
    <path clip-path="url(#p7001c6708b)" d="M 595.805341 874.8 
L 607.267709 874.8 
L 607.267709 874.8 
L 595.805341 874.8 
z
" style="fill:#336699;stroke:#000000;stroke-linejoin:miter;"/>
   </g>
   <g id="patch_23">
    <path clip-path="url(#p7001c6708b)" d="M 607.267709 874.8 
L 618.730076 874.8 
L 618.730076 843.696 
L 607.267709 843.696 
z
" style="fill:#336699;stroke:#000000;stroke-linejoin:miter;"/>
   </g>
   <g id="patch_24">
    <path clip-path="url(#p7001c6708b)" d="M 618.730076 874.8 
L 630.192444 874.8 
L 630.192444 843.696 
L 618.730076 843.696 
z
" style="fill:#336699;stroke:#000000;stroke-linejoin:miter;"/>
   </g>
   <g id="patch_25">
    <path clip-path="url(#p7001c6708b)" d="M 630.192444 874.8 
L 641.654812 874.8 
L 641.654812 781.488 
L 630.192444 781.488 
z
" style="fill:#336699;stroke:#000000;stroke-linejoin:miter;"/>
   </g>
   <g id="patch_26">
    <path clip-path="url(#p7001c6708b)" d="M 641.654812 874.8 
L 653.117179 874.8 
L 653.117179 812.592 
L 641.654812 812.592 
z
" style="fill:#336699;stroke:#000000;stroke-linejoin:miter;"/>
   </g>
   <g id="patch_27">
    <path clip-path="url(#p7001c6708b)" d="M 653.117179 874.8 
L 664.579547 874.8 
L 664.579547 750.384 
L 653.117179 750.384 
z
" style="fill:#336699;stroke:#000000;stroke-linejoin:miter;"/>
   </g>
   <g id="patch_28">
    <path clip-path="url(#p7001c6708b)" d="M 664.579547 874.8 
L 676.041915 874.8 
L 676.041915 843.696 
L 664.579547 843.696 
z
" style="fill:#336699;stroke:#000000;stroke-linejoin:miter;"/>
   </g>
   <g id="patch_29">
    <path clip-path="url(#p7001c6708b)" d="M 676.041915 874.8 
L 687.504282 874.8 
L 687.504282 843.696 
L 676.041915 843.696 
z
" style="fill:#336699;stroke:#000000;stroke-linejoin:miter;"/>
   </g>
   <g id="patch_30">
    <path clip-path="url(#p7001c6708b)" d="M 687.504282 874.8 
L 698.96665 874.8 
L 698.96665 843.696 
L 687.504282 843.696 
z
" style="fill:#336699;stroke:#000000;stroke-linejoin:miter;"/>
   </g>
   <g id="patch_31">
    <path clip-path="url(#p7001c6708b)" d="M 698.96665 874.8 
L 710.429018 874.8 
L 710.429018 719.28 
L 698.96665 719.28 
z
" style="fill:#336699;stroke:#000000;stroke-linejoin:miter;"/>
   </g>
   <g id="patch_32">
    <path clip-path="url(#p7001c6708b)" d="M 710.429018 874.8 
L 721.891385 874.8 
L 721.891385 657.072 
L 710.429018 657.072 
z
" style="fill:#336699;stroke:#000000;stroke-linejoin:miter;"/>
   </g>
   <g id="patch_33">
    <path clip-path="url(#p7001c6708b)" d="M 721.891385 874.8 
L 733.353753 874.8 
L 733.353753 688.176 
L 721.891385 688.176 
z
" style="fill:#336699;stroke:#000000;stroke-linejoin:miter;"/>
   </g>
   <g id="patch_34">
    <path clip-path="url(#p7001c6708b)" d="M 733.353753 874.8 
L 744.816121 874.8 
L 744.816121 719.28 
L 733.353753 719.28 
z
" style="fill:#336699;stroke:#000000;stroke-linejoin:miter;"/>
   </g>
   <g id="patch_35">
    <path clip-path="url(#p7001c6708b)" d="M 744.816121 874.8 
L 756.278488 874.8 
L 756.278488 657.072 
L 744.816121 657.072 
z
" style="fill:#336699;stroke:#000000;stroke-linejoin:miter;"/>
   </g>
   <g id="patch_36">
    <path clip-path="url(#p7001c6708b)" d="M 756.278488 874.8 
L 767.740856 874.8 
L 767.740856 750.384 
L 756.278488 750.384 
z
" style="fill:#336699;stroke:#000000;stroke-linejoin:miter;"/>
   </g>
   <g id="patch_37">
    <path clip-path="url(#p7001c6708b)" d="M 767.740856 874.8 
L 779.203223 874.8 
L 779.203223 812.592 
L 767.740856 812.592 
z
" style="fill:#336699;stroke:#000000;stroke-linejoin:miter;"/>
   </g>
   <g id="patch_38">
    <path clip-path="url(#p7001c6708b)" d="M 779.203223 874.8 
L 790.665591 874.8 
L 790.665591 688.176 
L 779.203223 688.176 
z
" style="fill:#336699;stroke:#000000;stroke-linejoin:miter;"/>
   </g>
   <g id="patch_39">
    <path clip-path="url(#p7001c6708b)" d="M 790.665591 874.8 
L 802.127959 874.8 
L 802.127959 625.968 
L 790.665591 625.968 
z
" style="fill:#336699;stroke:#000000;stroke-linejoin:miter;"/>
   </g>
   <g id="patch_40">
    <path clip-path="url(#p7001c6708b)" d="M 802.127959 874.8 
L 813.590326 874.8 
L 813.590326 688.176 
L 802.127959 688.176 
z
" style="fill:#336699;stroke:#000000;stroke-linejoin:miter;"/>
   </g>
   <g id="patch_41">
    <path clip-path="url(#p7001c6708b)" d="M 813.590326 874.8 
L 825.052694 874.8 
L 825.052694 625.968 
L 813.590326 625.968 
z
" style="fill:#336699;stroke:#000000;stroke-linejoin:miter;"/>
   </g>
   <g id="patch_42">
    <path clip-path="url(#p7001c6708b)" d="M 825.052694 874.8 
L 836.515062 874.8 
L 836.515062 657.072 
L 825.052694 657.072 
z
" style="fill:#336699;stroke:#000000;stroke-linejoin:miter;"/>
   </g>
   <g id="patch_43">
    <path clip-path="url(#p7001c6708b)" d="M 836.515062 874.8 
L 847.977429 874.8 
L 847.977429 501.552 
L 836.515062 501.552 
z
" style="fill:#336699;stroke:#000000;stroke-linejoin:miter;"/>
   </g>
   <g id="patch_44">
    <path clip-path="url(#p7001c6708b)" d="M 847.977429 874.8 
L 859.439797 874.8 
L 859.439797 470.448 
L 847.977429 470.448 
z
" style="fill:#336699;stroke:#000000;stroke-linejoin:miter;"/>
   </g>
   <g id="patch_45">
    <path clip-path="url(#p7001c6708b)" d="M 859.439797 874.8 
L 870.902165 874.8 
L 870.902165 594.864 
L 859.439797 594.864 
z
" style="fill:#336699;stroke:#000000;stroke-linejoin:miter;"/>
   </g>
   <g id="patch_46">
    <path clip-path="url(#p7001c6708b)" d="M 870.902165 874.8 
L 882.364532 874.8 
L 882.364532 501.552 
L 870.902165 501.552 
z
" style="fill:#336699;stroke:#000000;stroke-linejoin:miter;"/>
   </g>
   <g id="patch_47">
    <path clip-path="url(#p7001c6708b)" d="M 882.364532 874.8 
L 893.8269 874.8 
L 893.8269 625.968 
L 882.364532 625.968 
z
" style="fill:#336699;stroke:#000000;stroke-linejoin:miter;"/>
   </g>
   <g id="patch_48">
    <path clip-path="url(#p7001c6708b)" d="M 893.8269 874.8 
L 905.289268 874.8 
L 905.289268 377.136 
L 893.8269 377.136 
z
" style="fill:#336699;stroke:#000000;stroke-linejoin:miter;"/>
   </g>
   <g id="patch_49">
    <path clip-path="url(#p7001c6708b)" d="M 905.289268 874.8 
L 916.751635 874.8 
L 916.751635 439.344 
L 905.289268 439.344 
z
" style="fill:#336699;stroke:#000000;stroke-linejoin:miter;"/>
   </g>
   <g id="patch_50">
    <path clip-path="url(#p7001c6708b)" d="M 916.751635 874.8 
L 928.214003 874.8 
L 928.214003 532.656 
L 916.751635 532.656 
z
" style="fill:#336699;stroke:#000000;stroke-linejoin:miter;"/>
   </g>
   <g id="patch_51">
    <path clip-path="url(#p7001c6708b)" d="M 928.214003 874.8 
L 939.676371 874.8 
L 939.676371 625.968 
L 928.214003 625.968 
z
" style="fill:#336699;stroke:#000000;stroke-linejoin:miter;"/>
   </g>
   <g id="patch_52">
    <path clip-path="url(#p7001c6708b)" d="M 939.676371 874.8 
L 951.138738 874.8 
L 951.138738 470.448 
L 939.676371 470.448 
z
" style="fill:#336699;stroke:#000000;stroke-linejoin:miter;"/>
   </g>
   <g id="patch_53">
    <path clip-path="url(#p7001c6708b)" d="M 951.138738 874.8 
L 962.601106 874.8 
L 962.601106 781.488 
L 951.138738 781.488 
z
" style="fill:#336699;stroke:#000000;stroke-linejoin:miter;"/>
   </g>
   <g id="patch_54">
    <path clip-path="url(#p7001c6708b)" d="M 962.601106 874.8 
L 974.063474 874.8 
L 974.063474 719.28 
L 962.601106 719.28 
z
" style="fill:#336699;stroke:#000000;stroke-linejoin:miter;"/>
   </g>
   <g id="patch_55">
    <path clip-path="url(#p7001c6708b)" d="M 974.063474 874.8 
L 985.525841 874.8 
L 985.525841 439.344 
L 974.063474 439.344 
z
" style="fill:#336699;stroke:#000000;stroke-linejoin:miter;"/>
   </g>
   <g id="patch_56">
    <path clip-path="url(#p7001c6708b)" d="M 985.525841 874.8 
L 996.988209 874.8 
L 996.988209 657.072 
L 985.525841 657.072 
z
" style="fill:#336699;stroke:#000000;stroke-linejoin:miter;"/>
   </g>
   <g id="patch_57">
    <path clip-path="url(#p7001c6708b)" d="M 996.988209 874.8 
L 1008.450577 874.8 
L 1008.450577 470.448 
L 996.988209 470.448 
z
" style="fill:#336699;stroke:#000000;stroke-linejoin:miter;"/>
   </g>
   <g id="patch_58">
    <path clip-path="url(#p7001c6708b)" d="M 1008.450577 874.8 
L 1019.912944 874.8 
L 1019.912944 314.928 
L 1008.450577 314.928 
z
" style="fill:#336699;stroke:#000000;stroke-linejoin:miter;"/>
   </g>
   <g id="patch_59">
    <path clip-path="url(#p7001c6708b)" d="M 1019.912944 874.8 
L 1031.375312 874.8 
L 1031.375312 532.656 
L 1019.912944 532.656 
z
" style="fill:#336699;stroke:#000000;stroke-linejoin:miter;"/>
   </g>
   <g id="patch_60">
    <path clip-path="url(#p7001c6708b)" d="M 1031.375312 874.8 
L 1042.83768 874.8 
L 1042.83768 563.76 
L 1031.375312 563.76 
z
" style="fill:#336699;stroke:#000000;stroke-linejoin:miter;"/>
   </g>
   <g id="patch_61">
    <path clip-path="url(#p7001c6708b)" d="M 1042.83768 874.8 
L 1054.300047 874.8 
L 1054.300047 563.76 
L 1042.83768 563.76 
z
" style="fill:#336699;stroke:#000000;stroke-linejoin:miter;"/>
   </g>
   <g id="patch_62">
    <path clip-path="url(#p7001c6708b)" d="M 1054.300047 874.8 
L 1065.762415 874.8 
L 1065.762415 719.28 
L 1054.300047 719.28 
z
" style="fill:#336699;stroke:#000000;stroke-linejoin:miter;"/>
   </g>
   <g id="patch_63">
    <path clip-path="url(#p7001c6708b)" d="M 1065.762415 874.8 
L 1077.224783 874.8 
L 1077.224783 688.176 
L 1065.762415 688.176 
z
" style="fill:#336699;stroke:#000000;stroke-linejoin:miter;"/>
   </g>
   <g id="patch_64">
    <path clip-path="url(#p7001c6708b)" d="M 1077.224783 874.8 
L 1088.68715 874.8 
L 1088.68715 563.76 
L 1077.224783 563.76 
z
" style="fill:#336699;stroke:#000000;stroke-linejoin:miter;"/>
   </g>
   <g id="patch_65">
    <path clip-path="url(#p7001c6708b)" d="M 1088.68715 874.8 
L 1100.149518 874.8 
L 1100.149518 252.72 
L 1088.68715 252.72 
z
" style="fill:#336699;stroke:#000000;stroke-linejoin:miter;"/>
   </g>
   <g id="patch_66">
    <path clip-path="url(#p7001c6708b)" d="M 1100.149518 874.8 
L 1111.611885 874.8 
L 1111.611885 408.24 
L 1100.149518 408.24 
z
" style="fill:#336699;stroke:#000000;stroke-linejoin:miter;"/>
   </g>
   <g id="patch_67">
    <path clip-path="url(#p7001c6708b)" d="M 1111.611885 874.8 
L 1123.074253 874.8 
L 1123.074253 252.72 
L 1111.611885 252.72 
z
" style="fill:#336699;stroke:#000000;stroke-linejoin:miter;"/>
   </g>
   <g id="patch_68">
    <path clip-path="url(#p7001c6708b)" d="M 1123.074253 874.8 
L 1134.536621 874.8 
L 1134.536621 314.928 
L 1123.074253 314.928 
z
" style="fill:#336699;stroke:#000000;stroke-linejoin:miter;"/>
   </g>
   <g id="patch_69">
    <path clip-path="url(#p7001c6708b)" d="M 1134.536621 874.8 
L 1145.998988 874.8 
L 1145.998988 221.616 
L 1134.536621 221.616 
z
" style="fill:#336699;stroke:#000000;stroke-linejoin:miter;"/>
   </g>
   <g id="patch_70">
    <path clip-path="url(#p7001c6708b)" d="M 1145.998988 874.8 
L 1157.461356 874.8 
L 1157.461356 439.344 
L 1145.998988 439.344 
z
" style="fill:#336699;stroke:#000000;stroke-linejoin:miter;"/>
   </g>
   <g id="patch_71">
    <path clip-path="url(#p7001c6708b)" d="M 1157.461356 874.8 
L 1168.923724 874.8 
L 1168.923724 532.656 
L 1157.461356 532.656 
z
" style="fill:#336699;stroke:#000000;stroke-linejoin:miter;"/>
   </g>
   <g id="patch_72">
    <path clip-path="url(#p7001c6708b)" d="M 1168.923724 874.8 
L 1180.386091 874.8 
L 1180.386091 594.864 
L 1168.923724 594.864 
z
" style="fill:#336699;stroke:#000000;stroke-linejoin:miter;"/>
   </g>
   <g id="patch_73">
    <path clip-path="url(#p7001c6708b)" d="M 1180.386091 874.8 
L 1191.848459 874.8 
L 1191.848459 657.072 
L 1180.386091 657.072 
z
" style="fill:#336699;stroke:#000000;stroke-linejoin:miter;"/>
   </g>
   <g id="patch_74">
    <path clip-path="url(#p7001c6708b)" d="M 1191.848459 874.8 
L 1203.310827 874.8 
L 1203.310827 812.592 
L 1191.848459 812.592 
z
" style="fill:#336699;stroke:#000000;stroke-linejoin:miter;"/>
   </g>
   <g id="patch_75">
    <path clip-path="url(#p7001c6708b)" d="M 1203.310827 874.8 
L 1214.773194 874.8 
L 1214.773194 657.072 
L 1203.310827 657.072 
z
" style="fill:#336699;stroke:#000000;stroke-linejoin:miter;"/>
   </g>
   <g id="patch_76">
    <path clip-path="url(#p7001c6708b)" d="M 1214.773194 874.8 
L 1226.235562 874.8 
L 1226.235562 750.384 
L 1214.773194 750.384 
z
" style="fill:#336699;stroke:#000000;stroke-linejoin:miter;"/>
   </g>
   <g id="patch_77">
    <path clip-path="url(#p7001c6708b)" d="M 1226.235562 874.8 
L 1237.69793 874.8 
L 1237.69793 812.592 
L 1226.235562 812.592 
z
" style="fill:#336699;stroke:#000000;stroke-linejoin:miter;"/>
   </g>
   <g id="patch_78">
    <path clip-path="url(#p7001c6708b)" d="M 1237.69793 874.8 
L 1249.160297 874.8 
L 1249.160297 719.28 
L 1237.69793 719.28 
z
" style="fill:#336699;stroke:#000000;stroke-linejoin:miter;"/>
   </g>
   <g id="patch_79">
    <path clip-path="url(#p7001c6708b)" d="M 1249.160297 874.8 
L 1260.622665 874.8 
L 1260.622665 625.968 
L 1249.160297 625.968 
z
" style="fill:#336699;stroke:#000000;stroke-linejoin:miter;"/>
   </g>
   <g id="patch_80">
    <path clip-path="url(#p7001c6708b)" d="M 1260.622665 874.8 
L 1272.085033 874.8 
L 1272.085033 657.072 
L 1260.622665 657.072 
z
" style="fill:#336699;stroke:#000000;stroke-linejoin:miter;"/>
   </g>
   <g id="patch_81">
    <path clip-path="url(#p7001c6708b)" d="M 1272.085033 874.8 
L 1283.5474 874.8 
L 1283.5474 625.968 
L 1272.085033 625.968 
z
" style="fill:#336699;stroke:#000000;stroke-linejoin:miter;"/>
   </g>
   <g id="patch_82">
    <path clip-path="url(#p7001c6708b)" d="M 1283.5474 874.8 
L 1295.009768 874.8 
L 1295.009768 781.488 
L 1283.5474 781.488 
z
" style="fill:#336699;stroke:#000000;stroke-linejoin:miter;"/>
   </g>
   <g id="patch_83">
    <path clip-path="url(#p7001c6708b)" d="M 1295.009768 874.8 
L 1306.472136 874.8 
L 1306.472136 688.176 
L 1295.009768 688.176 
z
" style="fill:#336699;stroke:#000000;stroke-linejoin:miter;"/>
   </g>
   <g id="patch_84">
    <path clip-path="url(#p7001c6708b)" d="M 1306.472136 874.8 
L 1317.934503 874.8 
L 1317.934503 657.072 
L 1306.472136 657.072 
z
" style="fill:#336699;stroke:#000000;stroke-linejoin:miter;"/>
   </g>
   <g id="patch_85">
    <path clip-path="url(#p7001c6708b)" d="M 1317.934503 874.8 
L 1329.396871 874.8 
L 1329.396871 812.592 
L 1317.934503 812.592 
z
" style="fill:#336699;stroke:#000000;stroke-linejoin:miter;"/>
   </g>
   <g id="patch_86">
    <path clip-path="url(#p7001c6708b)" d="M 1329.396871 874.8 
L 1340.859239 874.8 
L 1340.859239 843.696 
L 1329.396871 843.696 
z
" style="fill:#336699;stroke:#000000;stroke-linejoin:miter;"/>
   </g>
   <g id="patch_87">
    <path clip-path="url(#p7001c6708b)" d="M 1340.859239 874.8 
L 1352.321606 874.8 
L 1352.321606 874.8 
L 1340.859239 874.8 
z
" style="fill:#336699;stroke:#000000;stroke-linejoin:miter;"/>
   </g>
   <g id="patch_88">
    <path clip-path="url(#p7001c6708b)" d="M 1352.321606 874.8 
L 1363.783974 874.8 
L 1363.783974 719.28 
L 1352.321606 719.28 
z
" style="fill:#336699;stroke:#000000;stroke-linejoin:miter;"/>
   </g>
   <g id="patch_89">
    <path clip-path="url(#p7001c6708b)" d="M 1363.783974 874.8 
L 1375.246342 874.8 
L 1375.246342 781.488 
L 1363.783974 781.488 
z
" style="fill:#336699;stroke:#000000;stroke-linejoin:miter;"/>
   </g>
   <g id="patch_90">
    <path clip-path="url(#p7001c6708b)" d="M 1375.246342 874.8 
L 1386.708709 874.8 
L 1386.708709 688.176 
L 1375.246342 688.176 
z
" style="fill:#336699;stroke:#000000;stroke-linejoin:miter;"/>
   </g>
   <g id="patch_91">
    <path clip-path="url(#p7001c6708b)" d="M 1386.708709 874.8 
L 1398.171077 874.8 
L 1398.171077 874.8 
L 1386.708709 874.8 
z
" style="fill:#336699;stroke:#000000;stroke-linejoin:miter;"/>
   </g>
   <g id="patch_92">
    <path clip-path="url(#p7001c6708b)" d="M 1398.171077 874.8 
L 1409.633445 874.8 
L 1409.633445 874.8 
L 1398.171077 874.8 
z
" style="fill:#336699;stroke:#000000;stroke-linejoin:miter;"/>
   </g>
   <g id="patch_93">
    <path clip-path="url(#p7001c6708b)" d="M 1409.633445 874.8 
L 1421.095812 874.8 
L 1421.095812 874.8 
L 1409.633445 874.8 
z
" style="fill:#336699;stroke:#000000;stroke-linejoin:miter;"/>
   </g>
   <g id="patch_94">
    <path clip-path="url(#p7001c6708b)" d="M 1421.095812 874.8 
L 1432.55818 874.8 
L 1432.55818 874.8 
L 1421.095812 874.8 
z
" style="fill:#336699;stroke:#000000;stroke-linejoin:miter;"/>
   </g>
   <g id="patch_95">
    <path clip-path="url(#p7001c6708b)" d="M 1432.55818 874.8 
L 1444.020548 874.8 
L 1444.020548 874.8 
L 1432.55818 874.8 
z
" style="fill:#336699;stroke:#000000;stroke-linejoin:miter;"/>
   </g>
   <g id="patch_96">
    <path clip-path="url(#p7001c6708b)" d="M 1444.020548 874.8 
L 1455.482915 874.8 
L 1455.482915 812.592 
L 1444.020548 812.592 
z
" style="fill:#336699;stroke:#000000;stroke-linejoin:miter;"/>
   </g>
   <g id="patch_97">
    <path clip-path="url(#p7001c6708b)" d="M 1455.482915 874.8 
L 1466.945283 874.8 
L 1466.945283 812.592 
L 1455.482915 812.592 
z
" style="fill:#336699;stroke:#000000;stroke-linejoin:miter;"/>
   </g>
   <g id="patch_98">
    <path clip-path="url(#p7001c6708b)" d="M 1466.945283 874.8 
L 1478.40765 874.8 
L 1478.40765 874.8 
L 1466.945283 874.8 
z
" style="fill:#336699;stroke:#000000;stroke-linejoin:miter;"/>
   </g>
   <g id="patch_99">
    <path clip-path="url(#p7001c6708b)" d="M 1478.40765 874.8 
L 1489.870018 874.8 
L 1489.870018 874.8 
L 1478.40765 874.8 
z
" style="fill:#336699;stroke:#000000;stroke-linejoin:miter;"/>
   </g>
   <g id="patch_100">
    <path clip-path="url(#p7001c6708b)" d="M 1489.870018 874.8 
L 1501.332386 874.8 
L 1501.332386 874.8 
L 1489.870018 874.8 
z
" style="fill:#336699;stroke:#000000;stroke-linejoin:miter;"/>
   </g>
   <g id="patch_101">
    <path clip-path="url(#p7001c6708b)" d="M 1501.332386 874.8 
L 1512.794753 874.8 
L 1512.794753 812.592 
L 1501.332386 812.592 
z
" style="fill:#336699;stroke:#000000;stroke-linejoin:miter;"/>
   </g>
   <g id="patch_102">
    <path clip-path="url(#p7001c6708b)" d="M 1512.794753 874.8 
L 1524.257121 874.8 
L 1524.257121 812.592 
L 1512.794753 812.592 
z
" style="fill:#336699;stroke:#000000;stroke-linejoin:miter;"/>
   </g>
   <g id="patch_103">
    <path d="M 216 97.2 
L 1555.2 97.2 
" style="fill:none;stroke:#000000;stroke-linecap:square;stroke-linejoin:miter;"/>
   </g>
   <g id="patch_104">
    <path d="M 1555.2 874.8 
L 1555.2 97.2 
" style="fill:none;stroke:#000000;stroke-linecap:square;stroke-linejoin:miter;"/>
   </g>
   <g id="patch_105">
    <path d="M 216 874.8 
L 1555.2 874.8 
" style="fill:none;stroke:#000000;stroke-linecap:square;stroke-linejoin:miter;"/>
   </g>
   <g id="patch_106">
    <path d="M 216 874.8 
L 216 97.2 
" style="fill:none;stroke:#000000;stroke-linecap:square;stroke-linejoin:miter;"/>
   </g>
   <g id="matplotlib.axis_1">
    <g id="xtick_1">
     <g id="line2d_1">
      <defs>
       <path d="M 0 0 
L 0 -4 
" id="mec0b966449" style="stroke:#000000;stroke-width:0.5;"/>
      </defs>
      <g>
       <use style="stroke:#000000;stroke-width:0.5;" x="215.99999999999977" xlink:href="#mec0b966449" y="874.8000000000001"/>
      </g>
     </g>
     <g id="line2d_2">
      <defs>
       <path d="M 0 0 
L 0 4 
" id="m0c1850e980" style="stroke:#000000;stroke-width:0.5;"/>
      </defs>
      <g>
       <use style="stroke:#000000;stroke-width:0.5;" x="215.99999999999977" xlink:href="#m0c1850e980" y="97.19999999999993"/>
      </g>
     </g>
     <g id="text_1">
      <!-- −0.40 -->
      <defs>
       <path d="M 10.59375 35.5 
L 73.1875 35.5 
L 73.1875 27.203125 
L 10.59375 27.203125 
z
" id="BitstreamVeraSans-Roman-2212"/>
       <path d="M 31.78125 66.40625 
Q 24.171875 66.40625 20.328125 58.90625 
Q 16.5 51.421875 16.5 36.375 
Q 16.5 21.390625 20.328125 13.890625 
Q 24.171875 6.390625 31.78125 6.390625 
Q 39.453125 6.390625 43.28125 13.890625 
Q 47.125 21.390625 47.125 36.375 
Q 47.125 51.421875 43.28125 58.90625 
Q 39.453125 66.40625 31.78125 66.40625 
M 31.78125 74.21875 
Q 44.046875 74.21875 50.515625 64.515625 
Q 56.984375 54.828125 56.984375 36.375 
Q 56.984375 17.96875 50.515625 8.265625 
Q 44.046875 -1.421875 31.78125 -1.421875 
Q 19.53125 -1.421875 13.0625 8.265625 
Q 6.59375 17.96875 6.59375 36.375 
Q 6.59375 54.828125 13.0625 64.515625 
Q 19.53125 74.21875 31.78125 74.21875 
" id="BitstreamVeraSans-Roman-30"/>
       <path d="M 10.6875 12.40625 
L 21 12.40625 
L 21 0 
L 10.6875 0 
z
" id="BitstreamVeraSans-Roman-2e"/>
       <path d="M 37.796875 64.3125 
L 12.890625 25.390625 
L 37.796875 25.390625 
z
M 35.203125 72.90625 
L 47.609375 72.90625 
L 47.609375 25.390625 
L 58.015625 25.390625 
L 58.015625 17.1875 
L 47.609375 17.1875 
L 47.609375 0 
L 37.796875 0 
L 37.796875 17.1875 
L 4.890625 17.1875 
L 4.890625 26.703125 
z
" id="BitstreamVeraSans-Roman-34"/>
      </defs>
      <g transform="translate(197.61281249999976 887.918125)scale(0.12 -0.12)">
       <use xlink:href="#BitstreamVeraSans-Roman-2212"/>
       <use x="83.7890625" xlink:href="#BitstreamVeraSans-Roman-30"/>
       <use x="147.412109375" xlink:href="#BitstreamVeraSans-Roman-2e"/>
       <use x="179.19921875" xlink:href="#BitstreamVeraSans-Roman-34"/>
       <use x="242.822265625" xlink:href="#BitstreamVeraSans-Roman-30"/>
      </g>
     </g>
    </g>
    <g id="xtick_2">
     <g id="line2d_3">
      <g>
       <use style="stroke:#000000;stroke-width:0.5;" x="439.1999999999998" xlink:href="#mec0b966449" y="874.8000000000001"/>
      </g>
     </g>
     <g id="line2d_4">
      <g>
       <use style="stroke:#000000;stroke-width:0.5;" x="439.1999999999998" xlink:href="#m0c1850e980" y="97.19999999999993"/>
      </g>
     </g>
     <g id="text_2">
      <!-- −0.35 -->
      <defs>
       <path d="M 40.578125 39.3125 
Q 47.65625 37.796875 51.625 33 
Q 55.609375 28.21875 55.609375 21.1875 
Q 55.609375 10.40625 48.1875 4.484375 
Q 40.765625 -1.421875 27.09375 -1.421875 
Q 22.515625 -1.421875 17.65625 -0.515625 
Q 12.796875 0.390625 7.625 2.203125 
L 7.625 11.71875 
Q 11.71875 9.328125 16.59375 8.109375 
Q 21.484375 6.890625 26.8125 6.890625 
Q 36.078125 6.890625 40.9375 10.546875 
Q 45.796875 14.203125 45.796875 21.1875 
Q 45.796875 27.640625 41.28125 31.265625 
Q 36.765625 34.90625 28.71875 34.90625 
L 20.21875 34.90625 
L 20.21875 43.015625 
L 29.109375 43.015625 
Q 36.375 43.015625 40.234375 45.921875 
Q 44.09375 48.828125 44.09375 54.296875 
Q 44.09375 59.90625 40.109375 62.90625 
Q 36.140625 65.921875 28.71875 65.921875 
Q 24.65625 65.921875 20.015625 65.03125 
Q 15.375 64.15625 9.8125 62.3125 
L 9.8125 71.09375 
Q 15.4375 72.65625 20.34375 73.4375 
Q 25.25 74.21875 29.59375 74.21875 
Q 40.828125 74.21875 47.359375 69.109375 
Q 53.90625 64.015625 53.90625 55.328125 
Q 53.90625 49.265625 50.4375 45.09375 
Q 46.96875 40.921875 40.578125 39.3125 
" id="BitstreamVeraSans-Roman-33"/>
       <path d="M 10.796875 72.90625 
L 49.515625 72.90625 
L 49.515625 64.59375 
L 19.828125 64.59375 
L 19.828125 46.734375 
Q 21.96875 47.46875 24.109375 47.828125 
Q 26.265625 48.1875 28.421875 48.1875 
Q 40.625 48.1875 47.75 41.5 
Q 54.890625 34.8125 54.890625 23.390625 
Q 54.890625 11.625 47.5625 5.09375 
Q 40.234375 -1.421875 26.90625 -1.421875 
Q 22.3125 -1.421875 17.546875 -0.640625 
Q 12.796875 0.140625 7.71875 1.703125 
L 7.71875 11.625 
Q 12.109375 9.234375 16.796875 8.0625 
Q 21.484375 6.890625 26.703125 6.890625 
Q 35.15625 6.890625 40.078125 11.328125 
Q 45.015625 15.765625 45.015625 23.390625 
Q 45.015625 31 40.078125 35.4375 
Q 35.15625 39.890625 26.703125 39.890625 
Q 22.75 39.890625 18.8125 39.015625 
Q 14.890625 38.140625 10.796875 36.28125 
z
" id="BitstreamVeraSans-Roman-35"/>
      </defs>
      <g transform="translate(420.81281249999984 887.918125)scale(0.12 -0.12)">
       <use xlink:href="#BitstreamVeraSans-Roman-2212"/>
       <use x="83.7890625" xlink:href="#BitstreamVeraSans-Roman-30"/>
       <use x="147.412109375" xlink:href="#BitstreamVeraSans-Roman-2e"/>
       <use x="179.19921875" xlink:href="#BitstreamVeraSans-Roman-33"/>
       <use x="242.822265625" xlink:href="#BitstreamVeraSans-Roman-35"/>
      </g>
     </g>
    </g>
    <g id="xtick_3">
     <g id="line2d_5">
      <g>
       <use style="stroke:#000000;stroke-width:0.5;" x="662.3999999999996" xlink:href="#mec0b966449" y="874.8000000000001"/>
      </g>
     </g>
     <g id="line2d_6">
      <g>
       <use style="stroke:#000000;stroke-width:0.5;" x="662.3999999999996" xlink:href="#m0c1850e980" y="97.19999999999993"/>
      </g>
     </g>
     <g id="text_3">
      <!-- −0.30 -->
      <g transform="translate(644.0128124999997 887.918125)scale(0.12 -0.12)">
       <use xlink:href="#BitstreamVeraSans-Roman-2212"/>
       <use x="83.7890625" xlink:href="#BitstreamVeraSans-Roman-30"/>
       <use x="147.412109375" xlink:href="#BitstreamVeraSans-Roman-2e"/>
       <use x="179.19921875" xlink:href="#BitstreamVeraSans-Roman-33"/>
       <use x="242.822265625" xlink:href="#BitstreamVeraSans-Roman-30"/>
      </g>
     </g>
    </g>
    <g id="xtick_4">
     <g id="line2d_7">
      <g>
       <use style="stroke:#000000;stroke-width:0.5;" x="885.5999999999999" xlink:href="#mec0b966449" y="874.8000000000001"/>
      </g>
     </g>
     <g id="line2d_8">
      <g>
       <use style="stroke:#000000;stroke-width:0.5;" x="885.5999999999999" xlink:href="#m0c1850e980" y="97.19999999999993"/>
      </g>
     </g>
     <g id="text_4">
      <!-- −0.25 -->
      <defs>
       <path d="M 19.1875 8.296875 
L 53.609375 8.296875 
L 53.609375 0 
L 7.328125 0 
L 7.328125 8.296875 
Q 12.9375 14.109375 22.625 23.890625 
Q 32.328125 33.6875 34.8125 36.53125 
Q 39.546875 41.84375 41.421875 45.53125 
Q 43.3125 49.21875 43.3125 52.78125 
Q 43.3125 58.59375 39.234375 62.25 
Q 35.15625 65.921875 28.609375 65.921875 
Q 23.96875 65.921875 18.8125 64.3125 
Q 13.671875 62.703125 7.8125 59.421875 
L 7.8125 69.390625 
Q 13.765625 71.78125 18.9375 73 
Q 24.125 74.21875 28.421875 74.21875 
Q 39.75 74.21875 46.484375 68.546875 
Q 53.21875 62.890625 53.21875 53.421875 
Q 53.21875 48.921875 51.53125 44.890625 
Q 49.859375 40.875 45.40625 35.40625 
Q 44.1875 33.984375 37.640625 27.21875 
Q 31.109375 20.453125 19.1875 8.296875 
" id="BitstreamVeraSans-Roman-32"/>
      </defs>
      <g transform="translate(867.2128124999999 887.918125)scale(0.12 -0.12)">
       <use xlink:href="#BitstreamVeraSans-Roman-2212"/>
       <use x="83.7890625" xlink:href="#BitstreamVeraSans-Roman-30"/>
       <use x="147.412109375" xlink:href="#BitstreamVeraSans-Roman-2e"/>
       <use x="179.19921875" xlink:href="#BitstreamVeraSans-Roman-32"/>
       <use x="242.822265625" xlink:href="#BitstreamVeraSans-Roman-35"/>
      </g>
     </g>
    </g>
    <g id="xtick_5">
     <g id="line2d_9">
      <g>
       <use style="stroke:#000000;stroke-width:0.5;" x="1108.7999999999997" xlink:href="#mec0b966449" y="874.8000000000001"/>
      </g>
     </g>
     <g id="line2d_10">
      <g>
       <use style="stroke:#000000;stroke-width:0.5;" x="1108.7999999999997" xlink:href="#m0c1850e980" y="97.19999999999993"/>
      </g>
     </g>
     <g id="text_5">
      <!-- −0.20 -->
      <g transform="translate(1090.4128124999997 887.918125)scale(0.12 -0.12)">
       <use xlink:href="#BitstreamVeraSans-Roman-2212"/>
       <use x="83.7890625" xlink:href="#BitstreamVeraSans-Roman-30"/>
       <use x="147.412109375" xlink:href="#BitstreamVeraSans-Roman-2e"/>
       <use x="179.19921875" xlink:href="#BitstreamVeraSans-Roman-32"/>
       <use x="242.822265625" xlink:href="#BitstreamVeraSans-Roman-30"/>
      </g>
     </g>
    </g>
    <g id="xtick_6">
     <g id="line2d_11">
      <g>
       <use style="stroke:#000000;stroke-width:0.5;" x="1331.9999999999998" xlink:href="#mec0b966449" y="874.8000000000001"/>
      </g>
     </g>
     <g id="line2d_12">
      <g>
       <use style="stroke:#000000;stroke-width:0.5;" x="1331.9999999999998" xlink:href="#m0c1850e980" y="97.19999999999993"/>
      </g>
     </g>
     <g id="text_6">
      <!-- −0.15 -->
      <defs>
       <path d="M 12.40625 8.296875 
L 28.515625 8.296875 
L 28.515625 63.921875 
L 10.984375 60.40625 
L 10.984375 69.390625 
L 28.421875 72.90625 
L 38.28125 72.90625 
L 38.28125 8.296875 
L 54.390625 8.296875 
L 54.390625 0 
L 12.40625 0 
z
" id="BitstreamVeraSans-Roman-31"/>
      </defs>
      <g transform="translate(1313.6128124999998 887.918125)scale(0.12 -0.12)">
       <use xlink:href="#BitstreamVeraSans-Roman-2212"/>
       <use x="83.7890625" xlink:href="#BitstreamVeraSans-Roman-30"/>
       <use x="147.412109375" xlink:href="#BitstreamVeraSans-Roman-2e"/>
       <use x="179.19921875" xlink:href="#BitstreamVeraSans-Roman-31"/>
       <use x="242.822265625" xlink:href="#BitstreamVeraSans-Roman-35"/>
      </g>
     </g>
    </g>
    <g id="xtick_7">
     <g id="line2d_13">
      <g>
       <use style="stroke:#000000;stroke-width:0.5;" x="1555.2" xlink:href="#mec0b966449" y="874.8000000000001"/>
      </g>
     </g>
     <g id="line2d_14">
      <g>
       <use style="stroke:#000000;stroke-width:0.5;" x="1555.2" xlink:href="#m0c1850e980" y="97.19999999999993"/>
      </g>
     </g>
     <g id="text_7">
      <!-- −0.10 -->
      <g transform="translate(1536.8128125 887.918125)scale(0.12 -0.12)">
       <use xlink:href="#BitstreamVeraSans-Roman-2212"/>
       <use x="83.7890625" xlink:href="#BitstreamVeraSans-Roman-30"/>
       <use x="147.412109375" xlink:href="#BitstreamVeraSans-Roman-2e"/>
       <use x="179.19921875" xlink:href="#BitstreamVeraSans-Roman-31"/>
       <use x="242.822265625" xlink:href="#BitstreamVeraSans-Roman-30"/>
      </g>
     </g>
    </g>
   </g>
   <g id="matplotlib.axis_2">
    <g id="ytick_1">
     <g id="line2d_15">
      <defs>
       <path d="M 0 0 
L 4 0 
" id="m18f9cfd22e" style="stroke:#000000;stroke-width:0.5;"/>
      </defs>
      <g>
       <use style="stroke:#000000;stroke-width:0.5;" x="216.0" xlink:href="#m18f9cfd22e" y="874.8000000000001"/>
      </g>
     </g>
     <g id="line2d_16">
      <defs>
       <path d="M 0 0 
L -4 0 
" id="m3817875409" style="stroke:#000000;stroke-width:0.5;"/>
      </defs>
      <g>
       <use style="stroke:#000000;stroke-width:0.5;" x="1555.2" xlink:href="#m3817875409" y="874.8000000000001"/>
      </g>
     </g>
     <g id="text_8">
      <!-- 0 -->
      <g transform="translate(204.365 878.11125)scale(0.12 -0.12)">
       <use xlink:href="#BitstreamVeraSans-Roman-30"/>
      </g>
     </g>
    </g>
    <g id="ytick_2">
     <g id="line2d_17">
      <g>
       <use style="stroke:#000000;stroke-width:0.5;" x="216.0" xlink:href="#m18f9cfd22e" y="719.28"/>
      </g>
     </g>
     <g id="line2d_18">
      <g>
       <use style="stroke:#000000;stroke-width:0.5;" x="1555.2" xlink:href="#m3817875409" y="719.28"/>
      </g>
     </g>
     <g id="text_9">
      <!-- 5 -->
      <g transform="translate(204.365 722.59125)scale(0.12 -0.12)">
       <use xlink:href="#BitstreamVeraSans-Roman-35"/>
      </g>
     </g>
    </g>
    <g id="ytick_3">
     <g id="line2d_19">
      <g>
       <use style="stroke:#000000;stroke-width:0.5;" x="216.0" xlink:href="#m18f9cfd22e" y="563.76"/>
      </g>
     </g>
     <g id="line2d_20">
      <g>
       <use style="stroke:#000000;stroke-width:0.5;" x="1555.2" xlink:href="#m3817875409" y="563.76"/>
      </g>
     </g>
     <g id="text_10">
      <!-- 10 -->
      <g transform="translate(196.73 567.07125)scale(0.12 -0.12)">
       <use xlink:href="#BitstreamVeraSans-Roman-31"/>
       <use x="63.623046875" xlink:href="#BitstreamVeraSans-Roman-30"/>
      </g>
     </g>
    </g>
    <g id="ytick_4">
     <g id="line2d_21">
      <g>
       <use style="stroke:#000000;stroke-width:0.5;" x="216.0" xlink:href="#m18f9cfd22e" y="408.23999999999995"/>
      </g>
     </g>
     <g id="line2d_22">
      <g>
       <use style="stroke:#000000;stroke-width:0.5;" x="1555.2" xlink:href="#m3817875409" y="408.23999999999995"/>
      </g>
     </g>
     <g id="text_11">
      <!-- 15 -->
      <g transform="translate(196.73 411.55124999999987)scale(0.12 -0.12)">
       <use xlink:href="#BitstreamVeraSans-Roman-31"/>
       <use x="63.623046875" xlink:href="#BitstreamVeraSans-Roman-35"/>
      </g>
     </g>
    </g>
    <g id="ytick_5">
     <g id="line2d_23">
      <g>
       <use style="stroke:#000000;stroke-width:0.5;" x="216.0" xlink:href="#m18f9cfd22e" y="252.7199999999999"/>
      </g>
     </g>
     <g id="line2d_24">
      <g>
       <use style="stroke:#000000;stroke-width:0.5;" x="1555.2" xlink:href="#m3817875409" y="252.7199999999999"/>
      </g>
     </g>
     <g id="text_12">
      <!-- 20 -->
      <g transform="translate(196.73 256.0312499999999)scale(0.12 -0.12)">
       <use xlink:href="#BitstreamVeraSans-Roman-32"/>
       <use x="63.623046875" xlink:href="#BitstreamVeraSans-Roman-30"/>
      </g>
     </g>
    </g>
    <g id="ytick_6">
     <g id="line2d_25">
      <g>
       <use style="stroke:#000000;stroke-width:0.5;" x="216.0" xlink:href="#m18f9cfd22e" y="97.19999999999993"/>
      </g>
     </g>
     <g id="line2d_26">
      <g>
       <use style="stroke:#000000;stroke-width:0.5;" x="1555.2" xlink:href="#m3817875409" y="97.19999999999993"/>
      </g>
     </g>
     <g id="text_13">
      <!-- 25 -->
      <g transform="translate(196.73 100.5112499999999)scale(0.12 -0.12)">
       <use xlink:href="#BitstreamVeraSans-Roman-32"/>
       <use x="63.623046875" xlink:href="#BitstreamVeraSans-Roman-35"/>
      </g>
     </g>
    </g>
   </g>
   <g id="text_14">
    <!-- Histogram of R01 -->
    <defs>
     <path id="BitstreamVeraSans-Roman-20"/>
     <path d="M 34.28125 27.484375 
Q 23.390625 27.484375 19.1875 25 
Q 14.984375 22.515625 14.984375 16.5 
Q 14.984375 11.71875 18.140625 8.90625 
Q 21.296875 6.109375 26.703125 6.109375 
Q 34.1875 6.109375 38.703125 11.40625 
Q 43.21875 16.703125 43.21875 25.484375 
L 43.21875 27.484375 
z
M 52.203125 31.203125 
L 52.203125 0 
L 43.21875 0 
L 43.21875 8.296875 
Q 40.140625 3.328125 35.546875 0.953125 
Q 30.953125 -1.421875 24.3125 -1.421875 
Q 15.921875 -1.421875 10.953125 3.296875 
Q 6 8.015625 6 15.921875 
Q 6 25.140625 12.171875 29.828125 
Q 18.359375 34.515625 30.609375 34.515625 
L 43.21875 34.515625 
L 43.21875 35.40625 
Q 43.21875 41.609375 39.140625 45 
Q 35.0625 48.390625 27.6875 48.390625 
Q 23 48.390625 18.546875 47.265625 
Q 14.109375 46.140625 10.015625 43.890625 
L 10.015625 52.203125 
Q 14.9375 54.109375 19.578125 55.046875 
Q 24.21875 56 28.609375 56 
Q 40.484375 56 46.34375 49.84375 
Q 52.203125 43.703125 52.203125 31.203125 
" id="BitstreamVeraSans-Roman-61"/>
     <path d="M 30.609375 48.390625 
Q 23.390625 48.390625 19.1875 42.75 
Q 14.984375 37.109375 14.984375 27.296875 
Q 14.984375 17.484375 19.15625 11.84375 
Q 23.34375 6.203125 30.609375 6.203125 
Q 37.796875 6.203125 41.984375 11.859375 
Q 46.1875 17.53125 46.1875 27.296875 
Q 46.1875 37.015625 41.984375 42.703125 
Q 37.796875 48.390625 30.609375 48.390625 
M 30.609375 56 
Q 42.328125 56 49.015625 48.375 
Q 55.71875 40.765625 55.71875 27.296875 
Q 55.71875 13.875 49.015625 6.21875 
Q 42.328125 -1.421875 30.609375 -1.421875 
Q 18.84375 -1.421875 12.171875 6.21875 
Q 5.515625 13.875 5.515625 27.296875 
Q 5.515625 40.765625 12.171875 48.375 
Q 18.84375 56 30.609375 56 
" id="BitstreamVeraSans-Roman-6f"/>
     <path d="M 44.390625 34.1875 
Q 47.5625 33.109375 50.5625 29.59375 
Q 53.5625 26.078125 56.59375 19.921875 
L 66.609375 0 
L 56 0 
L 46.6875 18.703125 
Q 43.0625 26.03125 39.671875 28.421875 
Q 36.28125 30.8125 30.421875 30.8125 
L 19.671875 30.8125 
L 19.671875 0 
L 9.8125 0 
L 9.8125 72.90625 
L 32.078125 72.90625 
Q 44.578125 72.90625 50.734375 67.671875 
Q 56.890625 62.453125 56.890625 51.90625 
Q 56.890625 45.015625 53.6875 40.46875 
Q 50.484375 35.9375 44.390625 34.1875 
M 19.671875 64.796875 
L 19.671875 38.921875 
L 32.078125 38.921875 
Q 39.203125 38.921875 42.84375 42.21875 
Q 46.484375 45.515625 46.484375 51.90625 
Q 46.484375 58.296875 42.84375 61.546875 
Q 39.203125 64.796875 32.078125 64.796875 
z
" id="BitstreamVeraSans-Roman-52"/>
     <path d="M 9.421875 54.6875 
L 18.40625 54.6875 
L 18.40625 0 
L 9.421875 0 
z
M 9.421875 75.984375 
L 18.40625 75.984375 
L 18.40625 64.59375 
L 9.421875 64.59375 
z
" id="BitstreamVeraSans-Roman-69"/>
     <path d="M 52 44.1875 
Q 55.375 50.25 60.0625 53.125 
Q 64.75 56 71.09375 56 
Q 79.640625 56 84.28125 50.015625 
Q 88.921875 44.046875 88.921875 33.015625 
L 88.921875 0 
L 79.890625 0 
L 79.890625 32.71875 
Q 79.890625 40.578125 77.09375 44.375 
Q 74.3125 48.1875 68.609375 48.1875 
Q 61.625 48.1875 57.5625 43.546875 
Q 53.515625 38.921875 53.515625 30.90625 
L 53.515625 0 
L 44.484375 0 
L 44.484375 32.71875 
Q 44.484375 40.625 41.703125 44.40625 
Q 38.921875 48.1875 33.109375 48.1875 
Q 26.21875 48.1875 22.15625 43.53125 
Q 18.109375 38.875 18.109375 30.90625 
L 18.109375 0 
L 9.078125 0 
L 9.078125 54.6875 
L 18.109375 54.6875 
L 18.109375 46.1875 
Q 21.1875 51.21875 25.484375 53.609375 
Q 29.78125 56 35.6875 56 
Q 41.65625 56 45.828125 52.96875 
Q 50 49.953125 52 44.1875 
" id="BitstreamVeraSans-Roman-6d"/>
     <path d="M 18.3125 70.21875 
L 18.3125 54.6875 
L 36.8125 54.6875 
L 36.8125 47.703125 
L 18.3125 47.703125 
L 18.3125 18.015625 
Q 18.3125 11.328125 20.140625 9.421875 
Q 21.96875 7.515625 27.59375 7.515625 
L 36.8125 7.515625 
L 36.8125 0 
L 27.59375 0 
Q 17.1875 0 13.234375 3.875 
Q 9.28125 7.765625 9.28125 18.015625 
L 9.28125 47.703125 
L 2.6875 47.703125 
L 2.6875 54.6875 
L 9.28125 54.6875 
L 9.28125 70.21875 
z
" id="BitstreamVeraSans-Roman-74"/>
     <path d="M 37.109375 75.984375 
L 37.109375 68.5 
L 28.515625 68.5 
Q 23.6875 68.5 21.796875 66.546875 
Q 19.921875 64.59375 19.921875 59.515625 
L 19.921875 54.6875 
L 34.71875 54.6875 
L 34.71875 47.703125 
L 19.921875 47.703125 
L 19.921875 0 
L 10.890625 0 
L 10.890625 47.703125 
L 2.296875 47.703125 
L 2.296875 54.6875 
L 10.890625 54.6875 
L 10.890625 58.5 
Q 10.890625 67.625 15.140625 71.796875 
Q 19.390625 75.984375 28.609375 75.984375 
z
" id="BitstreamVeraSans-Roman-66"/>
     <path d="M 41.109375 46.296875 
Q 39.59375 47.171875 37.8125 47.578125 
Q 36.03125 48 33.890625 48 
Q 26.265625 48 22.1875 43.046875 
Q 18.109375 38.09375 18.109375 28.8125 
L 18.109375 0 
L 9.078125 0 
L 9.078125 54.6875 
L 18.109375 54.6875 
L 18.109375 46.1875 
Q 20.953125 51.171875 25.484375 53.578125 
Q 30.03125 56 36.53125 56 
Q 37.453125 56 38.578125 55.875 
Q 39.703125 55.765625 41.0625 55.515625 
z
" id="BitstreamVeraSans-Roman-72"/>
     <path d="M 44.28125 53.078125 
L 44.28125 44.578125 
Q 40.484375 46.53125 36.375 47.5 
Q 32.28125 48.484375 27.875 48.484375 
Q 21.1875 48.484375 17.84375 46.4375 
Q 14.5 44.390625 14.5 40.28125 
Q 14.5 37.15625 16.890625 35.375 
Q 19.28125 33.59375 26.515625 31.984375 
L 29.59375 31.296875 
Q 39.15625 29.25 43.1875 25.515625 
Q 47.21875 21.78125 47.21875 15.09375 
Q 47.21875 7.46875 41.1875 3.015625 
Q 35.15625 -1.421875 24.609375 -1.421875 
Q 20.21875 -1.421875 15.453125 -0.5625 
Q 10.6875 0.296875 5.421875 2 
L 5.421875 11.28125 
Q 10.40625 8.6875 15.234375 7.390625 
Q 20.0625 6.109375 24.8125 6.109375 
Q 31.15625 6.109375 34.5625 8.28125 
Q 37.984375 10.453125 37.984375 14.40625 
Q 37.984375 18.0625 35.515625 20.015625 
Q 33.0625 21.96875 24.703125 23.78125 
L 21.578125 24.515625 
Q 13.234375 26.265625 9.515625 29.90625 
Q 5.8125 33.546875 5.8125 39.890625 
Q 5.8125 47.609375 11.28125 51.796875 
Q 16.75 56 26.8125 56 
Q 31.78125 56 36.171875 55.265625 
Q 40.578125 54.546875 44.28125 53.078125 
" id="BitstreamVeraSans-Roman-73"/>
     <path d="M 45.40625 27.984375 
Q 45.40625 37.75 41.375 43.109375 
Q 37.359375 48.484375 30.078125 48.484375 
Q 22.859375 48.484375 18.828125 43.109375 
Q 14.796875 37.75 14.796875 27.984375 
Q 14.796875 18.265625 18.828125 12.890625 
Q 22.859375 7.515625 30.078125 7.515625 
Q 37.359375 7.515625 41.375 12.890625 
Q 45.40625 18.265625 45.40625 27.984375 
M 54.390625 6.78125 
Q 54.390625 -7.171875 48.1875 -13.984375 
Q 42 -20.796875 29.203125 -20.796875 
Q 24.46875 -20.796875 20.265625 -20.09375 
Q 16.0625 -19.390625 12.109375 -17.921875 
L 12.109375 -9.1875 
Q 16.0625 -11.328125 19.921875 -12.34375 
Q 23.78125 -13.375 27.78125 -13.375 
Q 36.625 -13.375 41.015625 -8.765625 
Q 45.40625 -4.15625 45.40625 5.171875 
L 45.40625 9.625 
Q 42.625 4.78125 38.28125 2.390625 
Q 33.9375 0 27.875 0 
Q 17.828125 0 11.671875 7.65625 
Q 5.515625 15.328125 5.515625 27.984375 
Q 5.515625 40.671875 11.671875 48.328125 
Q 17.828125 56 27.875 56 
Q 33.9375 56 38.28125 53.609375 
Q 42.625 51.21875 45.40625 46.390625 
L 45.40625 54.6875 
L 54.390625 54.6875 
z
" id="BitstreamVeraSans-Roman-67"/>
     <path d="M 9.8125 72.90625 
L 19.671875 72.90625 
L 19.671875 43.015625 
L 55.515625 43.015625 
L 55.515625 72.90625 
L 65.375 72.90625 
L 65.375 0 
L 55.515625 0 
L 55.515625 34.71875 
L 19.671875 34.71875 
L 19.671875 0 
L 9.8125 0 
z
" id="BitstreamVeraSans-Roman-48"/>
    </defs>
    <g transform="translate(822.5685000000001 92.19999999999993)scale(0.144 -0.144)">
     <use xlink:href="#BitstreamVeraSans-Roman-48"/>
     <use x="75.1953125" xlink:href="#BitstreamVeraSans-Roman-69"/>
     <use x="102.978515625" xlink:href="#BitstreamVeraSans-Roman-73"/>
     <use x="155.078125" xlink:href="#BitstreamVeraSans-Roman-74"/>
     <use x="194.287109375" xlink:href="#BitstreamVeraSans-Roman-6f"/>
     <use x="255.46875" xlink:href="#BitstreamVeraSans-Roman-67"/>
     <use x="318.9453125" xlink:href="#BitstreamVeraSans-Roman-72"/>
     <use x="360.05859375" xlink:href="#BitstreamVeraSans-Roman-61"/>
     <use x="421.337890625" xlink:href="#BitstreamVeraSans-Roman-6d"/>
     <use x="518.75" xlink:href="#BitstreamVeraSans-Roman-20"/>
     <use x="550.537109375" xlink:href="#BitstreamVeraSans-Roman-6f"/>
     <use x="611.71875" xlink:href="#BitstreamVeraSans-Roman-66"/>
     <use x="646.923828125" xlink:href="#BitstreamVeraSans-Roman-20"/>
     <use x="678.7109375" xlink:href="#BitstreamVeraSans-Roman-52"/>
     <use x="748.193359375" xlink:href="#BitstreamVeraSans-Roman-30"/>
     <use x="811.81640625" xlink:href="#BitstreamVeraSans-Roman-31"/>
    </g>
   </g>
  </g>
 </g>
 <defs>
  <clipPath id="p7001c6708b">
   <rect height="777.6000000000001" width="1339.2" x="216.0" y="97.19999999999993"/>
  </clipPath>
 </defs>
</svg>
